<?xml version="1.0" standalone="no"?>
<!DOCTYPE svg PUBLIC "-//W3C//DTD SVG 1.1//EN" "http://www.w3.org/Graphics/SVG/1.1/DTD/svg11.dtd" >
<svg xmlns="http://www.w3.org/2000/svg">
<metadata>
Created by FontPrep 20130207 at Tue Dec 30 14:13:36 2014
 By ARogov
Copyright (C) 1993; Type Market Ltd. Moscow, 119136, Box 20; phone:(095)142-77-12
</metadata>
<defs>
<font id="dd4b49fca99e2c32bccd9fff6b758fc8" horiz-adv-x='1024' >
  <font-face 
    font-family="HeliosCondLightRegular"
    font-weight="400"
    font-stretch="normal"
    units-per-em="2048"
    panose-1="2 0 5 6 4 0 0 2 0 4"
    ascent="1638"
    descent="-410"
    x-height="1085"
    cap-height="1475"
    bbox="-78 -389 1966 1858"
    underline-thickness="118"
    underline-position="-65"
    unicode-range="U+0020-2122"
  />
<missing-glyph horiz-adv-x="1024" 
 />
    <glyph glyph-name=".notdef" horiz-adv-x="1024" 
 />
    <glyph glyph-name=".notdef" horiz-adv-x="1024" 
 />
    <glyph glyph-name=".null" horiz-adv-x="0" 
 />
    <glyph glyph-name="nonmarkingreturn" horiz-adv-x="681" 
 />
    <glyph glyph-name="space" unicode=" " horiz-adv-x="436" 
 />
    <glyph glyph-name="space" unicode="&#xa0;" horiz-adv-x="436" 
 />
    <glyph glyph-name="exclam" unicode="!" horiz-adv-x="438" 
d="M156 172h137v-172h-137v172zM156 1061v387h137v-391q1 -185 -13 -409t-18 -304h-78q-2 72 -15 292q-13 221 -13 425z" />
    <glyph glyph-name="quotedbl" unicode="&#x22;" horiz-adv-x="608" 
d="M362 1032v443h103v-443h-103zM143 1032v443h103v-443h-103z" />
    <glyph glyph-name="numbersign" unicode="#" 
d="M338 590h137l68 258h-135zM96 0l125 489h-196l30 101h191l67 258h-196l30 100h189l127 514h96l-131 -514h137l129 514h92l-129 -514h191l-31 -100h-180l-68 -258h187l-31 -101h-178l-123 -489h-98l127 489h-140l-125 -489h-92z" />
    <glyph glyph-name="dollar" unicode="$" 
d="M492 618v-546q106 4 165 83t60 191q0 180 -225 272zM399 791v505q-195 -29 -194 -252q0 -78 49 -147t145 -106zM797 1028h-115q0 94 -46 171t-144 97v-546q158 -63 235 -140q111 -100 111 -262t-92 -260t-254 -117v-161h-93v161q-188 23 -262 135t-74 308h117
q0 -317 219 -340v585q-155 68 -237 158t-82 238q0 84 49 184q29 59 99 103q71 44 171 55v133h93v-123q305 -64 305 -379z" />
    <glyph glyph-name="percent" unicode="%" horiz-adv-x="1343" 
d="M330 1343q-152 0 -152 -266q0 -133 28 -199t121 -65q93 0 122 66q44 100 24 286q-12 115 -62 154q-32 24 -81 24zM68 1075q0 355 260 355t260 -343q0 -168 -58 -264t-206 -96t-202 90t-54 258zM1008 616q-152 0 -152 -266q0 -132 28 -198t121 -66t121 66t29 158
q0 92 -4 128q-12 115 -62 154q-32 24 -81 24zM1006 702q260 0 260 -342q0 -168 -58 -264t-206 -96t-202 90t-55 258q1 354 261 354zM324 -31l598 1487h86l-598 -1487h-86z" />
    <glyph glyph-name="ampersand" unicode="&#x26;" horiz-adv-x="1200" 
d="M252 382q0 -130 76 -210t202 -80q191 0 287 156l-342 520q-115 -86 -169 -171t-54 -215zM526 -20q-186 0 -295 110t-108 305q0 149 79 257t220 210q-55 82 -81 126t-49 116q-24 72 -24 149q0 127 75 199t196 72t197 -71t75 -197q0 -126 -61 -222t-177 -182l308 -479
q53 127 53 315h127q1 -92 -27 -218t-71 -208l163 -262h-139l-100 150q-55 -82 -153 -126t-208 -44zM684 1247q0 164 -152 164q-72 0 -110 -40t-39 -114q0 -145 127 -319q78 53 126 135t48 174z" />
    <glyph glyph-name="quotesingle" unicode="'" horiz-adv-x="389" 
d="M143 1032v443h103v-443h-103z" />
    <glyph glyph-name="parenleft" unicode="(" horiz-adv-x="546" 
d="M229 574q0 -554 250 -951h-92q-285 433 -285 963t285 923h92q-250 -381 -250 -935z" />
    <glyph glyph-name="parenright" unicode=")" horiz-adv-x="546" 
d="M160 -377h-92q250 383 250 915t-236 951q-2 2 -14 20h92q285 -432 284 -938q1 -559 -284 -948z" />
    <glyph glyph-name="asterisk" unicode="*" horiz-adv-x="763" 
d="M342 1462h86v-223l219 82l25 -88l-215 -72l143 -205l-72 -47l-147 209l-152 -209l-67 54l145 202l-213 74l27 82l221 -82v223z" />
    <glyph glyph-name="plus" unicode="+" 
d="M387 432h-346v100h346v431h100v-431h347v-100h-347v-432h-100v432z" />
    <glyph glyph-name="comma" unicode="," horiz-adv-x="438" 
d="M152 172h137v-172q0 -196 -63 -244q-30 -23 -74 -24v73q61 12 61 195h-61v172z" />
    <glyph glyph-name="hyphen" unicode="-" horiz-adv-x="591" 
d="M551 528h-510v115h510v-115z" />
    <glyph glyph-name="hyphen" unicode="&#x2010;" horiz-adv-x="591" 
d="M551 528h-510v115h510v-115z" />
    <glyph glyph-name="hyphen" unicode="&#xad;" horiz-adv-x="591" 
d="M551 528h-510v115h510v-115z" />
    <glyph glyph-name="period" unicode="." horiz-adv-x="438" 
d="M152 172h137v-172h-137v172z" />
    <glyph glyph-name="slash" unicode="/" horiz-adv-x="544" 
d="M-20 -184l479 1659h108l-481 -1659h-106z" />
    <glyph glyph-name="zero" unicode="0" 
d="M436 1356q-123 0 -179 -150t-56 -489q0 -338 56 -489q56 -150 179 -150t179 150q57 150 57 488q0 340 -56 490t-180 150zM74 715q0 100 4 178t16 170q21 164 103 282q81 119 238 118t239 -117q80 -117 102 -286q23 -169 23 -309q0 -400 -58 -552q-58 -151 -160 -199
q-61 -29 -143 -29t-143 30t-100 87t-64 123t-37 157t-16 169t-4 178z" />
    <glyph glyph-name="one" unicode="1" horiz-adv-x="870" 
d="M117 1100v94q157 0 239 57t99 211h102v-1462h-127v1124q-151 -24 -313 -24z" />
    <glyph glyph-name="two" unicode="2" horiz-adv-x="870" 
d="M201 1028h-123q0 194 87 314t254 120t262 -104t95 -294t-177 -406q-60 -74 -102 -114t-117 -112t-104 -100q-30 -28 -56 -83q-26 -56 -25 -130h581v-119h-710v102q0 147 77 246q35 44 48 60t69 71t75 75l76 76q157 157 178 207q11 26 35 78t25 167q0 114 -61 194t-170 80
q-217 0 -217 -328z" />
    <glyph glyph-name="three" unicode="3" horiz-adv-x="870" 
d="M295 692v107h39q293 0 293 293q0 112 -49 188t-158 76q-197 0 -211 -287h-115q0 166 84 280q84 113 249 113t246 -104t81 -277q0 -65 -24 -134q-48 -134 -189 -191q252 -59 252 -371q0 -113 -34 -196t-77 -123t-111 -67q-68 -28 -147 -28q-362 0 -363 410h121
q0 -303 238 -303q125 0 184 89q60 89 60 215t-67 218t-216 92h-86z" />
    <glyph glyph-name="four" unicode="4" 
d="M553 500v733h-4l-379 -733h383zM680 1462v-962h129v-107h-129v-393h-127v393h-498v117l504 952h121z" />
    <glyph glyph-name="five" unicode="5" 
d="M725 1436v-119h-440l-56 -447q74 74 203 74q186 0 268 -135t82 -336q0 -137 -34 -245t-122 -182q-89 -74 -225 -75q-334 0 -348 377h127q16 -270 219 -270q96 0 156 62q59 62 79 146t21 191q0 360 -252 361q-69 0 -121 -38t-81 -104h-107l84 740h547z" />
    <glyph glyph-name="six" unicode="6" horiz-adv-x="870" 
d="M464 -29q-181 0 -262 119t-101 264q-19 146 -19 257q0 331 37 494t123 261t227 97t226 -89t85 -235h-118q-14 217 -201 217q-155 0 -216 -254q-28 -116 -36 -318h4q106 139 258 140q212 0 295 -214q43 -107 43 -263q-1 -157 -67 -301q-36 -79 -110 -127t-168 -48z
M444 817q-129 0 -182 -97q-53 -96 -53 -236t44 -261q53 -145 203 -145q78 0 135 67q56 68 74 146q17 78 17 167t-16 163t-73 135t-149 61z" />
    <glyph glyph-name="seven" unicode="7" horiz-adv-x="870" 
d="M98 1317v119h711v-117q-424 -602 -463 -1319h-127q14 324 138 690t323 627h-582z" />
    <glyph glyph-name="eight" unicode="8" 
d="M119 1108q0 156 82 255q81 99 237 99t237 -98t81 -256q0 -266 -160 -328q119 -66 164 -160t45 -227q0 -422 -368 -422t-367 422q0 131 45 226t164 161q-160 61 -160 328zM434 1356q-192 0 -192 -268t194 -267q102 0 150 78q47 78 47 186q0 271 -199 271zM438 715
q-240 0 -240 -319t238 -318q240 0 240 328q0 154 -62 232t-176 77z" />
    <glyph glyph-name="nine" unicode="9" 
d="M423 1462q93 0 155 -30q102 -48 161 -189q58 -141 58 -436q0 -430 -66 -596q-66 -165 -174 -212q-63 -28 -145 -28q-137 0 -222 88q-84 88 -84 234h119q14 -215 201 -215q82 0 135 68q109 141 109 501h-4q-100 -139 -250 -139q-255 0 -320 305q-16 76 -16 158
q0 83 15 159t50 156t110 128t168 48zM207 977q0 -362 229 -363q233 0 234 336q0 131 -48 268q-48 138 -197 138q-79 0 -133 -69t-70 -145t-15 -165z" />
    <glyph glyph-name="colon" unicode=":" horiz-adv-x="438" 
d="M152 172h137v-172h-137v172zM152 1024h137v-172h-137v172z" />
    <glyph glyph-name="semicolon" unicode=";" horiz-adv-x="438" 
d="M152 1022h137v-172h-137v172zM152 172h137v-172q0 -196 -63 -244q-30 -23 -74 -24v73q61 12 61 195h-61v172z" />
    <glyph glyph-name="semicolon" unicode="&#x37e;" horiz-adv-x="438" 
d="M152 1022h137v-172h-137v172zM152 172h137v-172q0 -196 -63 -244q-30 -23 -74 -24v73q61 12 61 195h-61v172z" />
    <glyph glyph-name="less" unicode="&#x3c;" 
d="M37 438v86l801 461v-111l-695 -382v-11l695 -395v-111z" />
    <glyph glyph-name="equal" unicode="=" 
d="M41 358h793v-100h-793v100zM41 707h793v-101h-793v101z" />
    <glyph glyph-name="greater" unicode="&#x3e;" 
d="M838 524v-86l-801 -461v111l694 383v10l-694 396v110z" />
    <glyph glyph-name="question" unicode="?" horiz-adv-x="763" 
d="M283 172h137v-172h-137v172zM166 1055h-121q0 154 60 272q34 68 105 108t173 40q139 1 235 -89t97 -262q0 -98 -35 -186t-129 -208t-121 -190t-27 -204h-108q0 145 32 234q32 88 100 180t95 134q72 112 72 228t-52 186t-149 70q-135 0 -181 -82t-46 -231z" />
    <glyph glyph-name="at" unicode="@" horiz-adv-x="1572" 
d="M985 432q0 -74 82 -74q119 0 238 167t118 349q0 240 -180 392t-422 151q-281 0 -477 -204t-194 -481q0 -277 200 -475t475 -198q158 0 310 78t249 209h105q-95 -176 -277 -278t-387 -103q-328 -1 -551 227t-223 549q1 321 229 545t530 225q302 0 507 -180t205 -467
q0 -133 -62 -269t-173 -229q-112 -93 -240 -94q-61 0 -107 28q-45 28 -49 85q-109 -98 -249 -98t-211 86t-71 222t58 273q57 136 173 234t259 98q76 0 138 -34t91 -103l29 96h109q-15 -53 -53 -162q-178 -519 -179 -565zM848 1108q-152 0 -270 -169t-119 -325
q0 -110 55 -174t147 -64t161 51q69 50 93 122q117 346 117 383q0 74 -48 125t-136 51z" />
    <glyph glyph-name="A" unicode="A" horiz-adv-x="983" 
d="M418 1475h147l396 -1475h-130l-116 455h-447l-121 -455h-122zM295 567h393l-194 746h-5z" />
    <glyph glyph-name="B" unicode="B" horiz-adv-x="1007" 
d="M135 0v1475h348q173 -1 277 -91t104 -270q0 -260 -200 -336q242 -66 241 -354q0 -424 -448 -424h-322zM262 717v-604h209q307 0 307 313q0 291 -307 291h-209zM262 1362v-533h182q133 -1 213 59t80 220t-96 211q-81 43 -209 43h-170z" />
    <glyph glyph-name="C" unicode="C" horiz-adv-x="1067" 
d="M827 500h127q0 -233 -103 -384t-305 -151t-295 122t-115 298q-23 176 -23 339t7 249t33 191t69 176q44 71 126 120t195 49q191 0 297 -131t106 -327h-131q-8 149 -74 247t-200 98t-202 -108q-67 -109 -79 -217q-20 -180 -20 -297q0 -192 18 -339t87 -254
q71 -105 208 -103q78 0 134 40q140 100 140 382z" />
    <glyph glyph-name="D" unicode="D" horiz-adv-x="1087" 
d="M459 1475q516 0 516 -639q0 -195 -8 -300q-8 -104 -40 -216t-87 -175q-54 -63 -154 -104t-240 -41h-311v1475h324zM262 1362v-1249h195q106 0 181 38t115 93t62 150q23 95 28 175t5 201q0 308 -80 450t-279 142h-227z" />
    <glyph glyph-name="E" unicode="E" horiz-adv-x="880" 
d="M135 0v1475h678v-113h-551v-516h492v-113h-492v-620h551v-113h-678z" />
    <glyph glyph-name="F" unicode="F" horiz-adv-x="880" 
d="M262 733v-733h-127v1475h678v-113h-551v-516h492v-113h-492z" />
    <glyph glyph-name="G" unicode="G" horiz-adv-x="1093" 
d="M526 621v112h445v-733h-103l-12 152q-111 -186 -314 -186t-295 133q-91 134 -113 300q-21 166 -21 323t7 245q7 87 34 195q26 108 72 178t132 120q86 49 205 49q177 0 277 -124t110 -314h-123q-41 326 -272 326q-144 0 -213 -102t-86 -237q-16 -136 -16 -265
q0 -128 5 -249t29 -198q25 -78 57 -140q66 -128 212 -128q106 0 184 73q105 98 117 470h-318z" />
    <glyph glyph-name="H" unicode="H" horiz-adv-x="1093" 
d="M262 1475v-629h569v629h127v-1475h-127v733h-569v-733h-127v1475h127z" />
    <glyph glyph-name="I" unicode="I" horiz-adv-x="438" 
d="M283 1475v-1475h-127v1475h127z" />
    <glyph glyph-name="J" unicode="J" horiz-adv-x="774" 
d="M41 430h127v-31q0 -243 79 -295q39 -26 107 -26t106 40t45 85t7 119v1153h127v-1162q0 -348 -301 -348q-154 1 -226 103t-71 260v102z" />
    <glyph glyph-name="K" unicode="K" horiz-adv-x="985" 
d="M262 1475v-738l537 738h147l-436 -596l459 -879h-140l-401 774l-166 -215v-559h-127v1475h127z" />
    <glyph glyph-name="L" unicode="L" horiz-adv-x="862" 
d="M262 1475v-1362h547v-113h-674v1475h127z" />
    <glyph glyph-name="M" unicode="M" horiz-adv-x="1402" 
d="M135 1475h213l350 -1287h4l359 1287h207v-1475h-127v1348h-4l-365 -1348h-137l-369 1348h-4v-1348h-127v1475z" />
    <glyph glyph-name="N" unicode="N" horiz-adv-x="1101" 
d="M135 1475h158l543 -1266h4v1266h127v-1475h-154l-547 1262h-4v-1262h-127v1475z" />
    <glyph glyph-name="O" unicode="O" horiz-adv-x="1091" 
d="M240 739q0 -377 78 -523q32 -60 90 -99t131 -39q74 0 125 24q88 41 138 172q50 132 50 453q0 322 -51 461t-136 182q-52 27 -126 27t-131 -39q-58 -39 -90 -98q-78 -143 -78 -521zM223 127q-45 70 -77 208t-33 452q0 314 72 475t193 216q73 32 169 32q200 -1 294 -127
t116 -291t22 -314q0 -419 -67 -568q-30 -67 -75 -126q-93 -119 -299 -119q-106 0 -188 46t-127 116z" />
    <glyph glyph-name="P" unicode="P" horiz-adv-x="983" 
d="M262 1362v-582h166q170 0 254 64t84 223t-80 227t-237 68h-187zM262 668v-668h-127v1475h334q190 1 307 -93t117 -299q-1 -205 -107 -310t-307 -105h-217z" />
    <glyph glyph-name="Q" unicode="Q" horiz-adv-x="1091" 
d="M547 -35q-242 0 -342 199q-82 164 -90 425q-2 65 -2 169t7 198t34 204q28 110 72 182t126 119q82 48 188 48q209 0 301 -128q93 -128 116 -296q22 -167 22 -342q-1 -442 -105 -608l162 -133l-69 -86l-164 133q-96 -84 -256 -84zM547 1397q-80 0 -138 -39q-59 -39 -91 -98
t-55 -177t-23 -301q0 -182 9 -282q24 -272 133 -367q65 -55 161 -55t162 51l-150 119l72 90l149 -123q76 172 76 539t-84 514q-75 129 -221 129z" />
    <glyph glyph-name="R" unicode="R" horiz-adv-x="989" 
d="M262 1362v-555h225q260 0 261 280q0 150 -70 212t-223 63h-193zM262 694v-694h-127v1475h348q391 0 391 -381q0 -122 -56 -224t-161 -118v-4q119 -31 158 -117t39 -244q0 -299 68 -369v-18h-140q-39 86 -49 176t-10 236t-70 215q-70 68 -178 67h-213z" />
    <glyph glyph-name="S" unicode="S" horiz-adv-x="983" 
d="M872 1118h-122q0 129 -66 204t-188 75t-188 -80t-66 -204t57 -182t197 -110q223 -80 320 -179t97 -276q-1 -177 -115 -289t-309 -112t-300 126t-105 327h127q0 -152 67 -246q68 -94 206 -94t219 80t81 211t-59 189t-123 85q-64 26 -147 57q-172 68 -256 154t-84 259
t102 285q101 112 277 112t277 -108q101 -106 101 -284z" />
    <glyph glyph-name="T" unicode="T" 
d="M500 1362v-1362h-127v1362h-334v113h795v-113h-334z" />
    <glyph glyph-name="U" unicode="U" horiz-adv-x="1093" 
d="M145 1475h127v-1072q0 -169 56 -247t215 -78q158 0 218 86t60 252v1059h127v-1024q0 -236 -89 -361t-314 -125q-399 0 -400 424v1086z" />
    <glyph glyph-name="V" unicode="V" horiz-adv-x="983" 
d="M27 1475h135l330 -1307h4l338 1307h124l-393 -1475h-143z" />
    <glyph glyph-name="W" unicode="W" horiz-adv-x="1421" 
d="M35 1475h129l225 -1246h2l244 1246h147l242 -1252h4l236 1252h122l-290 -1475h-144l-245 1262h-5l-239 -1262h-144z" />
    <glyph glyph-name="X" unicode="X" horiz-adv-x="983" 
d="M53 1475h144l292 -592l302 592h141l-367 -713l383 -762h-139l-320 641l-317 -641h-137l381 762z" />
    <glyph glyph-name="Y" unicode="Y" horiz-adv-x="980" 
d="M553 0h-127v627l-389 848h141l311 -703l322 703h135l-393 -848v-627z" />
    <glyph glyph-name="Z" unicode="Z" 
d="M94 1475h713v-111l-608 -1251h608v-113h-739v119l602 1243h-576v113z" />
    <glyph glyph-name="bracketleft" unicode="[" horiz-adv-x="546" 
d="M145 1511h301v-92h-186v-1532h191v-92h-306v1716z" />
    <glyph glyph-name="backslash" unicode="\" horiz-adv-x="438" 
d="M-78 1475h107l487 -1475h-106z" />
    <glyph glyph-name="bracketright" unicode="]" horiz-adv-x="546" 
d="M100 1511h301v-1716h-305v92h191v1532h-187v92z" />
    <glyph glyph-name="asciicircum" unicode="^" 
d="M395 1475h80l266 -807h-92l-217 659l-211 -659h-92z" />
    <glyph glyph-name="underscore" unicode="_" horiz-adv-x="983" 
d="M0 -123h983v-115h-983v115z" />
    <glyph glyph-name="grave" unicode="`" horiz-adv-x="655" 
d="M451 1192h-101l-270 272h153z" />
    <glyph glyph-name="a" unicode="a" horiz-adv-x="796" 
d="M684 -18q-92 0 -113 108h-2q-82 -119 -230 -119t-202 74q-53 74 -53 215q0 219 176 299l229 103q45 20 61 56q15 36 15 120t-44 129t-119 45t-98 -18q-22 -18 -34 -28q-12 -9 -20 -35t-11 -35t-9 -43t-7 -40h-110q0 299 290 299q145 0 211 -74t66 -223v-665q0 -49 12 -61
q13 -11 66 -13v-82q-27 -12 -74 -12zM348 72q131 0 177 105q40 87 40 198v209q-134 -61 -219 -102q-84 -42 -116 -88t-31 -134q0 -188 149 -188z" />
    <glyph glyph-name="b" unicode="b" horiz-adv-x="868" 
d="M233 102v-102h-114v1475h114v-480h5q104 117 243 117q305 0 305 -565q0 -403 -143 -520q-68 -55 -170 -56q-162 0 -235 131h-5zM453 1012q-149 0 -189 -164q-29 -126 -30 -255q-3 -383 96 -477q45 -44 108 -44q120 0 171 96q47 84 59 244q4 66 4 151q0 449 -219 449z" />
    <glyph glyph-name="c" unicode="c" horiz-adv-x="788" 
d="M715 358q0 -172 -72 -280t-229 -107q-192 0 -264 151q-63 125 -67 315q-1 44 -1 119q0 292 82 426q33 54 96 92t150 38q139 0 217 -100t78 -248h-113q0 100 -50 174t-130 74t-122 -40q-94 -88 -93 -437q0 -349 103 -427q46 -36 104 -36q99 0 141 64t55 222h115z" />
    <glyph glyph-name="d" unicode="d" horiz-adv-x="868" 
d="M635 1475h115v-1475h-115v102h-4q-66 -131 -236 -131q-142 0 -212 105q-71 105 -86 225t-15 246q0 565 317 565q141 0 232 -117h4v480zM416 1012q-149 0 -189 -164q-30 -130 -30 -256q0 -384 96 -476q45 -44 109 -44q119 0 170 96q47 84 59 244q4 66 4 151
q0 449 -219 449z" />
    <glyph glyph-name="e" unicode="e" horiz-adv-x="798" 
d="M197 647h395q0 365 -198 365t-197 -365zM707 547h-510q0 -216 25 -311q24 -95 68 -130q44 -34 106 -34q123 1 159 93q30 76 37 187h115q0 -158 -77 -270t-229 -111q-152 0 -221 102t-83 221q-15 119 -15 210q0 90 1 134q4 186 63 316q76 160 264 158q76 0 140 -41
t96 -111q58 -129 61 -303v-110z" />
    <glyph glyph-name="f" unicode="f" horiz-adv-x="440" 
d="M375 1376q-61 0 -84 -26t-23 -86v-179h135v-100h-135v-985h-114v985h-115v100h115v119q0 154 40 213t171 60q25 -1 43 -7v-98q-20 4 -33 4z" />
    <glyph glyph-name="g" unicode="g" horiz-adv-x="864" 
d="M414 1012q-149 0 -189 -164q-30 -130 -30 -256q0 -384 96 -476q45 -44 109 -44q119 0 170 96q47 84 59 244q4 66 4 151q0 449 -219 449zM633 987v98h112v-1060q0 -190 -76 -293q-77 -102 -259 -103q-125 1 -210 63t-91 183h116q3 -69 59 -107t130 -38q148 0 187 97
q22 52 27 104t5 147h-8q-84 -106 -230 -107q-104 1 -172 53t-96 147q-45 147 -45 340q0 281 32 362t64 133q66 106 217 106q150 0 234 -125h4z" />
    <glyph glyph-name="h" unicode="h" horiz-adv-x="864" 
d="M233 1475v-504q39 65 103 103t137 38q74 0 128 -22t82 -49t43 -77t17 -85t2 -93v-786h-114v764q0 187 -77 228q-36 20 -106 20t-142 -58q-73 -58 -73 -141v-813h-114v1475h114z" />
    <glyph glyph-name="i" unicode="i" horiz-adv-x="421" 
d="M154 1475h114v-185h-114v185zM268 1085v-1085h-114v1085h114z" />
    <glyph glyph-name="j" unicode="j" horiz-adv-x="438" 
d="M174 1475h115v-185h-115v185zM174 1085h115v-1218q0 -131 -48 -186t-198 -56v101q84 0 108 34t23 111v1214z" />
    <glyph glyph-name="k" unicode="k" horiz-adv-x="761" 
d="M233 1475v-902l353 512h143l-295 -405l301 -680h-121l-262 565l-119 -168v-397h-114v1475h114z" />
    <glyph glyph-name="l" unicode="l" horiz-adv-x="421" 
d="M268 1475v-1475h-114v1475h114z" />
    <glyph glyph-name="m" unicode="m" horiz-adv-x="1323" 
d="M233 1085v-106h5q33 57 96 95t138 38t125 -25t97 -96h4q86 121 256 121q138 0 194 -77t56 -216v-819h-114v831q0 180 -150 181q-100 0 -160 -58t-61 -161v-793h-115v784q0 111 -31 169q-31 59 -118 59t-155 -60t-67 -151v-801h-114v1085h114z" />
    <glyph glyph-name="n" unicode="n" horiz-adv-x="864" 
d="M233 1085v-114q39 65 103 103t137 38q74 0 128 -22t82 -49t43 -77t17 -85t2 -93v-786h-114v764q0 187 -77 228q-36 20 -106 20t-142 -58q-73 -58 -73 -141v-813h-114v1085h114z" />
    <glyph glyph-name="o" unicode="o" horiz-adv-x="845" 
d="M420 72q150 0 193 156q36 126 36 315q0 469 -226 469t-226 -469q-1 -345 101 -431q48 -40 122 -40zM428 -29q-82 0 -139 25t-93 70q-75 94 -95 217q-19 123 -19 233q0 112 5 180t27 150t56 136t100 92t166 38t170 -52q72 -52 104 -146q54 -158 54 -371q0 -298 -88 -443
q-34 -55 -100 -92t-148 -37z" />
    <glyph glyph-name="p" unicode="p" horiz-adv-x="870" 
d="M455 1012q-149 0 -189 -164q-30 -130 -30 -256q0 -384 96 -476q45 -44 108 -44q120 0 171 96q47 84 59 244q4 66 4 151q0 449 -219 449zM236 -375h-115v1460h110v-98h5q33 55 90 90t127 35q336 0 335 -537q0 -344 -85 -478q-34 -54 -95 -90t-145 -36q-143 0 -227 119
v-465z" />
    <glyph glyph-name="q" unicode="q" horiz-adv-x="866" 
d="M414 1012q-149 0 -189 -164q-30 -130 -30 -256q0 -384 96 -476q45 -44 109 -44q119 0 170 96q47 84 59 244q4 66 4 151q0 449 -219 449zM748 1085v-1460h-115v465q-80 -119 -229 -119t-220 99q-72 99 -84 195t-15 149t-3 125t6 184t37 179q31 66 65 114q71 96 213 96
t230 -125v98h115z" />
    <glyph glyph-name="r" unicode="r" horiz-adv-x="530" 
d="M233 1085v-124q45 89 101 121t155 32v-121q-127 -1 -191 -75t-65 -205v-713h-114v1085h114z" />
    <glyph glyph-name="s" unicode="s" horiz-adv-x="792" 
d="M676 809h-113q0 90 -49 146t-137 57q-160 0 -160 -172q0 -106 166 -183q80 -37 125 -63t97 -69q100 -85 100 -238t-81 -235t-231 -81q-151 0 -231 83t-80 239h113q16 -221 208 -221q86 0 137 57q50 57 50 127q0 128 -76 190q-56 47 -154 89q-258 109 -258 301
q0 128 72 202t209 74t215 -81t78 -222z" />
    <glyph glyph-name="t" unicode="t" horiz-adv-x="436" 
d="M244 172q0 -127 151 -90v-98q-68 -10 -121 -10t-98 43q-45 44 -45 128v838h-98v100h98v318h113v-318h151v-100h-151v-811z" />
    <glyph glyph-name="u" unicode="u" horiz-adv-x="866" 
d="M119 1085h114v-823q0 -104 41 -147q40 -43 132 -43t160 62t67 151v800h115v-1085h-115v106l-4 -4q-59 -74 -119 -102t-150 -29q-242 0 -241 295v819z" />
    <glyph glyph-name="v" unicode="v" horiz-adv-x="763" 
d="M33 1085h123l227 -878h4l229 878h117l-287 -1085h-124z" />
    <glyph glyph-name="w" unicode="w" horiz-adv-x="1093" 
d="M23 1085h112l178 -864h4l166 864h127l170 -864h4l177 864h110l-235 -1085h-119l-168 854h-4l-168 -854h-125z" />
    <glyph glyph-name="x" unicode="x" horiz-adv-x="763" 
d="M45 1085h127l207 -419l211 419h131l-270 -518l288 -567h-129l-231 461l-229 -461h-125l284 567z" />
    <glyph glyph-name="y" unicode="y" horiz-adv-x="763" 
d="M147 -377q-66 0 -94 8v101q21 -4 57 -4t71 9t53 34q18 24 25 36t16 42t14 43q4 14 11 52t11 52l-280 1089h121l223 -878h4l235 878h117l-342 -1243q-61 -219 -242 -219z" />
    <glyph glyph-name="z" unicode="z" horiz-adv-x="653" 
d="M57 1085h551v-106l-450 -879h460v-100h-583v109l454 876h-432v100z" />
    <glyph glyph-name="braceleft" unicode="{" horiz-adv-x="690" 
d="M389 1284v-346q0 -115 -35 -178t-143 -96v-5q102 -18 140 -76t38 -169v-373q0 -82 31 -131t125 -90v-4q-168 0 -229 63q-60 63 -60 199v391q0 166 -160 190v5q98 26 129 74t31 132v344q0 166 60 231t229 64v-4q-92 -39 -124 -90t-32 -131z" />
    <glyph glyph-name="bar" unicode="|" horiz-adv-x="438" 
d="M168 1475h102v-1475h-102v1475z" />
    <glyph glyph-name="braceright" unicode="}" horiz-adv-x="688" 
d="M145 1511q141 0 215 -52t74 -210v-389q0 -74 38 -128t122 -64v-4q-96 -25 -128 -73t-32 -128v-350q0 -164 -58 -230t-231 -65v4q92 39 124 90t32 131v348q0 113 35 176t143 97v4q-102 18 -140 76t-38 169v373q0 82 -31 131t-125 90v4z" />
    <glyph glyph-name="asciitilde" unicode="~" 
d="M264 590q62 0 188 -52t158 -53q86 0 158 121l66 -65q-96 -160 -224 -160q-55 0 -179 52q-125 52 -155 52q-75 0 -113 -52q-15 -19 -21 -27t-20 -30t-16 -24l-65 68q102 170 223 170z" />
    <glyph glyph-name="currency" unicode="&#xa4;" horiz-adv-x="905" 
d="M768 543q0 131 -92 225t-224 94t-224 -91t-93 -223q0 -132 93 -227q94 -95 224 -95t223 92q93 94 93 225zM8 545q0 143 84 264l-76 76l93 92l77 -74q114 86 260 86t273 -86l76 74l92 -92l-76 -76q84 -125 84 -265t-84 -265l76 -74l-92 -94l-76 75q-121 -88 -265 -88
t-268 88l-77 -75l-93 94l76 74q-84 123 -84 266z" />
    <glyph glyph-name="brokenbar" unicode="&#xa6;" horiz-adv-x="438" 
d="M168 1475h102v-590h-102v590zM168 590h102v-590h-102v590z" />
    <glyph glyph-name="section" unicode="&#xa7;" 
d="M150 717q0 -74 28 -117t90 -88l303 -215q66 31 110 88t44 130t-38 125t-112 103l-268 195q-73 -31 -115 -89t-42 -132zM246 1252q0 -83 30 -136t99 -100l221 -150q227 -156 227 -352q0 -166 -184 -276q109 -96 109 -232t-86 -215q-86 -80 -226 -80t-224 93
q-83 93 -83 243h107q0 -115 53 -181t147 -65t148 59t55 137q0 79 -90 166q-91 87 -239 193t-204 182q-55 75 -55 171q0 97 48 161t141 121q-59 66 -83 117t-24 129q0 125 89 200t223 75q133 0 215 -95q82 -94 88 -239h-109q-6 104 -54 175q-49 71 -141 71t-145 -45
q-53 -44 -53 -127z" />
    <glyph glyph-name="copyright" unicode="&#xa9;" horiz-adv-x="1572" 
d="M821 299q-186 0 -301 127q-114 126 -114 320t112 320q113 126 299 126q137 0 235 -79t117 -214h-108q-14 88 -83 144t-161 57q-143 0 -222 -100t-79 -249q0 -147 83 -253t222 -107q92 1 161 57t79 150h108q-14 -133 -114 -216t-234 -83zM127 738q-1 -282 193 -482
t467 -199q273 0 467 200q194 199 194 481t-193 481t-467 199t-468 -200q-194 -198 -193 -480zM33 736q0 320 221 546t533 227q313 0 533 -226t220 -546t-220 -546t-533 -226q-312 0 -533 226q-221 225 -221 545z" />
    <glyph glyph-name="guillemotleft" unicode="&#xab;" horiz-adv-x="983" 
d="M807 809v-117l-199 -160l199 -155v-121l-277 207v139zM440 809v-117l-198 -160l198 -155v-121l-276 207v139z" />
    <glyph glyph-name="logicalnot" unicode="&#xac;" 
d="M41 532h793v-495h-101v395h-692v100z" />
    <glyph glyph-name="registered" unicode="&#xae;" horiz-adv-x="1572" 
d="M612 1094v-306h242q215 0 215 156q0 90 -59 120t-158 30h-240zM510 307v864h364q144 0 222 -52t78 -175t-73 -180t-192 -57l252 -400h-121l-239 400h-189v-400h-102zM127 738q-1 -282 193 -482t467 -199q273 0 467 200q194 199 194 481t-193 481t-467 199t-468 -200
q-194 -198 -193 -480zM33 736q0 320 221 546t533 227q313 0 533 -226t220 -546t-220 -546t-533 -226q-312 0 -533 226q-221 225 -221 545z" />
    <glyph glyph-name="degree" unicode="&#xb0;" horiz-adv-x="786" 
d="M612 1167q0 90 -64 154q-65 63 -155 63t-152 -63q-63 -63 -63 -153t64 -154t153 -64t153 64t64 153zM690 1166q0 -122 -87 -208t-209 -86t-208 86t-86 208t86 209t208 87t209 -87t87 -209z" />
    <glyph glyph-name="plusminus" unicode="&#xb1;" 
d="M41 188h793v-100h-793v100zM387 618h-346v101h346v332h100v-332h347v-101h-347v-333h-100v333z" />
    <glyph glyph-name="mu" unicode="&#xb5;" horiz-adv-x="866" 
d="M233 -389h-114v1474h114v-821q0 -102 43 -146q44 -44 134 -44t156 59t67 162v790h115v-1085h-115v96q-98 -123 -271 -123q-78 0 -129 47v-409z" />
    <glyph glyph-name="mu" unicode="&#x3bc;" horiz-adv-x="866" 
d="M233 -389h-114v1474h114v-821q0 -102 43 -146q44 -44 134 -44t156 59t67 162v790h115v-1085h-115v96q-98 -123 -271 -123q-78 0 -129 47v-409z" />
    <glyph glyph-name="paragraph" unicode="&#xb6;" horiz-adv-x="1107" 
d="M870 1475v-1704h-112v1570h-195v-1570h-112v948q-150 -1 -248 109t-99 264q0 194 112 288t296 95h358z" />
    <glyph glyph-name="periodcentered" unicode="&#xb7;" horiz-adv-x="438" 
d="M152 567h137v-172h-137v172z" />
    <glyph glyph-name="periodcentered" unicode="&#x22c5;" horiz-adv-x="438" 
d="M152 567h137v-172h-137v172z" />
    <glyph glyph-name="periodcentered" unicode="&#x2219;" horiz-adv-x="438" 
d="M152 567h137v-172h-137v172z" />
    <glyph glyph-name="guillemotright" unicode="&#xbb;" horiz-adv-x="983" 
d="M176 809l277 -207v-139l-277 -207v121l199 155l-199 160v117zM543 809l276 -207v-139l-276 -207v121l198 155l-198 160v117z" />
    <glyph glyph-name="afii10023" unicode="&#x401;" horiz-adv-x="880" 
d="M551 1604v200h127v-200h-127zM240 1604v200h127v-200h-127zM135 0v1475h678v-113h-551v-516h492v-113h-492v-620h551v-113h-678z" />
    <glyph glyph-name="afii10051" unicode="&#x402;" horiz-adv-x="1249" 
d="M500 1362v-569q104 25 275 25t266 -112q95 -110 95 -308t-106 -298t-354 -100v113q176 1 255 73t79 214t-65 224q-65 81 -204 81t-241 -27v-678h-127v1362h-334v113h795v-113h-334z" />
    <glyph glyph-name="afii10052" unicode="&#x403;" horiz-adv-x="880" 
d="M528 1858h174l-292 -287h-111zM135 1475h678v-113h-551v-1362h-127v1475z" />
    <glyph glyph-name="afii10053" unicode="&#x404;" horiz-adv-x="1067" 
d="M827 500h127q0 -233 -103 -384t-305 -151t-295 122t-115 298q-23 176 -23 339t7 249t33 191t69 176q44 71 126 120t195 49q189 0 295 -131t106 -327h-129q-8 149 -74 247t-202 99q-87 0 -149 -48q-62 -47 -93 -133q-57 -157 -57 -370h393v-113h-393q0 -478 149 -602
q66 -53 154 -53q165 0 230 144q54 121 54 278z" />
    <glyph glyph-name="afii10054" unicode="&#x405;" horiz-adv-x="983" 
d="M872 1118h-122q0 129 -66 204t-188 75t-188 -80t-66 -204t57 -182t197 -110q223 -80 320 -179t97 -276q-1 -177 -115 -289t-309 -112t-300 126t-105 327h127q0 -152 67 -246q68 -94 206 -94t219 80t81 211t-59 189t-123 85q-64 26 -147 57q-172 68 -256 154t-84 259
t102 285q101 112 277 112t277 -108q101 -106 101 -284z" />
    <glyph glyph-name="afii10055" unicode="&#x406;" horiz-adv-x="438" 
d="M283 1475v-1475h-127v1475h127z" />
    <glyph glyph-name="afii10056" unicode="&#x407;" horiz-adv-x="438" 
d="M311 1604v200h127v-200h-127zM0 1604v200h127v-200h-127zM283 1475v-1475h-127v1475h127z" />
    <glyph glyph-name="afii10057" unicode="&#x408;" horiz-adv-x="774" 
d="M41 430h127v-31q0 -243 79 -295q39 -26 107 -26t106 40t45 85t7 119v1153h127v-1162q0 -348 -301 -348q-154 1 -226 103t-71 260v102z" />
    <glyph glyph-name="afii10058" unicode="&#x409;" horiz-adv-x="1759" 
d="M1016 733v-620h194q309 0 310 301q0 168 -84 244t-248 75h-172zM270 1475h746v-629h223q197 0 302 -114t105 -322t-108 -308q-109 -102 -291 -102h-358v1362h-492v-678q0 -354 -57 -526t-199 -172q-70 0 -110 12v113q43 -12 92 -13q147 0 147 629v748z" />
    <glyph glyph-name="afii10059" unicode="&#x40a;" horiz-adv-x="1701" 
d="M958 733v-620h195q309 0 309 301q0 168 -84 244t-248 75h-172zM262 1475v-629h569v629h127v-629h224q197 0 302 -114t105 -322t-108 -309q-109 -101 -291 -101h-359v733h-569v-733h-127v1475h127z" />
    <glyph glyph-name="afii10060" unicode="&#x40b;" horiz-adv-x="1253" 
d="M500 1362v-569q139 25 331 24q309 0 310 -309v-508h-127v512q0 111 -49 151q-49 39 -193 39t-272 -24v-678h-127v1362h-334v113h795v-113h-334z" />
    <glyph glyph-name="afii10061" unicode="&#x40c;" horiz-adv-x="985" 
d="M618 1858h175l-293 -287h-111zM262 1475v-738l537 738h147l-436 -596l459 -879h-140l-401 774l-166 -215v-559h-127v1475h127z" />
    <glyph glyph-name="afii10062" unicode="&#x40e;" horiz-adv-x="1009" 
d="M532 1663q74 0 126 43t67 123h68q-12 -125 -85 -192q-72 -67 -182 -67t-178 70q-68 68 -80 189h74q12 -80 64 -123t126 -43zM310 -16q-66 0 -109 14v111q31 -12 82 -13q88 0 123 97l40 112l-438 1170h137l367 -1008l336 1008h137l-455 -1287q-35 -102 -94 -153
q-60 -51 -126 -51z" />
    <glyph glyph-name="afii10145" unicode="&#x40f;" horiz-adv-x="1097" 
d="M262 1475v-1362h574v1362h127v-1475h-353v-313h-123v313h-352v1475h127z" />
    <glyph glyph-name="afii10017" unicode="&#x410;" horiz-adv-x="983" 
d="M418 1475h147l396 -1475h-130l-116 455h-447l-121 -455h-122zM295 567h393l-194 746h-5z" />
    <glyph glyph-name="afii10018" unicode="&#x411;" horiz-adv-x="1005" 
d="M262 733v-620h195q309 0 309 301q0 168 -84 244t-248 75h-172zM135 1475h686v-113h-559v-516h223q197 0 302 -114t105 -322t-108 -308q-109 -102 -290 -102h-359v1475z" />
    <glyph glyph-name="afii10019" unicode="&#x412;" horiz-adv-x="1007" 
d="M135 0v1475h348q173 -1 277 -91t104 -270q0 -260 -200 -336q242 -66 241 -354q0 -424 -448 -424h-322zM262 717v-604h209q307 0 307 313q0 291 -307 291h-209zM262 1362v-533h182q133 -1 213 59t80 220t-96 211q-81 43 -209 43h-170z" />
    <glyph glyph-name="afii10020" unicode="&#x413;" horiz-adv-x="880" 
d="M135 1475h678v-113h-551v-1362h-127v1475z" />
    <glyph glyph-name="afii10021" unicode="&#x414;" horiz-adv-x="1218" 
d="M913 1362h-464v-440q0 -553 -156 -809h620v1249zM322 1475h718v-1362h105v-426h-123v313h-836v-313h-123v426h93q94 162 130 337t36 506v519z" />
    <glyph glyph-name="afii10022" unicode="&#x415;" horiz-adv-x="880" 
d="M135 0v1475h678v-113h-551v-516h492v-113h-492v-620h551v-113h-678z" />
    <glyph glyph-name="afii10024" unicode="&#x416;" horiz-adv-x="1572" 
d="M723 1475h127v-738l536 738h148l-436 -596l458 -879h-139l-401 774l-166 -215v-559h-127v559l-166 215l-401 -774h-140l459 879l-436 596h147l537 -738v738z" />
    <glyph glyph-name="afii10025" unicode="&#x417;" horiz-adv-x="1015" 
d="M121 1135q0 139 95 257q96 118 276 118t275 -110q95 -108 95 -288q0 -127 -62 -215t-157 -119q113 -27 187 -124t73 -259q0 -223 -118 -326t-301 -103t-293 119q-110 120 -109 333h127q8 -184 81 -262t204 -78q283 0 282 297q0 174 -90 266t-231 92h-88v113h96
q272 0 272 276q0 129 -70 202q-71 73 -183 73q-112 1 -171 -75t-69 -187h-121z" />
    <glyph glyph-name="afii10026" unicode="&#x418;" horiz-adv-x="1101" 
d="M262 1475v-1266h4l543 1266h158v-1475h-127v1262h-4l-547 -1262h-154v1475h127z" />
    <glyph glyph-name="afii10027" unicode="&#x419;" horiz-adv-x="1101" 
d="M550 1663q75 0 127 43t66 123h68q-12 -125 -85 -192t-182 -67t-177 70q-68 68 -80 189h73q12 -80 64 -123t126 -43zM262 1475v-1266h4l543 1266h158v-1475h-127v1262h-4l-547 -1262h-154v1475h127z" />
    <glyph glyph-name="afii10028" unicode="&#x41a;" horiz-adv-x="985" 
d="M262 1475v-738l537 738h147l-436 -596l459 -879h-140l-401 774l-166 -215v-559h-127v1475h127z" />
    <glyph glyph-name="afii10029" unicode="&#x41b;" horiz-adv-x="1150" 
d="M270 1475h746v-1475h-127v1362h-492v-678q0 -354 -57 -526t-199 -172q-70 0 -110 12v113q43 -12 92 -13q147 0 147 629v748z" />
    <glyph glyph-name="afii10030" unicode="&#x41c;" horiz-adv-x="1402" 
d="M135 1475h213l350 -1287h4l359 1287h207v-1475h-127v1348h-4l-365 -1348h-137l-369 1348h-4v-1348h-127v1475z" />
    <glyph glyph-name="afii10031" unicode="&#x41d;" horiz-adv-x="1093" 
d="M262 1475v-629h569v629h127v-1475h-127v733h-569v-733h-127v1475h127z" />
    <glyph glyph-name="afii10032" unicode="&#x41e;" horiz-adv-x="1091" 
d="M240 739q0 -377 78 -523q32 -60 90 -99t131 -39q74 0 125 24q88 41 138 172q50 132 50 453q0 322 -51 461t-136 182q-52 27 -126 27t-131 -39q-58 -39 -90 -98q-78 -143 -78 -521zM223 127q-45 70 -77 208t-33 452q0 314 72 475t193 216q73 32 169 32q200 -1 294 -127
t116 -291t22 -314q0 -419 -67 -568q-30 -67 -75 -126q-93 -119 -299 -119q-106 0 -188 46t-127 116z" />
    <glyph glyph-name="afii10033" unicode="&#x41f;" horiz-adv-x="1093" 
d="M135 1475h823v-1475h-127v1362h-569v-1362h-127v1475z" />
    <glyph glyph-name="afii10034" unicode="&#x420;" horiz-adv-x="983" 
d="M262 1362v-582h166q170 0 254 64t84 223t-80 227t-237 68h-187zM262 668v-668h-127v1475h334q190 1 307 -93t117 -299q-1 -205 -107 -310t-307 -105h-217z" />
    <glyph glyph-name="afii10035" unicode="&#x421;" horiz-adv-x="1067" 
d="M827 500h127q0 -233 -103 -384t-305 -151t-295 122t-115 298q-23 176 -23 339t7 249t33 191t69 176q44 71 126 120t195 49q191 0 297 -131t106 -327h-131q-8 149 -74 247t-200 98t-202 -108q-67 -109 -79 -217q-20 -180 -20 -297q0 -192 18 -339t87 -254
q71 -105 208 -103q78 0 134 40q140 100 140 382z" />
    <glyph glyph-name="afii10036" unicode="&#x422;" 
d="M500 1362v-1362h-127v1362h-334v113h795v-113h-334z" />
    <glyph glyph-name="afii10037" unicode="&#x423;" horiz-adv-x="1009" 
d="M310 -16q-66 0 -109 14v111q31 -12 82 -13q88 0 123 97l40 112l-438 1170h137l367 -1008l336 1008h137l-455 -1287q-35 -102 -94 -153q-60 -51 -126 -51z" />
    <glyph glyph-name="afii10038" unicode="&#x424;" horiz-adv-x="1415" 
d="M641 283v917h-41q-170 0 -283 -112t-113 -347t110 -347q108 -112 286 -111h41zM641 1475h127v-162h45q219 1 369 -141t150 -424t-144 -430q-143 -148 -371 -148h-49v-170h-127v170h-49q-227 0 -371 148q-143 148 -143 430t149 423q150 141 369 142h45v162zM768 1200v-917
h41q178 -1 287 111q108 112 108 347t-112 348q-113 112 -283 111h-41z" />
    <glyph glyph-name="afii10039" unicode="&#x425;" horiz-adv-x="983" 
d="M53 1475h144l292 -592l302 592h141l-367 -713l383 -762h-139l-320 641l-317 -641h-137l381 762z" />
    <glyph glyph-name="afii10040" unicode="&#x426;" horiz-adv-x="1124" 
d="M262 1475v-1362h574v1362h127v-1362h108v-426h-123v313h-813v1475h127z" />
    <glyph glyph-name="afii10041" unicode="&#x427;" horiz-adv-x="1015" 
d="M113 1475h127v-463q0 -111 49 -151t193 -40t272 25v629h127v-1475h-127v731q-139 -25 -332 -24q-309 0 -309 309v459z" />
    <glyph glyph-name="afii10042" unicode="&#x428;" horiz-adv-x="1630" 
d="M262 1475v-1362h490v1362h127v-1362h489v1362h127v-1475h-1360v1475h127z" />
    <glyph glyph-name="afii10043" unicode="&#x429;" horiz-adv-x="1656" 
d="M262 1475v-1362h490v1362h127v-1362h489v1362h127v-1362h109v-426h-123v313h-1346v1475h127z" />
    <glyph glyph-name="afii10044" unicode="&#x42a;" horiz-adv-x="1138" 
d="M395 733v-620h195q309 0 309 301q0 168 -84 244t-248 75h-172zM-25 1475h420v-629h223q196 0 302 -114t106 -322t-108 -309q-109 -101 -291 -101h-359v1362h-293v113z" />
    <glyph glyph-name="afii10045" unicode="&#x42b;" horiz-adv-x="1347" 
d="M1212 1475v-1475h-127v1475h127zM262 733v-620h195q309 0 309 301q0 168 -84 244t-248 75h-172zM262 1475v-629h223q197 0 302 -114t105 -322t-108 -308q-109 -102 -290 -102h-359v1475h127z" />
    <glyph glyph-name="afii10046" unicode="&#x42c;" horiz-adv-x="1005" 
d="M262 733v-620h195q309 0 309 301q0 168 -84 244t-248 75h-172zM262 1475v-629h223q197 0 302 -114t105 -322t-108 -308q-109 -102 -290 -102h-359v1475h127z" />
    <glyph glyph-name="afii10047" unicode="&#x42d;" horiz-adv-x="1067" 
d="M827 846q0 551 -299 551q-136 0 -202 -98t-74 -248h-129q-1 197 109 327t300 131q228 0 325 -185t97 -572q0 -388 -66 -540q-30 -69 -75 -128q-91 -119 -292 -119q-202 0 -305 151t-103 384h127q0 -157 54 -276q65 -146 230 -146q88 0 154 52t96 152q52 173 53 451h-393
v113h393z" />
    <glyph glyph-name="afii10048" unicode="&#x42e;" horiz-adv-x="1476" 
d="M625 739q0 -377 78 -523q31 -60 89 -99t132 -39t125 24q88 41 138 172q50 132 50 453q0 322 -51 461t-136 182q-52 27 -126 27t-131 -39t-89 -98q-78 -143 -79 -521zM262 1475v-629h236q6 140 25 246q75 416 393 417q215 0 309 -126t117 -291q22 -165 22 -314
q0 -419 -67 -568q-29 -67 -75 -126q-92 -119 -292 -119q-111 0 -192 44t-126 112q-114 172 -114 612h-236v-733h-127v1475h127z" />
    <glyph glyph-name="afii10049" unicode="&#x42f;" horiz-adv-x="1005" 
d="M743 762v600h-194q-309 0 -309 -299q0 -166 85 -234t253 -67h165zM743 649h-198l-342 -649h-152l350 657q-139 31 -214 133t-74 267q0 215 108 316q109 101 291 102h358v-1475h-127v649z" />
    <glyph glyph-name="afii10065" unicode="&#x430;" horiz-adv-x="796" 
d="M684 -18q-92 0 -113 108h-2q-82 -119 -230 -119t-202 74q-53 74 -53 215q0 219 176 299l229 103q45 20 61 56q15 36 15 120t-44 129t-119 45t-98 -18q-22 -18 -34 -28q-12 -9 -20 -35t-11 -35t-9 -43t-7 -40h-110q0 299 290 299q145 0 211 -74t66 -223v-665q0 -49 12 -61
q13 -11 66 -13v-82q-27 -12 -74 -12zM348 72q131 0 177 105q40 87 40 198v209q-134 -61 -219 -102q-84 -42 -116 -88t-31 -134q0 -188 149 -188z" />
    <glyph glyph-name="afii10066" unicode="&#x431;" horiz-adv-x="849" 
d="M418 72q111 0 171 99t60 352t-58 355q-57 102 -165 101q-108 0 -168 -120q-60 -121 -61 -355q0 -234 55 -333t166 -99zM422 1079q176 0 259 -124t83 -421t-85 -430t-259 -133q-174 -1 -256 139t-82 452t42 476q42 162 115 231t186 101t146 50q33 19 52 55h94
q-25 -78 -75 -115t-175 -75t-191 -121t-88 -265h2q29 74 95 127t137 53z" />
    <glyph glyph-name="afii10067" unicode="&#x432;" horiz-adv-x="827" 
d="M119 0v1085h287q141 1 217 -73q75 -74 75 -182t-43 -170q-43 -60 -110 -78q92 -34 145 -94t53 -191q1 -131 -73 -214t-199 -83h-352zM233 526v-426h201q86 0 140 50t54 156t-56 163t-156 57h-183zM233 985v-358h162q98 0 144 41q45 41 45 133q0 184 -189 184h-162z" />
    <glyph glyph-name="afii10068" unicode="&#x433;" horiz-adv-x="645" 
d="M119 1085h506v-100h-392v-985h-114v1085z" />
    <glyph glyph-name="afii10069" unicode="&#x434;" horiz-adv-x="962" 
d="M707 985h-316v-256q0 -377 -135 -629h451v885zM276 1085h545v-985h94v-391h-106v291h-649v-291h-107v391h82q74 126 108 274t33 400v311z" />
    <glyph glyph-name="afii10070" unicode="&#x435;" horiz-adv-x="798" 
d="M197 647h395q0 365 -198 365t-197 -365zM707 547h-510q0 -216 25 -311q24 -95 68 -130q44 -34 106 -34q123 1 159 93q30 76 37 187h115q0 -158 -77 -270t-229 -111q-152 0 -221 102t-83 221q-15 119 -15 210q0 90 1 134q4 186 63 316q76 160 264 158q76 0 140 -41
t96 -111q58 -129 61 -303v-110z" />
    <glyph glyph-name="afii10072" unicode="&#x436;" horiz-adv-x="1155" 
d="M512 1085h115v-512l352 512h143l-295 -405l301 -680h-120l-263 565l-118 -168v-397h-115v397l-119 168l-262 -565h-121l301 680l-295 405h144l352 -512v512z" />
    <glyph glyph-name="afii10073" unicode="&#x437;" horiz-adv-x="808" 
d="M313 526v101h70q90 0 143 51q54 51 54 143q0 91 -48 141t-129 50q-82 0 -134 -52t-58 -151h-109q8 131 88 217t213 86t212 -74t79 -194q0 -209 -174 -262q88 -25 150 -97t61 -186q0 -158 -89 -243t-232 -85q-315 0 -330 322h113q6 -117 56 -169t146 -52t159 57
q62 57 62 165t-67 170q-68 62 -178 62h-58z" />
    <glyph glyph-name="afii10074" unicode="&#x438;" horiz-adv-x="884" 
d="M766 1085v-1085h-115v715q0 162 25 280h-2q-29 -86 -78 -207l-334 -788h-143v1085h114v-729q0 -162 -24 -280h2q29 86 78 207l332 802h145z" />
    <glyph glyph-name="afii10075" unicode="&#x439;" horiz-adv-x="884" 
d="M444 1268q141 0 170 145h60q-10 -111 -75 -168t-162 -57t-157 60t-69 165h63q12 -69 58 -107t112 -38zM766 1085v-1085h-115v715q0 162 25 280h-2q-29 -86 -78 -207l-334 -788h-143v1085h114v-729q0 -162 -24 -280h2q29 86 78 207l332 802h145z" />
    <glyph glyph-name="afii10076" unicode="&#x43a;" horiz-adv-x="761" 
d="M233 1085v-512l353 512h143l-295 -405l301 -680h-121l-262 565l-119 -168v-397h-114v1085h114z" />
    <glyph glyph-name="afii10077" unicode="&#x43b;" horiz-adv-x="897" 
d="M213 1085h565v-1085h-114v985h-336v-508q0 -193 -28 -305t-71 -148t-107 -36t-93 10v98q37 -8 73 -8t59 28q52 61 52 410v559z" />
    <glyph glyph-name="afii10078" unicode="&#x43c;" horiz-adv-x="1107" 
d="M119 1085h186l180 -669q49 -172 70 -305h2q8 94 66 305l182 669h184v-1085h-115v643q0 223 17 399h-2q-2 -6 -285 -1042h-100q-262 973 -289 1042h-2q20 -205 20 -399v-643h-114v1085z" />
    <glyph glyph-name="afii10079" unicode="&#x43d;" horiz-adv-x="856" 
d="M233 1085v-458h390v458h114v-1085h-114v526h-390v-526h-114v1085h114z" />
    <glyph glyph-name="afii10080" unicode="&#x43e;" horiz-adv-x="845" 
d="M420 72q150 0 193 156q36 126 36 315q0 469 -226 469t-226 -469q-1 -345 101 -431q48 -40 122 -40zM428 -29q-82 0 -139 25t-93 70q-75 94 -95 217q-19 123 -19 233q0 112 5 180t27 150t56 136t100 92t166 38t170 -52q72 -52 104 -146q54 -158 54 -371q0 -298 -88 -443
q-34 -55 -100 -92t-148 -37z" />
    <glyph glyph-name="afii10081" unicode="&#x43f;" horiz-adv-x="856" 
d="M119 1085h618v-1085h-114v985h-390v-985h-114v1085z" />
    <glyph glyph-name="afii10082" unicode="&#x440;" horiz-adv-x="870" 
d="M455 1012q-149 0 -189 -164q-30 -130 -30 -256q0 -384 96 -476q45 -44 108 -44q120 0 171 96q47 84 59 244q4 66 4 151q0 449 -219 449zM236 -375h-115v1460h110v-98h5q33 55 90 90t127 35q336 0 335 -537q0 -344 -85 -478q-34 -54 -95 -90t-145 -36q-143 0 -227 119
v-465z" />
    <glyph glyph-name="afii10083" unicode="&#x441;" horiz-adv-x="788" 
d="M715 358q0 -172 -72 -280t-229 -107q-192 0 -264 151q-63 125 -67 315q-1 44 -1 119q0 292 82 426q33 54 96 92t150 38q139 0 217 -100t78 -248h-113q0 100 -50 174t-130 74t-122 -40q-94 -88 -93 -437q0 -349 103 -427q46 -36 104 -36q99 0 141 64t55 222h115z" />
    <glyph glyph-name="afii10084" unicode="&#x442;" horiz-adv-x="665" 
d="M16 1085h635v-100h-260v-985h-115v985h-260v100z" />
    <glyph glyph-name="afii10085" unicode="&#x443;" horiz-adv-x="763" 
d="M147 -377q-66 0 -94 8v101q21 -4 57 -4t71 9t53 34q18 24 25 36t16 42t14 43q4 14 11 52t11 52l-280 1089h121l223 -878h4l235 878h117l-342 -1243q-61 -219 -242 -219z" />
    <glyph glyph-name="afii10086" unicode="&#x444;" horiz-adv-x="1306" 
d="M197 582q0 -152 6 -221q17 -191 88 -251q43 -38 107 -38q128 0 165 150q33 134 33 346t-42 328t-163 116t-161 -150q-33 -128 -33 -280zM711 987q73 125 215 125q80 0 148 -46t98 -132q52 -145 53 -381q0 -336 -77 -459t-229 -123q-151 0 -208 138v-484h-115v484
q-61 -137 -209 -138q-192 0 -253 181q-52 153 -52 401q0 407 152 513q68 46 148 46q141 0 214 -125v488h115v-488zM909 1012q-115 0 -157 -116t-41 -353q0 -349 92 -432q41 -39 105 -39q130 0 170 148q32 123 32 320q0 348 -95 434q-43 38 -106 38z" />
    <glyph glyph-name="afii10087" unicode="&#x445;" horiz-adv-x="763" 
d="M45 1085h127l207 -419l211 419h131l-270 -518l288 -567h-129l-231 461l-229 -461h-125l284 567z" />
    <glyph glyph-name="afii10088" unicode="&#x446;" 
d="M233 1085v-985h390v985h114v-985h94v-391h-106v291h-606v1085h114z" />
    <glyph glyph-name="afii10089" unicode="&#x447;" horiz-adv-x="823" 
d="M102 1085h115v-260q0 -213 170 -213q133 0 203 29v444h115v-1085h-115v543q-90 -31 -228 -31q-260 0 -260 332v241z" />
    <glyph glyph-name="afii10090" unicode="&#x448;" horiz-adv-x="1282" 
d="M233 1085v-985h351v985h114v-985h351v985h114v-1085h-1044v1085h114z" />
    <glyph glyph-name="afii10091" unicode="&#x449;" horiz-adv-x="1298" 
d="M233 1085v-985h351v985h114v-985h351v985h114v-985h94v-391h-106v291h-1032v1085h114z" />
    <glyph glyph-name="afii10092" unicode="&#x44a;" horiz-adv-x="913" 
d="M-6 1085h328v-458h217q141 0 217 -82q76 -83 76 -229t-76 -231q-74 -85 -217 -85h-332v985h-213v100zM322 526v-426h196q199 0 199 213t-203 213h-192z" />
    <glyph glyph-name="afii10093" unicode="&#x44b;" horiz-adv-x="1138" 
d="M1020 1085v-1085h-115v1085h115zM233 1085v-458h218q141 0 217 -82q76 -83 76 -229t-76 -231q-74 -85 -217 -85h-332v1085h114zM233 526v-426h197q199 0 199 213t-203 213h-193z" />
    <glyph glyph-name="afii10094" unicode="&#x44c;" horiz-adv-x="825" 
d="M233 1085v-458h218q141 0 217 -82q76 -83 76 -229t-76 -231q-74 -85 -217 -85h-332v1085h114zM233 526v-426h197q199 0 199 213t-203 213h-193z" />
    <glyph glyph-name="afii10095" unicode="&#x44d;" horiz-adv-x="788" 
d="M188 358q0 -287 193 -286q95 0 140 61t58 156t13 237h-268v101h268q0 169 -50 277t-150 108t-147 -71q-48 -71 -48 -177h-113q6 160 84 254t223 94t213 -96q69 -98 82 -195q36 -257 12 -493q-10 -113 -45 -185q-35 -71 -69 -101q-77 -69 -220 -70t-217 110t-73 276h114z
" />
    <glyph glyph-name="afii10096" unicode="&#x44e;" horiz-adv-x="1200" 
d="M782 1012q-226 0 -227 -469q0 -189 33 -312q41 -159 190 -159t194 159q34 121 36 312q0 469 -226 469zM238 627h204q14 262 101 374q87 111 241 111q109 0 181 -52q71 -52 103 -146q54 -159 54 -371q0 -302 -88 -443q-34 -55 -100 -92t-156 -37q-338 0 -338 555h-202
v-526h-115v1085h115v-458z" />
    <glyph glyph-name="afii10097" unicode="&#x44f;" horiz-adv-x="825" 
d="M592 459h-174l-246 -459h-135l254 467q-94 18 -152 97q-57 79 -57 215t75 221t218 85h332v-1085h-115v459zM592 559v426h-197q-199 0 -199 -213t203 -213h193z" />
    <glyph glyph-name="afii10071" unicode="&#x451;" horiz-adv-x="798" 
d="M492 1475h114v-185h-114v185zM197 1475h114v-185h-114v185zM197 647h395q0 365 -198 365t-197 -365zM707 547h-510q0 -216 25 -311q24 -95 68 -130q44 -34 106 -34q123 1 159 93q30 76 37 187h115q0 -158 -77 -270t-229 -111q-152 0 -221 102t-83 221q-15 119 -15 210
q0 90 1 134q4 186 63 316q76 160 264 158q76 0 140 -41t96 -111q58 -129 61 -303v-110z" />
    <glyph glyph-name="afii10099" unicode="&#x452;" horiz-adv-x="864" 
d="M119 1475h114v-134h267v-100h-267v-270q39 65 103 103t137 38q74 0 128 -22t82 -49t43 -77t17 -85t2 -93v-254q0 -541 -55 -686t-158 -188q-55 -23 -133 -33v101q53 10 91 32q107 63 128 344q13 172 13 502v160q0 187 -77 228q-36 20 -106 20t-142 -58q-73 -58 -73 -141
v-813h-114v1241h-107v100h107v134z" />
    <glyph glyph-name="afii10100" unicode="&#x453;" horiz-adv-x="645" 
d="M463 1444h147l-254 -256h-100zM119 1085h506v-100h-392v-985h-114v1085z" />
    <glyph glyph-name="afii10101" unicode="&#x454;" horiz-adv-x="788" 
d="M705 764h-113q0 104 -51 176t-140 72q-205 0 -204 -385h268v-101h-268q0 -339 100 -416q47 -38 119 -38q184 0 184 286h115q0 -168 -72 -278t-229 -109q-192 0 -264 151q-63 125 -67 315q-1 44 -1 119q0 292 82 426q33 54 96 92t150 38q139 0 217 -102t78 -246z" />
    <glyph glyph-name="afii10102" unicode="&#x455;" horiz-adv-x="792" 
d="M676 809h-113q0 90 -49 146t-137 57q-160 0 -160 -172q0 -106 166 -183q80 -37 125 -63t97 -69q100 -85 100 -238t-81 -235t-231 -81q-151 0 -231 83t-80 239h113q16 -221 208 -221q86 0 137 57q50 57 50 127q0 128 -76 190q-56 47 -154 89q-258 109 -258 301
q0 128 72 202t209 74t215 -81t78 -222z" />
    <glyph glyph-name="afii10103" unicode="&#x456;" horiz-adv-x="421" 
d="M154 1475h114v-185h-114v185zM268 1085v-1085h-114v1085h114z" />
    <glyph glyph-name="afii10104" unicode="&#x457;" horiz-adv-x="421" 
d="M301 1475h115v-185h-115v185zM6 1475h115v-185h-115v185zM268 1085v-1085h-114v1085h114z" />
    <glyph glyph-name="afii10105" unicode="&#x458;" horiz-adv-x="438" 
d="M174 1475h115v-185h-115v185zM174 1085h115v-1218q0 -131 -48 -186t-198 -56v101q84 0 108 34t23 111v1214z" />
    <glyph glyph-name="afii10106" unicode="&#x459;" horiz-adv-x="1370" 
d="M778 526v-426h197q199 0 199 213t-203 213h-193zM213 1085h565v-458h217q141 0 217 -82q76 -83 76 -229t-75 -231t-218 -85h-331v985h-336v-508q0 -193 -28 -305t-71 -148t-107 -36t-93 10v98q37 -8 73 -8t59 28q52 61 52 410v559z" />
    <glyph glyph-name="afii10107" unicode="&#x45a;" horiz-adv-x="1329" 
d="M737 526v-426h197q199 0 199 213t-203 213h-193zM233 1085v-458h390v458h114v-458h217q141 0 217 -82q76 -83 76 -229t-75 -231t-218 -85h-331v526h-390v-526h-114v1085h114z" />
    <glyph glyph-name="afii10108" unicode="&#x45b;" horiz-adv-x="864" 
d="M119 1475h114v-134h267v-100h-267v-270q39 65 103 103t137 38q74 0 128 -22t82 -49t43 -77t17 -85t2 -93v-786h-114v764q0 187 -77 228q-36 20 -106 20t-142 -58q-73 -58 -73 -141v-813h-114v1241h-107v100h107v134z" />
    <glyph glyph-name="afii10109" unicode="&#x45c;" horiz-adv-x="761" 
d="M504 1444h147l-254 -256h-100zM233 1085v-512l353 512h143l-295 -405l301 -680h-121l-262 565l-119 -168v-397h-114v1085h114z" />
    <glyph glyph-name="afii10110" unicode="&#x45e;" horiz-adv-x="763" 
d="M424 1268q141 0 170 145h59q-11 -111 -75 -168t-161 -57t-157 60t-70 165h64q12 -69 58 -107t112 -38zM147 -377q-66 0 -94 8v101q21 -4 57 -4t71 9t53 34q18 24 25 36t16 42t14 43q4 14 11 52t11 52l-280 1089h121l223 -878h4l235 878h117l-342 -1243
q-61 -219 -242 -219z" />
    <glyph glyph-name="afii10193" unicode="&#x45f;" horiz-adv-x="856" 
d="M233 1085v-985h390v985h114v-1085h-256v-291h-106v291h-256v1085h114z" />
    <glyph glyph-name="afii10050" unicode="&#x490;" horiz-adv-x="880" 
d="M262 1362v-1362h-127v1475h551v188h127v-301h-551z" />
    <glyph glyph-name="afii10098" unicode="&#x491;" horiz-adv-x="645" 
d="M119 1085h391v183h115v-283h-392v-985h-114v1085z" />
    <glyph glyph-name="endash" unicode="&#x2013;" horiz-adv-x="983" 
d="M0 532h983v-100h-983v100z" />
    <glyph glyph-name="emdash" unicode="&#x2014;" horiz-adv-x="1966" 
d="M0 532h1966v-100h-1966v100z" />
    <glyph glyph-name="quoteleft" unicode="&#x2018;" horiz-adv-x="315" 
d="M219 1034h-137v172q0 196 62 244q30 23 75 25v-74q-61 -12 -61 -195h61v-172z" />
    <glyph glyph-name="quoteright" unicode="&#x2019;" horiz-adv-x="315" 
d="M96 1475h137v-172q0 -199 -62 -244q-30 -23 -75 -25v74q61 12 62 195h-62v172z" />
    <glyph glyph-name="quotesinglbase" unicode="&#x201a;" horiz-adv-x="438" 
d="M152 172h137v-172q0 -196 -63 -244q-30 -23 -74 -24v73q61 12 61 195h-61v172z" />
    <glyph glyph-name="quotedblleft" unicode="&#x201c;" horiz-adv-x="655" 
d="M559 1034h-137v172q0 196 62 244q30 23 75 25v-74q-61 -12 -61 -195h61v-172zM303 1034h-137v172q0 196 62 244q30 23 75 25v-74q-61 -12 -61 -195h61v-172z" />
    <glyph glyph-name="quotedblright" unicode="&#x201d;" horiz-adv-x="655" 
d="M96 1475h137v-172q0 -199 -62 -244q-30 -23 -75 -25v74q61 12 62 195h-62v172zM352 1475h137v-172q0 -199 -62 -244q-30 -23 -75 -25v74q61 12 62 195h-62v172z" />
    <glyph glyph-name="quotedblbase" unicode="&#x201e;" horiz-adv-x="647" 
d="M127 172h137v-172q0 -196 -62 -244q-30 -23 -75 -24v73q61 12 61 195h-61v172zM383 172h137v-172q0 -196 -62 -244q-30 -23 -75 -24v73q61 12 61 195h-61v172z" />
    <glyph glyph-name="dagger" unicode="&#x2020;" 
d="M496 1059h313v-98h-313v-1190h-115v1190h-318v98h318v452h115v-452z" />
    <glyph glyph-name="daggerdbl" unicode="&#x2021;" 
d="M637 729v-82h-272q23 -78 22 -162q0 -244 -145 -374q112 18 154 18t120 -26q78 -25 142 -25t141 49l43 -92q-78 -63 -207 -64q-37 0 -158 34t-162 34q-90 0 -200 -80l-66 74q115 98 169 191t54 213t-30 210h-205v82h174q-100 219 -100 395q0 138 94 232t231 94
q193 0 282 -118t89 -308h-119q0 177 -94 266q-54 53 -152 53q-98 1 -155 -67t-57 -174t48 -228q8 -26 30 -78t28 -67h301z" />
    <glyph glyph-name="bullet" unicode="&#x2022;" horiz-adv-x="835" 
d="M418 776q106 0 182 -77t76 -182t-77 -181t-182 -76t-181 76t-76 181t76 182t182 77z" />
    <glyph glyph-name="ellipsis" unicode="&#x2026;" horiz-adv-x="1966" 
d="M1571 172h137v-172h-137v172zM915 172h138v-172h-138v172zM260 172h137v-172h-137v172z" />
    <glyph glyph-name="perthousand" unicode="&#x2030;" horiz-adv-x="1966" 
d="M330 1343q-152 0 -152 -266q0 -133 28 -199t121 -65q93 0 122 66q44 100 24 286q-12 115 -62 154q-32 24 -81 24zM68 1075q0 355 260 355t260 -343q0 -168 -58 -264t-206 -96t-202 90t-54 258zM1642 616q-152 0 -151 -266q0 -132 28 -198q29 -66 121 -66t121 66t29 158
t-4 128q-12 114 -63 154q-32 24 -81 24zM1640 702q260 0 261 -342q1 -168 -57 -264t-207 -96t-203 90t-54 258q0 354 260 354zM1008 616q-152 0 -152 -266q0 -132 28 -198t121 -66t121 66t29 158q0 92 -4 128q-12 115 -62 154q-32 24 -81 24zM1006 702q260 0 260 -342
q0 -168 -58 -264t-206 -96t-202 90t-55 258q1 354 261 354zM324 -31l598 1487h86l-598 -1487h-86z" />
    <glyph glyph-name="guilsinglleft" unicode="&#x2039;" horiz-adv-x="655" 
d="M455 809v-117l-199 -160l199 -155v-121l-277 207v139z" />
    <glyph glyph-name="guilsinglright" unicode="&#x203a;" horiz-adv-x="655" 
d="M201 809l276 -207v-139l-276 -207v121l198 155l-198 160v117z" />
    <glyph glyph-name="afii61352" unicode="&#x2116;" horiz-adv-x="1570" 
d="M135 1475h158l543 -1266h4v1266h127v-1475h-154l-547 1262h-4v-1262h-127v1475zM1118 262h377v-61h-377v61zM1450 723q0 272 -142 272t-143 -274q0 -200 66 -251q31 -24 77 -24t76 24q66 52 66 253zM1306 1057q140 0 186 -111q38 -92 38 -193q0 -102 -8 -154t-30 -105
q-45 -109 -187 -109q-141 0 -186 110q-32 78 -34 228q1 242 103 305q48 29 118 29z" />
    <glyph glyph-name="trademark" unicode="&#x2122;" horiz-adv-x="1421" 
d="M113 1475h462v-101h-182v-729h-100v729h-180v101zM664 1475h172l147 -586h4l154 586h170v-830h-101v729h-2l-186 -729h-72l-184 729h-2v-729h-100v830z" />
    <glyph glyph-name="hyphenminus" horiz-adv-x="591" 
d="M551 528h-510v115h510v-115z" />
    <glyph glyph-name="nbspace" horiz-adv-x="436" 
 />
    </font>
</defs>
</svg>
