<?xml version="1.0" standalone="no"?>
<!DOCTYPE svg PUBLIC "-//W3C//DTD SVG 1.1//EN" "http://www.w3.org/Graphics/SVG/1.1/DTD/svg11.dtd" >
<svg xmlns="http://www.w3.org/2000/svg">
<metadata>
Created by FontPrep 20130207 at Tue Dec 30 14:08:57 2014
 By ARogov
Copyright (C) 1994; Type Market Ltd. Moscow, 119136, Box 20; phone:(095)2879693; Created by A.Kustov
</metadata>
<defs>
<font id="3a32e00261e4f1d419e8eeb1489dbd2f" horiz-adv-x='1024' >
  <font-face 
    font-family="HeliosItalic"
    font-weight="400"
    font-style="italic"
    font-stretch="normal"
    units-per-em="2048"
    panose-1="2 11 5 3 2 2 2 9 2 4"
    ascent="1638"
    descent="-410"
    x-height="1083"
    cap-height="1487"
    bbox="-242 -455.04 2544 2030"
    underline-thickness="102"
    underline-position="-102"
    slope="-12"
    unicode-range="U+0020-22C5"
  />
<missing-glyph horiz-adv-x="573" 
 />
    <glyph glyph-name=".notdef" horiz-adv-x="573" 
 />
    <glyph glyph-name=".null" horiz-adv-x="0" 
 />
    <glyph glyph-name="nonmarkingreturn" horiz-adv-x="681" 
 />
    <glyph glyph-name="space" unicode=" " horiz-adv-x="573" 
 />
    <glyph glyph-name="exclam" unicode="!" horiz-adv-x="573" 
d="M254 354h-100l86 641l104 492h199l-105 -492zM272 211l-45 -211h-198l45 211h198z" />
    <glyph glyph-name="quotedbl" unicode="&#x22;" horiz-adv-x="735" 
d="M383 958l111 527h151l-110 -527h-152zM90 958l111 527h151l-110 -527h-152z" />
    <glyph glyph-name="numbersign" unicode="#" 
d="M756 858h-258l-103 -295h260zM743 434l-151 -434h-137l151 434h-258l-151 -434h-138l154 434h-213l47 129h213l100 295h-213l48 129h213l151 434h139l-151 -434h256l151 434h148l-162 -434h215l-49 -129h-213l-102 -295h213l-48 -129h-213z" />
    <glyph glyph-name="dollar" unicode="$" 
d="M950 1120q0 78 -42 128t-152 71l-105 -494q199 -59 288 -125t89 -192q0 -225 -163 -386t-398 -161l-41 -199h-96l41 199q-176 10 -275 85q-98 75 -98 243q0 78 18 151h181q-35 -192 37 -263q48 -46 169 -66l117 548q-258 60 -323 183q-29 55 -29 129q0 201 157 351
t367 148l27 132h96l-27 -132q344 -31 345 -303q0 -47 -9 -90h-178q4 16 4 43zM610 637l-110 -526q143 0 239 95t97 218q0 76 -45 125q-46 49 -181 88zM356 1030q0 -149 203 -184l100 473q-127 0 -215 -87t-88 -202z" />
    <glyph glyph-name="percent" unicode="%" horiz-adv-x="1837" 
d="M1542 1454l-1139 -1495h-110l1137 1495h112zM1360 543q-92 0 -169 -78t-77 -164t48 -129t131 -43t165 73t82 173q0 68 -44 118t-136 50zM1403 688q125 0 205 -78t80 -198q0 -166 -136 -297t-299 -131q-125 0 -205 78t-81 200q0 170 134 298t302 128zM547 1292
q-92 0 -169 -78t-77 -164t48 -128t131 -43q83 1 165 73t82 172q0 68 -44 118t-136 50zM590 1438q125 0 205 -78t79 -199q0 -166 -135 -297t-299 -131q-125 0 -206 79t-80 200q0 170 134 298t302 128z" />
    <glyph glyph-name="ampersand" unicode="&#x26;" horiz-adv-x="1378" 
d="M4 276q0 249 214 415q93 73 228 134q-96 160 -96 252q0 160 122 285t310 125q139 0 207 -68t68 -170q1 -139 -99 -257t-258 -201l201 -322q61 104 109 231h172q-52 -183 -199 -378l197 -322h-236l-104 170q-217 -201 -453 -201t-315 107q-68 90 -68 200zM874 1208
q0 66 -39 95q-40 27 -90 26q-104 0 -157 -62t-53 -132q0 -105 94 -226q69 39 113 73t88 97t44 129zM190 327q0 -101 74 -151t148 -49q202 0 358 166l-250 409q-178 -92 -254 -183t-76 -192z" />
    <glyph glyph-name="quotesingle" unicode="'" horiz-adv-x="395" 
d="M68 958l110 527h150l-111 -527h-149z" />
    <glyph glyph-name="parenleft" unicode="(" horiz-adv-x="688" 
d="M109 254q0 350 150 645q151 295 448 619h116q-23 -36 -93 -134q-201 -286 -259 -411q-107 -233 -128 -336q-50 -246 -50 -455q0 -210 119 -610h-121q-92 206 -137 360t-45 322z" />
    <glyph glyph-name="parenright" unicode=")" horiz-adv-x="688" 
d="M580 836q0 -346 -150 -643t-440 -621h-125q23 35 92 133q196 275 281 457t106 288q51 247 51 457q0 211 -119 611h121q91 -205 137 -360t46 -322z" />
    <glyph glyph-name="asterisk" unicode="*" horiz-adv-x="804" 
d="M88 1223l68 114l198 -80l49 228h123l-49 -228l236 80l18 -114l-242 -70l101 -190l-117 -70l-92 194l-178 -194l-84 70l178 190z" />
    <glyph glyph-name="plus" unicode="+" horiz-adv-x="1208" 
d="M547 598l94 449h150l-95 -449h449l-33 -149h-448l-95 -449h-149l94 449h-451l33 149h451z" />
    <glyph glyph-name="comma" unicode="," horiz-adv-x="573" 
d="M186 0l47 219h218l-43 -203q-20 -98 -62 -166t-103 -106q-62 -38 -120 -47l20 94q111 10 154 209h-111z" />
    <glyph glyph-name="hyphen" unicode="-" horiz-adv-x="690" 
d="M641 598l-33 -149h-506l33 149h506z" />
    <glyph glyph-name="period" unicode="." horiz-adv-x="573" 
d="M418 219l-45 -219h-217l45 219h217z" />
    <glyph glyph-name="slash" unicode="/" horiz-adv-x="573" 
d="M776 1526l-839 -1565h-140l842 1565h137z" />
    <glyph glyph-name="zero" unicode="0" 
d="M778 1456q373 0 373 -452q0 -185 -45 -359t-100 -284q-55 -111 -128 -201t-182 -144t-237 -55q-373 0 -373 453q0 184 45 358t100 284t128 200t181 146q108 54 238 54zM743 1292q-113 0 -201 -82t-134 -194q-47 -112 -87 -285q-40 -172 -40 -307q0 -299 213 -299
q106 0 197 88q163 157 235 502q31 147 30 278q0 299 -213 299z" />
    <glyph glyph-name="one" unicode="1" 
d="M940 1456l-309 -1456h-195l219 1032h-338l31 146q155 11 218 32q63 20 97 50q76 66 136 196h141z" />
    <glyph glyph-name="two" unicode="2" 
d="M1062 1367q103 -89 103 -253t-72 -262q-42 -57 -85 -101t-155 -112t-294 -156t-268 -172t-107 -139h789l-35 -172h-993q63 240 191 380t439 286q99 44 157 78q162 93 207 198q28 63 28 148q-1 86 -57 144t-162 58q-194 0 -280 -123q-70 -98 -108 -235h-182q29 135 89 235
q60 99 125 153t167 94t251 40t252 -89z" />
    <glyph glyph-name="three" unicode="3" 
d="M778 1456q178 0 278 -82t99 -223q0 -141 -88 -252t-172 -127l-2 -4q180 -61 180 -242q0 -216 -162 -386q-172 -179 -491 -179q-168 0 -269 93t-102 261q0 55 10 131h187q-10 -55 -10 -102q0 -219 251 -219q162 0 275 101t112 253q0 113 -94 154t-282 41l32 151
q201 1 316 63t115 224q-1 74 -53 127t-190 53t-216 -86t-117 -227h-178q28 139 118 267q90 129 252 180q91 30 201 30z" />
    <glyph glyph-name="four" unicode="4" 
d="M788 1171l-604 -659h469l140 659h-5zM885 1456h149l-200 -944h213l-35 -158h-213l-74 -354h-180l73 354h-634l39 178z" />
    <glyph glyph-name="five" unicode="5" 
d="M682 936q164 0 276 -96t113 -246q0 -150 -75 -298q-44 -89 -112 -162t-189 -123q-120 -50 -271 -50t-259 66q-58 35 -93 105t-35 165q0 35 4 63h188q-1 -135 61 -188t191 -53q160 0 275 127t114 291q0 113 -71 174q-72 61 -191 61q-166 0 -299 -137l-155 8l274 780h754
l-37 -178h-617l-147 -399q137 90 301 90z" />
    <glyph glyph-name="six" unicode="6" 
d="M525 125q134 0 245 121t111 291q1 95 -55 161t-181 66q-164 0 -268 -119t-105 -278q0 -104 60 -173t193 -69zM981 1069q-1 223 -187 223q-171 0 -295 -152t-177 -386l2 -4q141 178 383 178q198 0 307 -144q61 -82 61 -200q0 -248 -177 -436t-449 -187q-186 0 -275 119
q-88 119 -88 331t88 471q35 99 95 207q60 109 134 187t183 129t214 51t179 -26t130 -101q56 -74 56 -184q0 -35 -6 -76h-178z" />
    <glyph glyph-name="seven" unicode="7" 
d="M229 1423h1004l-35 -159q-169 -148 -402 -441q-128 -160 -252 -378t-210 -445h-201q96 289 342 641t514 604h-799z" />
    <glyph glyph-name="eight" unicode="8" 
d="M432 1027q0 -89 60 -137t170 -48t201 81t91 197q0 72 -52 122t-187 50t-209 -88t-74 -177zM610 684q-172 0 -267 -103t-95 -241q0 -92 58 -154t210 -61q152 0 257 103q89 89 87 247q0 102 -68 156q-69 53 -182 53zM1061 510q0 -215 -166 -382t-434 -167q-180 0 -296 87
t-116 256t89 292t245 176q-145 63 -145 213q0 114 75 233q150 238 459 238q195 0 286 -87t91 -214q0 -214 -188 -343q-39 -26 -72 -38q172 -80 172 -264z" />
    <glyph glyph-name="nine" unicode="9" 
d="M602 651q156 0 257 123t102 297q1 101 -57 161t-179 60q-152 0 -257 -127t-106 -307q0 -207 240 -207zM541 487q-171 1 -271 93t-100 254q0 244 168 433t420 189q395 0 395 -414q0 -278 -151 -614q-58 -129 -130 -225t-192 -169t-260 -73q-193 0 -275 92t-82 217
q0 47 9 80h182q-4 -25 -4 -49q0 -88 51 -138t148 -50q151 0 261 131t203 413l-4 5q-55 -82 -159 -128t-209 -47z" />
    <glyph glyph-name="colon" unicode=":" horiz-adv-x="573" 
d="M508 1069l-45 -219h-217l45 219h217zM328 219l-45 -219h-217l45 219h217z" />
    <glyph glyph-name="semicolon" unicode=";" horiz-adv-x="573" 
d="M541 1067l-45 -219h-217l45 219h217zM96 0l47 219h217l-43 -203q-20 -98 -61 -166t-103 -106t-120 -47l20 94q111 10 154 209h-111z" />
    <glyph glyph-name="less" unicode="&#x3c;" horiz-adv-x="1208" 
d="M1036 188l-35 -163l-915 428l29 143l1099 428l-34 -164l-877 -336z" />
    <glyph glyph-name="equal" unicode="=" horiz-adv-x="1208" 
d="M1100 389l-31 -149h-1049l31 149h1049zM1190 807l-33 -150h-1048l32 150h1049z" />
    <glyph glyph-name="greater" unicode="&#x3e;" horiz-adv-x="1208" 
d="M172 860l35 164l915 -428l-28 -143l-1100 -428l35 163l876 336z" />
    <glyph glyph-name="question" unicode="?" 
d="M543 211l-45 -211h-201l45 211h201zM905 1160q0 82 -47 134q-46 54 -148 54q-246 1 -329 -237q-17 -46 -25 -91h-182q34 188 158 323q151 165 405 162q162 0 263 -79q102 -79 102 -216t-45 -222t-105 -128q-217 -157 -323 -297q-35 -45 -66 -184h-186q25 129 89 229
q65 100 137 161q73 60 141 115q161 126 161 276z" />
    <glyph glyph-name="at" unicode="@" horiz-adv-x="2099" 
d="M1262 453q0 -37 36 -37q131 0 267 185q135 185 135 377t-133 306q-133 113 -344 113q-307 0 -547 -244t-240 -561q0 -222 144 -362t378 -140q146 0 294 64t261 172h138q-137 -168 -331 -266t-392 -99q-287 0 -465 175q-178 174 -178 432t141 479q140 221 364 350t470 129
t412 -144q167 -144 167 -372q0 -156 -71 -298q-124 -248 -382 -376q-106 -53 -168 -53q-124 0 -122 96q0 8 4 33l-6 -2q-148 -127 -268 -127q-120 -1 -186 71t-65 170q0 194 169 419q77 101 195 171t245 70q163 0 202 -162l70 129h139q-47 -99 -141 -283t-143 -286t-49 -129
zM1155 1034q-143 0 -273 -158t-130 -301q0 -69 36 -107t101 -38q133 0 266 163t133 294q0 63 -37 105t-96 42z" />
    <glyph glyph-name="A" unicode="A" horiz-adv-x="1380" 
d="M467 610h461l-80 656h-4zM963 434h-594l-248 -434h-207l874 1487h228l221 -1487h-219z" />
    <glyph glyph-name="B" unicode="B" horiz-adv-x="1388" 
d="M702 172q170 0 275 92q104 92 104 242q0 188 -301 188h-395l-111 -522h428zM1006 1487q172 0 261 -80t89 -209q0 -262 -275 -397q145 -57 186 -155q19 -48 19 -109q0 -219 -171 -378t-439 -159h-639l315 1487h654zM782 858q164 0 266 69q101 69 101 220q0 168 -268 168
h-365l-96 -457h362z" />
    <glyph glyph-name="C" unicode="C" horiz-adv-x="1495" 
d="M1311 1038q0 142 -82 224q-87 82 -268 86q-254 0 -447 -228t-192 -592q0 -389 387 -389q114 0 249 73q74 40 144 126t119 209h194q-101 -273 -267 -403q-168 -128 -300 -155q-132 -28 -207 -28q-231 0 -380 133q-148 133 -148 408q0 428 254 726t630 298q252 0 381 -125
t129 -311q0 -27 -4 -52h-192z" />
    <glyph glyph-name="D" unicode="D" horiz-adv-x="1470" 
d="M664 172q229 0 402 219t173 557q0 180 -91 274t-257 93h-375l-242 -1143h390zM954 1487q236 0 366 -137t130 -383t-123 -494q-66 -131 -158 -235t-232 -171t-306 -67h-594l315 1487h602z" />
    <glyph glyph-name="E" unicode="E" horiz-adv-x="1353" 
d="M1171 178l-36 -178h-1098l315 1487h1084l-37 -178h-883l-94 -437h813l-37 -178h-813l-111 -516h897z" />
    <glyph glyph-name="F" unicode="F" horiz-adv-x="1236" 
d="M352 1487h1026l-37 -178h-825l-94 -437h727l-37 -178h-727l-147 -694h-201z" />
    <glyph glyph-name="G" unicode="G" horiz-adv-x="1599" 
d="M1530 1081q0 -18 -4 -47h-193q0 94 -35 159q-81 151 -337 153q-255 2 -449 -230t-195 -590q0 -393 390 -393q272 0 440 205q94 115 129 285h-463l37 172h651l-168 -795h-129l-8 193q-100 -107 -244 -169t-295 -62q-299 -1 -423 167q-123 169 -121 397q0 283 144 535
q75 131 177 234t250 167t342 64q192 0 348 -116t156 -329z" />
    <glyph glyph-name="H" unicode="H" horiz-adv-x="1480" 
d="M553 1487l-131 -615h776l131 615h201l-316 -1487h-200l147 694h-776l-147 -694h-201l315 1487h201z" />
    <glyph glyph-name="I" unicode="I" horiz-adv-x="503" 
d="M553 1487l-315 -1487h-201l315 1487h201z" />
    <glyph glyph-name="J" unicode="J" horiz-adv-x="1036" 
d="M178 287q0 -154 182 -154q236 0 291 254l234 1100h200l-231 -1088q-55 -250 -214 -350q-137 -86 -318 -87t-261 82t-79 204q0 55 38 229h189q-31 -152 -31 -190z" />
    <glyph glyph-name="K" unicode="K" horiz-adv-x="1382" 
d="M553 1487l-154 -721l875 721h276l-745 -600l455 -887h-269l-362 745l-281 -223l-110 -522h-201l315 1487h201z" />
    <glyph glyph-name="L" unicode="L" horiz-adv-x="1142" 
d="M553 1487l-279 -1309h752l-37 -178h-952l315 1487h201z" />
    <glyph glyph-name="M" unicode="M" horiz-adv-x="1724" 
d="M352 1487h287l156 -1258h4l690 1258h285l-316 -1487h-194l186 879q21 94 47 203q26 110 39 167h-2l-686 -1249h-199l-151 1249h-6q-18 -84 -74 -370l-187 -879h-194z" />
    <glyph glyph-name="N" unicode="N" horiz-adv-x="1482" 
d="M1083 287l254 1200h195l-315 -1487h-226l-502 1200h-4l-254 -1200h-194l315 1487h238l489 -1200h4z" />
    <glyph glyph-name="O" unicode="O" horiz-adv-x="1630" 
d="M1008 1526q337 0 472 -187q121 -168 120 -409t-131 -487q-71 -134 -172 -240t-259 -174t-333 -68q-337 0 -465 177q-129 177 -128 417t131 486q71 135 172 241t260 175t333 69zM985 1348q-276 0 -471 -228t-195 -549q-1 -199 105 -315t303 -117q276 1 471 231t195 550
q1 196 -105 312t-303 116z" />
    <glyph glyph-name="P" unicode="P" horiz-adv-x="1353" 
d="M1022 1487q172 0 267 -86t95 -232q0 -192 -134 -359q-64 -81 -172 -132t-238 -51h-469l-133 -627h-201l315 1487h670zM807 799q158 0 263 82q106 82 106 258t-252 176h-408l-108 -516h399z" />
    <glyph glyph-name="Q" unicode="Q" horiz-adv-x="1632" 
d="M690 -39q-440 0 -549 371q-59 199 2 458q31 128 102 261t173 237t260 171t332 67q333 0 471 -187q121 -165 121 -397q0 -455 -361 -782l170 -156l-125 -121l-190 176q-176 -98 -406 -98zM1393 923q1 193 -105 309t-301 116q-276 0 -472 -230t-196 -551q0 -197 108 -313
t302 -117q123 0 229 47l-129 121l127 125l158 -147q123 96 201 272t78 368z" />
    <glyph glyph-name="R" unicode="R" horiz-adv-x="1464" 
d="M874 809q136 0 240 63q57 35 92 105t35 166q0 172 -223 172h-502l-106 -506h464zM1038 1487q184 0 301 -69q117 -70 117 -236t-92 -285t-203 -166q8 -6 40 -28q32 -21 47 -35q16 -14 32 -50t16 -82q0 -48 -38 -216t-37 -197q0 -53 55 -88l-6 -35h-246q0 146 29 292
t28 177q0 168 -223 168h-485l-135 -637h-201l315 1487h686z" />
    <glyph glyph-name="S" unicode="S" horiz-adv-x="1374" 
d="M870 1526q489 0 490 -365q0 -29 -10 -110h-189q4 16 4 59q0 127 -89 185q-89 59 -212 59t-250 -56q-70 -30 -114 -96t-45 -158q1 -63 67 -100q66 -38 299 -94t340 -127q107 -72 107 -198t-46 -226q-46 -99 -118 -161q-207 -177 -526 -177q-274 0 -390 111
q-115 111 -114 278q0 59 14 131h188q-10 -55 -10 -88q0 -137 100 -198t247 -61q148 0 284 57q76 32 122 101t46 167q0 76 -91 124q-92 48 -318 98q-226 49 -315 113t-89 185q0 215 168 381t450 166z" />
    <glyph glyph-name="T" unicode="T" horiz-adv-x="1263" 
d="M897 1309l-279 -1309h-200l278 1309h-503l36 178h1209l-37 -178h-504z" />
    <glyph glyph-name="U" unicode="U" horiz-adv-x="1472" 
d="M344 422q0 -152 88 -218t234 -67q146 0 280 95q133 95 180 313l199 942h201l-205 -965q-51 -242 -239 -402t-478 -159q-240 0 -356 113t-117 291q0 66 14 129l211 993h201l-199 -938q-14 -66 -14 -127z" />
    <glyph glyph-name="V" unicode="V" horiz-adv-x="1378" 
d="M242 1487h223l156 -1268h4l688 1268h225l-856 -1487h-215z" />
    <glyph glyph-name="W" unicode="W" horiz-adv-x="1953" 
d="M233 1487h218l22 -1208h4l588 1208h221l76 -1208h4l532 1208h224l-707 -1487h-211l-78 1231h-4l-606 -1231h-211z" />
    <glyph glyph-name="X" unicode="X" horiz-adv-x="1378" 
d="M272 1487h252l256 -569l498 569h240l-652 -725l359 -762h-248l-270 610l-541 -610h-242l692 762z" />
    <glyph glyph-name="Y" unicode="Y" horiz-adv-x="1378" 
d="M229 1487h234l276 -715l578 715h235l-749 -889l-127 -598h-201l127 598z" />
    <glyph glyph-name="Z" unicode="Z" horiz-adv-x="1263" 
d="M317 1487h1100l-37 -174l-1157 -1135h916l-37 -178h-1170l35 168l1155 1141h-841z" />
    <glyph glyph-name="bracketleft" unicode="[" horiz-adv-x="575" 
d="M334 1495h387l-33 -147h-223l-340 -1606h223l-33 -148h-387z" />
    <glyph glyph-name="backslash" unicode="\" horiz-adv-x="573" 
d="M129 1526h137l178 -1565h-139z" />
    <glyph glyph-name="bracketright" unicode="]" horiz-adv-x="575" 
d="M260 1495h387l-405 -1901h-387l32 148h224l340 1606h-224z" />
    <glyph glyph-name="asciicircum" unicode="^" horiz-adv-x="1071" 
d="M549 1423h147l254 -876h-157l-205 710l-504 -710h-160z" />
    <glyph glyph-name="underscore" unicode="_" 
d="M1141 -258h-1151l20 102h1151z" />
    <glyph glyph-name="grave" unicode="`" horiz-adv-x="688" 
d="M59 1520h224l123 -293h-140z" />
    <glyph glyph-name="a" unicode="a" horiz-adv-x="1148" 
d="M371 121q131 0 247 74t140 180l37 178q-70 -47 -312 -68q-279 -25 -278 -231q0 -133 166 -133zM698 1114q231 0 314 -129q28 -45 28 -95t-70 -376t-71 -344q0 -45 49 -45q18 0 60 8l-29 -133q-61 -20 -100 -20q-164 0 -164 120q0 12 4 45q-57 -49 -105 -81t-135 -63
q-87 -32 -201 -32t-191 67t-77 177q0 165 118 275t275 130q313 37 326 41q121 29 121 172q0 131 -217 132q-147 0 -207 -67q-59 -67 -86 -142h-168q78 360 526 360z" />
    <glyph glyph-name="b" unicode="b" horiz-adv-x="1153" 
d="M698 950q-116 0 -198 -60t-123 -154q-78 -178 -78 -322q0 -287 219 -287q150 0 270 153t121 427q0 243 -211 243zM754 1114q170 0 260 -102t90 -275q0 -242 -146 -487q-72 -121 -196 -201t-277 -80q-195 0 -264 166h-4l-29 -135h-170l316 1487h182l-115 -537
q150 164 353 164z" />
    <glyph glyph-name="c" unicode="c" horiz-adv-x="1044" 
d="M858 719q0 121 -46 176t-154 55t-188 -57q-81 -57 -128 -147q-96 -183 -94 -371q0 -248 227 -248q94 0 179 68t134 188h177q-47 -146 -165 -270q-62 -66 -156 -105t-208 -39q-184 1 -284 107t-101 286q1 304 189 528t475 224q172 0 249 -90t76 -227q0 -39 -6 -78h-176z
" />
    <glyph glyph-name="d" unicode="d" horiz-adv-x="1153" 
d="M637 950q-115 0 -198 -60t-124 -154q-77 -176 -77 -321q0 -288 219 -288q151 0 271 153t120 427q0 243 -211 243zM51 376q0 184 69 352t203 278q134 109 304 108q86 0 148 -33t88 -67t50 -84l119 557h182l-315 -1487h-172l31 150h-4q-135 -180 -337 -180t-284 111
t-82 295z" />
    <glyph glyph-name="e" unicode="e" horiz-adv-x="1130" 
d="M895 711q0 240 -242 239q-123 0 -231 -98t-135 -225h602q6 43 6 84zM434 -31q-184 -1 -283 105t-100 286q-1 306 187 530t477 224q178 0 267 -104t89 -295q0 -113 -27 -234h-788q-14 -76 -14 -116q0 -238 252 -238q117 -1 213 71t110 142h182q-168 -371 -565 -371z" />
    <glyph glyph-name="f" unicode="f" horiz-adv-x="575" 
d="M599 1343q-94 0 -120 -126l-28 -134h182l-33 -151h-182l-197 -932h-182l197 932h-148l33 151h147l39 185q53 240 332 239q21 0 51 -4t29 -6l-33 -158q-45 4 -87 4z" />
    <glyph glyph-name="g" unicode="g" horiz-adv-x="1153" 
d="M335 -455q-199 0 -291 74q-36 29 -60 82q-25 53 -25 125v43h184q0 -72 46 -114t85 -50q38 -8 100 -8t129 28q67 27 105 65t70 102q31 64 43 111q12 46 29 120q-127 -154 -324 -154t-282 117q-85 118 -85 304t72 352t208 268q136 104 306 104q207 0 287 -184l33 153h170
l-211 -993q-38 -181 -100 -281q-28 -44 -76 -98q-91 -99 -253 -143q-87 -24 -160 -23zM643 950q-115 0 -198 -60t-123 -154q-78 -179 -78 -322q0 -287 219 -287q151 0 271 153t120 427q0 243 -211 243z" />
    <glyph glyph-name="h" unicode="h" horiz-adv-x="1146" 
d="M754 1114q131 0 221 -59t90 -205q0 -51 -12 -113l-156 -737h-182l149 709q12 53 13 98q0 143 -177 143q-127 0 -231 -85t-145 -275l-125 -590h-183l316 1487h182l-117 -549h4q170 176 353 176z" />
    <glyph glyph-name="i" unicode="i" horiz-adv-x="448" 
d="M473 1280h-182l43 207h182zM430 1083l-229 -1083h-183l230 1083h182z" />
    <glyph glyph-name="j" unicode="j" horiz-adv-x="448" 
d="M475 1280h-182l43 207h182zM-172 -270q86 0 116 22t48 111l260 1220h182l-264 -1241q-19 -92 -74 -171q-75 -107 -262 -105q-35 0 -76 6l33 158h37z" />
    <glyph glyph-name="k" unicode="k" horiz-adv-x="1042" 
d="M514 1487l-186 -875l565 471h231l-499 -403l295 -680h-218l-233 553l-184 -143l-86 -410h-183l316 1487h182z" />
    <glyph glyph-name="l" unicode="l" horiz-adv-x="450" 
d="M514 1487l-315 -1487h-183l316 1487h182z" />
    <glyph glyph-name="m" unicode="m" horiz-adv-x="1722" 
d="M754 1114q138 0 191 -67q38 -48 59 -109q70 63 110 93q40 31 110 57q69 26 130 26t105 -12t90 -41t75 -87t29 -132t-6 -92l-177 -750h-182l150 700q12 51 12 97q0 154 -162 153q-112 0 -200 -88t-113 -200l-141 -662h-183l160 750q6 31 6 61q0 139 -135 139
q-93 0 -194 -66q-54 -36 -98 -111t-66 -179l-125 -594h-185l232 1083h170l-33 -153h4q164 184 367 184z" />
    <glyph glyph-name="n" unicode="n" horiz-adv-x="1146" 
d="M754 1114q131 0 221 -59t90 -205q0 -51 -12 -113l-158 -737h-182l141 668q18 84 18 125q0 158 -188 157q-92 0 -196 -68q-54 -36 -99 -112t-67 -180l-123 -590h-185l232 1083h170l-33 -153h6q164 184 365 184z" />
    <glyph glyph-name="o" unicode="o" 
d="M480 127q124 0 211 63q87 64 130 158q84 185 84 316q0 294 -241 292q-113 0 -199 -62t-131 -156q-90 -187 -89 -317t56 -212t179 -82zM455 -31q-199 0 -298 120t-99 295t72 337q74 161 224 277t346 116t295 -119q98 -119 99 -301q0 -256 -167 -482q-79 -108 -203 -176
t-269 -67z" />
    <glyph glyph-name="p" unicode="p" horiz-adv-x="1153" 
d="M772 1114q170 0 261 -103t91 -288t-93 -378q-50 -103 -120 -186t-175 -136t-230 -54q-199 0 -258 158l-119 -555h-182l321 1511h170l-32 -153q76 86 158 135t208 49zM719 950q-115 0 -198 -60t-124 -154q-76 -173 -78 -343q1 -123 55 -195t165 -71q151 0 271 153t120 427
q0 243 -211 243z" />
    <glyph glyph-name="q" unicode="q" horiz-adv-x="1153" 
d="M469 -31q-199 0 -284 115t-85 293q0 297 166 517t420 220q127 0 188 -49t101 -135l33 153h170l-322 -1511h-182l119 555q-125 -158 -324 -158zM686 950q-115 0 -198 -60q-84 -60 -124 -154q-78 -179 -77 -322q0 -287 219 -287q150 0 270 153t121 427q0 243 -211 243z" />
    <glyph glyph-name="r" unicode="r" horiz-adv-x="681" 
d="M731 1114q27 0 47 -6l-39 -188h-71q-125 0 -219 -84t-119 -207l-131 -629h-185l232 1083h170l-39 -180h4q166 211 350 211z" />
    <glyph glyph-name="s" unicode="s" horiz-adv-x="1034" 
d="M803 819q0 137 -223 137q-64 0 -127 -24q-127 -48 -125 -158q0 -45 49 -72q49 -26 222 -70t248 -100t75 -141q0 -186 -156 -304t-356 -118q-395 0 -396 279q0 55 11 100h176q-6 -25 -6 -55q0 -166 245 -166q115 0 202 52t87 151q0 43 -59 80q-60 38 -222 70t-234 84
t-73 143q0 190 154 299t338 108q106 0 180 -28t107 -74q59 -81 59 -174q0 -39 -6 -64h-176q6 29 6 45z" />
    <glyph glyph-name="t" unicode="t" horiz-adv-x="575" 
d="M426 930l-152 -723q0 -66 93 -66h63l-31 -141q-88 -16 -137 -16q-180 0 -180 145q0 37 10 88l152 713h-146l31 151h145l66 301h182l-65 -301h174l-31 -151h-174z" />
    <glyph glyph-name="u" unicode="u" horiz-adv-x="1136" 
d="M432 127q162 0 257 110t124 250l127 596h182l-231 -1083h-172l35 158l-2 4q-82 -98 -171 -146t-212 -47t-208 59t-85 187q0 35 10 90l166 778h182l-153 -718q-10 -51 -11 -82q0 -156 162 -156z" />
    <glyph glyph-name="v" unicode="v" horiz-adv-x="1032" 
d="M131 1083h211l94 -882h4l492 882h198l-641 -1083h-194z" />
    <glyph glyph-name="w" unicode="w" horiz-adv-x="1495" 
d="M145 1083h197l27 -850h6l389 850h203l30 -850h4l400 850h180l-543 -1083h-188l-41 838h-4l-389 -838h-189z" />
    <glyph glyph-name="x" unicode="x" horiz-adv-x="1032" 
d="M156 1083h233l170 -381l330 381h223l-475 -526l260 -557h-231l-183 408l-346 -408h-229l498 557z" />
    <glyph glyph-name="y" unicode="y" horiz-adv-x="1034" 
d="M-8 -442q-20 0 -74 16l35 166q47 -18 111 -18t100 37q37 38 141 212l-166 1112h207l103 -882h4l475 882h200q-47 -82 -303 -536t-446 -744q-96 -147 -167 -196t-220 -49z" />
    <glyph glyph-name="z" unicode="z" horiz-adv-x="1032" 
d="M227 1083h838l-31 -149l-811 -782h664l-33 -152h-905l31 143l819 789h-602z" />
    <glyph glyph-name="braceleft" unicode="{" horiz-adv-x="690" 
d="M668 1495h139l-29 -135h-92q-94 0 -131 -170l-76 -352q-27 -127 -107 -202t-136 -87v-4q129 -41 129 -195q1 -41 -47 -262t-48 -266q0 -92 70 -92h90l-29 -136h-139q-70 0 -116 52t-46 143q0 47 47 253t47 276t-32 118q-33 47 -88 47l26 125q72 0 136 75q63 75 88 189
l75 355q25 121 105 195t164 73z" />
    <glyph glyph-name="bar" unicode="|" horiz-adv-x="536" 
d="M29 -39l331 1565h150l-332 -1565h-149z" />
    <glyph glyph-name="braceright" unicode="}" horiz-adv-x="690" 
d="M23 -406h-140l29 136h92q94 0 131 170l74 350q40 191 194 273q29 15 52 22v4q-39 10 -84 63t-45 148q0 49 47 263t47 247q0 90 -70 90h-90l29 135h139q70 0 116 -52t46 -123t-47 -280q-47 -210 -47 -274t32 -111t90 -47l-26 -125q-72 1 -136 -75t-89 -193l-76 -352
q-25 -121 -105 -195t-163 -74z" />
    <glyph glyph-name="asciitilde" unicode="~" horiz-adv-x="1208" 
d="M791 375q-78 0 -199 74q-121 73 -222 73t-202 -149l-49 116q137 186 299 187q66 0 224 -74t183 -74q88 1 215 148l50 -117q-158 -184 -299 -184z" />
    <glyph glyph-name="nbspace" unicode="&#xa0;" horiz-adv-x="573" 
 />
    <glyph glyph-name="exclamdown" unicode="&#xa1;" horiz-adv-x="573" 
d="M360 1102h101l-86 -641l-105 -492h-198l104 492zM342 1245l45 211h199l-45 -211h-199z" />
    <glyph glyph-name="cent" unicode="&#xa2;" horiz-adv-x="1044" 
d="M651 950q-100 0 -182 -57t-128 -147q-95 -185 -93 -373q0 -143 90 -211l342 784q-8 4 -29 4zM475 127q94 0 179 68t132 188h177q-47 -146 -165 -270q-62 -66 -156 -105t-208 -39q-35 0 -59 4l-170 -395l-111 23l172 397q-215 88 -215 369q0 202 111 407t311 292
q111 48 240 48q20 0 37 -4l172 401l102 -28l-168 -391q113 -42 154 -144t24 -229h-176q10 147 -76 201l-340 -789q16 -4 33 -4z" />
    <glyph glyph-name="sterling" unicode="&#xa3;" 
d="M467 657q0 -159 -74 -277t-264 -243v-2q156 78 289 78q70 0 180 -37t150 -37q92 0 172 64l57 -135q-152 -100 -287 -101q-57 0 -194 47q-138 47 -234 47t-244 -84l-69 144q188 119 264 235t76 201q0 27 -13 100h-223l27 129h143q-37 133 -37 205t34 153t101 161t191 131
t295 51q172 0 261 -94t89 -240q0 -53 -18 -139h-183q12 53 13 92q1 100 -61 162t-164 61q-102 0 -178 -37q-74 -37 -110 -91q-70 -107 -71 -185q0 -78 49 -230h346l-26 -129h-287z" />
    <glyph glyph-name="currency" unicode="&#xa4;" 
d="M498 356q166 0 304 138t138 307q0 123 -80 208t-207 85q-168 0 -305 -138t-137 -307q0 -125 80 -209t207 -84zM466 213q-186 0 -284 113l-139 -121l-72 94l133 115q-47 82 -47 198t48 229q48 114 133 195l-88 113l118 100l94 -116q144 104 322 104t277 -104l143 116
l78 -100l-138 -113q49 -72 50 -190q0 -246 -183 -432l88 -115l-112 -94l-90 121q-145 -113 -331 -113z" />
    <glyph glyph-name="yen" unicode="&#xa5;" 
d="M158 1421h207l231 -610l496 610h206l-532 -628h319l-26 -117h-400l-36 -176h399l-25 -119h-399l-82 -381h-182l82 381h-398l25 119h397l37 176h-397l26 117h318z" />
    <glyph glyph-name="brokenbar" unicode="&#xa6;" horiz-adv-x="536" 
d="M240 952l120 574h150l-121 -574h-149zM29 -39l129 608h149l-129 -608h-149z" />
    <glyph glyph-name="section" unicode="&#xa7;" 
d="M283 637q-1 -61 75 -134t322 -245q193 109 192 242q0 36 -15 66t-109 112t-279 209q-186 -86 -186 -250zM905 1223q0 145 -164 145q-75 0 -151 -49t-76 -139q0 -56 56 -120t211 -152t215 -158q60 -72 61 -164q0 -258 -293 -412q66 -86 65 -170q1 -119 -75 -214t-178 -140
t-201 -45q-156 1 -246 69t-90 209q0 49 12 111h182q-10 -41 -10 -78q0 -154 162 -154q76 0 138 28q118 55 118 167t-264 283q-158 102 -219 168t-62 153q0 260 285 406q-59 84 -59 151q0 141 125 275q126 133 329 133q129 0 221 -62t93 -207q-1 -49 -13 -110h-182
q10 51 10 76z" />
    <glyph glyph-name="dieresis" unicode="&#xa8;" horiz-adv-x="1353" 
d="M1143 1651h-182l43 207h182zM723 1651h-182l43 207h182z" />
    <glyph glyph-name="copyright" unicode="&#xa9;" horiz-adv-x="1525" 
d="M676 266q-160 0 -258 100t-99 263q0 248 166 422t402 174q322 0 321 -324h-139q0 86 -56 137t-153 52q-162 0 -270 -128t-109 -305q-1 -113 63 -185t168 -71t183 55q78 54 111 142h141q-61 -152 -186 -242t-285 -90zM610 92q214 0 395 106t295 292t115 406
q0 220 -141 359q-142 139 -356 139t-396 -107q-182 -108 -296 -294t-114 -404t142 -358q142 -139 356 -139zM600 -39q-283 0 -465 172q-182 171 -182 435t145 486q144 222 370 347t464 125q287 0 465 -163t178 -435t-144 -495q-145 -222 -369 -347t-462 -125z" />
    <glyph glyph-name="guillemotleft" unicode="&#xab;" 
d="M915 406l-38 -183l-273 256l41 189l379 256l-39 -183l-252 -168zM492 406l-39 -183l-273 256l41 189l379 256l-39 -183l-252 -168z" />
    <glyph glyph-name="logicalnot" unicode="&#xac;" horiz-adv-x="1208" 
d="M915 223l93 432h-897l30 150h1049l-123 -582h-152z" />
    <glyph glyph-name="uni00AD" unicode="&#xad;" horiz-adv-x="690" 
d="M641 598l-33 -149h-506l33 149h506z" />
    <glyph glyph-name="registered" unicode="&#xae;" horiz-adv-x="1525" 
d="M776 799q187 0 233 84q22 39 21 98q0 98 -172 98h-186l-60 -280h164zM903 1194q272 0 273 -182q0 -142 -86 -230t-209 -98l172 -391h-154l-154 391h-157l-84 -391h-135l192 901h342zM610 92q214 0 395 106t295 292t115 406q0 220 -141 359q-142 139 -356 139t-396 -107
q-182 -108 -296 -294t-114 -404t142 -358q142 -139 356 -139zM600 -39q-283 0 -465 172q-182 171 -182 435t145 486q144 222 370 347t464 125q287 0 465 -163t178 -452q0 -193 -86 -371q-169 -349 -537 -504q-176 -75 -352 -75z" />
    <glyph glyph-name="macron" unicode="&#xaf;" horiz-adv-x="690" 
d="M618 1835l-40 -184h-506l41 184h505z" />
    <glyph glyph-name="degree" unicode="&#xb0;" horiz-adv-x="827" 
d="M477 1454q111 0 179 -66t67 -167q0 -149 -114 -259t-259 -110q-110 0 -178 66t-68 167q0 143 112 256t261 113zM621 1183q0 83 -45 133t-128 50t-162 -80t-79 -163t45 -133t128 -50t162 80t79 163z" />
    <glyph glyph-name="plusminus" unicode="&#xb1;" horiz-adv-x="1208" 
d="M-31 0l31 152h1049l-31 -152h-1049zM569 715l70 334h152l-70 -334h448l-32 -152h-449l-70 -332h-151l70 332h-449l33 152h448z" />
    <glyph glyph-name="twosuperior" unicode="&#xb2;" horiz-adv-x="993" 
d="M604 1507q114 0 184 -55t70 -149q0 -131 -87 -211t-265 -155t-262 -177h506l-27 -125h-662q63 242 340 369q164 76 238 133t74 147q0 102 -150 102q-180 1 -225 -192h-125q51 253 294 303q48 10 97 10z" />
    <glyph glyph-name="threesuperior" unicode="&#xb3;" horiz-adv-x="993" 
d="M608 1507q117 0 182 -51q64 -51 64 -138q0 -86 -54 -148t-110 -72v-4q119 -37 119 -157t-114 -223t-298 -104q-125 0 -193 58t-69 159q0 39 8 74h142q-6 -25 -6 -53q0 -117 147 -117q98 0 166 45t67 139q0 66 -48 89t-136 22h-49l23 107h57q84 0 142 42t59 119
q0 92 -144 92q-162 1 -203 -165h-127q25 117 116 201t259 85z" />
    <glyph glyph-name="acute" unicode="&#xb4;" horiz-adv-x="688" 
d="M690 1520l-330 -293h-139l246 293h223z" />
    <glyph glyph-name="mu" unicode="&#xb5;" 
d="M322 281q0 -154 162 -154t255 110q94 110 125 250l125 596h182l-229 -1083h-172l33 158l-2 4q-80 -98 -169 -146t-207 -47q-118 0 -159 74h-4l-98 -471h-182l319 1511h182l-151 -718q-10 -51 -10 -84z" />
    <glyph glyph-name="paragraph" unicode="&#xb6;" horiz-adv-x="1112" 
d="M713 1485h512l-391 -1841h-150l365 1718h-248l-365 -1718h-149l227 1069q-172 0 -271 84t-100 219q0 229 164 349t406 120z" />
    <glyph glyph-name="periodcentered" unicode="&#xb7;" horiz-adv-x="573" 
d="M310 653q50 1 80 -31t30 -83t-51 -99t-105 -47q-54 0 -81 32t-27 85t52 98t102 45z" />
    <glyph glyph-name="cedilla" unicode="&#xb8;" horiz-adv-x="1495" 
d="M698 -442q-100 0 -176 12l27 119q51 -10 145 -11q178 0 178 76q0 38 -48 62t-115 24l34 160h144l-19 -88q86 -12 133 -62t48 -112q0 -180 -351 -180z" />
    <glyph glyph-name="ordmasculine" unicode="&#xba;" horiz-adv-x="894" 
d="M70 203h614l-20 -99h-615zM522 893q-112 0 -180 -95q-93 -132 -56 -288q7 -34 41 -62t95 -28q116 0 182 96t66 219q-1 158 -148 158zM399 313q-121 -1 -193 61t-73 201q1 139 97 277q46 66 130 106t196 41q114 0 186 -57t71 -176q0 -203 -114 -328t-300 -125z" />
    <glyph glyph-name="guillemotright" unicode="&#xbb;" 
d="M930 479l-379 -256l39 183l252 167l-183 168l39 183l273 -256zM506 479l-379 -256l39 183l252 167l-182 168l38 183l273 -256z" />
    <glyph glyph-name="onequarter" unicode="&#xbc;" horiz-adv-x="1724" 
d="M479 1198h-223l18 90q129 8 187 37q57 29 104 129h109l-187 -874h-139zM1509 1454l-1233 -1495h-118l1235 1495h116zM1208 313l82 387h-4l-375 -387h297zM758 195l26 122l543 555h133l-119 -559h138l-25 -118h-137l-41 -195h-133l41 195h-426z" />
    <glyph glyph-name="onehalf" unicode="&#xbd;" horiz-adv-x="1724" 
d="M1331 872q113 0 183 -55t71 -149q0 -25 -6 -56q-23 -108 -105 -176t-250 -138q-170 -70 -253 -173h506l-27 -125h-662q63 242 340 369q160 71 226 119t79 116t-18 108t-125 40q-180 0 -225 -193h-125q51 253 294 303q48 10 97 10zM416 1194h-221l18 94q129 8 185 37
t104 129h116l-186 -874h-147zM1436 1454l-1231 -1493h-119l1231 1493h119z" />
    <glyph glyph-name="threequarters" unicode="&#xbe;" horiz-adv-x="1724" 
d="M258 795q0 -117 148 -117q201 0 229 147q12 31 4 55t-12 39q-5 15 -25 25l-40 20t-107 9h-49l22 106h57q170 0 199 138q10 45 -18 81t-123 35q-162 0 -203 -166h-127q25 117 116 202t259 85q118 0 182 -51t64 -135q0 -29 -5 -45q-16 -76 -63 -121t-96 -58v-4
q119 -37 118 -147q0 -23 -6 -53q-25 -119 -129 -201q-105 -82 -253 -82t-217 57t-68 160q0 39 8 74h141q-6 -25 -6 -53zM1632 1454l-1235 -1495h-116l1232 1495h119zM1399 700l-377 -387h299l82 387h-4zM868 195l27 122l545 555h131l-119 -559h139l-24 -118h-140l-41 -195
h-131l41 195h-428z" />
    <glyph glyph-name="questiondown" unicode="&#xbf;" 
d="M631 1255l45 211h201l-46 -211h-200zM268 306q0 -77 46 -132t159 -55q276 0 344 327h182q-34 -186 -157 -323q-149 -162 -406 -162q-170 0 -267 86t-97 212t46 212t107 135t158 131q96 82 162 166q34 45 65 184h187q-27 -127 -93 -228t-137 -165q-72 -64 -140 -120
q-159 -129 -159 -268z" />
    <glyph glyph-name="Agrave" unicode="&#xc0;" horiz-adv-x="1380" 
d="M668 1944h223l123 -293h-140zM467 610h461l-80 656h-4zM963 434h-594l-248 -434h-207l874 1487h228l221 -1487h-219z" />
    <glyph glyph-name="Aacute" unicode="&#xc1;" horiz-adv-x="1380" 
d="M1116 1944h223l-329 -293h-140zM467 610h461l-80 656h-4zM963 434h-594l-248 -434h-207l874 1487h228l221 -1487h-219z" />
    <glyph glyph-name="Acircumflex" unicode="&#xc2;" horiz-adv-x="1380" 
d="M911 1944h191l143 -293h-164l-96 192l-178 -192h-162zM467 610h461l-80 656h-4zM963 434h-594l-248 -434h-207l874 1487h228l221 -1487h-219z" />
    <glyph glyph-name="Atilde" unicode="&#xc3;" horiz-adv-x="1380" 
d="M1143 1782q72 0 106 62q7 11 17 34h104q-32 -98 -102 -163t-154 -64q-29 0 -135 38q-106 37 -149 37t-69 -20t-50 -70h-101q78 221 262 222q62 0 152 -38t119 -38zM467 610h461l-80 656h-4zM963 434h-594l-248 -434h-207l874 1487h228l221 -1487h-219z" />
    <glyph glyph-name="Adieresis" unicode="&#xc4;" horiz-adv-x="1380" 
d="M1243 1651h-182l43 207h182zM823 1651h-182l43 207h182zM467 610h461l-80 656h-4zM963 434h-594l-248 -434h-207l874 1487h228l221 -1487h-219z" />
    <glyph glyph-name="Aring" unicode="&#xc5;" horiz-adv-x="1380" 
d="M846 1799q0 -109 109 -109q56 0 106 48q49 48 49 99t-28 81t-86 30t-104 -50t-46 -99zM1010 2030q94 0 139 -50t45 -134q0 -82 -80 -160t-172 -78t-136 51t-44 131t77 160t171 80zM467 610h461l-80 656h-4zM963 434h-594l-248 -434h-207l874 1487h228l221 -1487h-219z
" />
    <glyph glyph-name="AE" unicode="&#xc6;" horiz-adv-x="2070" 
d="M467 610h416l149 699h-158zM788 1487h1364l-36 -178h-883l-94 -437h813l-37 -178h-813l-111 -516h897l-37 -178h-1097l92 434h-477l-248 -434h-207z" />
    <glyph glyph-name="Ccedilla" unicode="&#xc7;" horiz-adv-x="1495" 
d="M113 502q0 428 254 726t630 298q252 0 381 -125t129 -311q0 -27 -4 -52h-192q0 142 -82 224q-87 82 -268 86q-254 0 -447 -228t-192 -592q0 -389 387 -389q114 0 249 73q74 40 144 126t119 209h194q-49 -135 -122 -239t-145 -165q-188 -152 -427 -178l-10 -53
q86 -12 133 -62t47 -112q0 -180 -350 -180q-98 0 -176 12l26 119q51 -10 146 -11q178 0 178 76q0 38 -48 62t-116 24l27 125q-207 19 -336 151t-129 386z" />
    <glyph glyph-name="Egrave" unicode="&#xc8;" horiz-adv-x="1353" 
d="M692 1944h223l123 -293h-139zM1171 178l-36 -178h-1098l315 1487h1084l-37 -178h-883l-94 -437h813l-37 -178h-813l-111 -516h897z" />
    <glyph glyph-name="Eacute" unicode="&#xc9;" horiz-adv-x="1353" 
d="M1333 1944l-329 -293h-140l246 293h223zM1171 178l-36 -178h-1098l315 1487h1084l-37 -178h-883l-94 -437h813l-37 -178h-813l-111 -516h897z" />
    <glyph glyph-name="Ecircumflex" unicode="&#xca;" horiz-adv-x="1353" 
d="M979 1843l-178 -192h-162l266 293h191l143 -293h-164zM1171 178l-36 -178h-1098l315 1487h1084l-37 -178h-883l-94 -437h813l-37 -178h-813l-111 -516h897z" />
    <glyph glyph-name="Edieresis" unicode="&#xcb;" horiz-adv-x="1353" 
d="M1255 1651h-182l43 207h182zM836 1651h-183l43 207h183zM1171 178l-36 -178h-1098l315 1487h1084l-37 -178h-883l-94 -437h813l-37 -178h-813l-111 -516h897z" />
    <glyph glyph-name="Igrave" unicode="&#xcc;" horiz-adv-x="503" 
d="M262 1944h223l123 -293h-139zM553 1487l-315 -1487h-201l315 1487h201z" />
    <glyph glyph-name="Iacute" unicode="&#xcd;" horiz-adv-x="503" 
d="M834 1944l-330 -293h-139l245 293h224zM553 1487l-315 -1487h-201l315 1487h201z" />
    <glyph glyph-name="Icircumflex" unicode="&#xce;" horiz-adv-x="503" 
d="M532 1843l-178 -192h-161l266 293h190l144 -293h-164zM553 1487l-315 -1487h-201l315 1487h201z" />
    <glyph glyph-name="Idieresis" unicode="&#xcf;" horiz-adv-x="503" 
d="M741 1651h-182l43 207h182zM416 1651h-183l43 207h183zM553 1487l-315 -1487h-201l315 1487h201z" />
    <glyph glyph-name="Eth" unicode="&#xd0;" horiz-adv-x="1470" 
d="M664 172q229 0 402 219t173 557q0 180 -91 274t-257 93h-375l-94 -443h405l-36 -178h-406l-111 -522h390zM954 1487q236 0 366 -137t130 -383t-123 -494q-66 -131 -158 -235t-232 -171t-306 -67h-594l147 694h-151l37 178h151l131 615h602z" />
    <glyph glyph-name="Ntilde" unicode="&#xd1;" horiz-adv-x="1482" 
d="M1048 1820q90 -38 136 -38q45 0 67 30q23 30 39 66h105q-33 -98 -103 -163t-153 -64q-29 0 -135 38q-106 37 -150 37t-69 -20q-26 -20 -50 -70h-100q78 221 262 222q61 0 151 -38zM1083 287l254 1200h195l-315 -1487h-226l-502 1200h-4l-254 -1200h-194l315 1487h238
l489 -1200h4z" />
    <glyph glyph-name="Ograve" unicode="&#xd2;" horiz-adv-x="1630" 
d="M788 1944h224l123 -293h-140zM1008 1526q337 0 472 -187q121 -168 120 -409t-131 -487q-71 -134 -172 -240t-259 -174t-333 -68q-337 0 -465 177q-129 177 -128 417t131 486q71 135 172 241t260 175t333 69zM985 1348q-276 0 -471 -228t-195 -549q-1 -199 105 -315
t303 -117q276 1 471 231t195 550q1 196 -105 312t-303 116z" />
    <glyph glyph-name="Oacute" unicode="&#xd3;" horiz-adv-x="1630" 
d="M1223 1944h223l-330 -293h-139zM1008 1526q337 0 472 -187q121 -168 120 -409t-131 -487q-71 -134 -172 -240t-259 -174t-333 -68q-337 0 -465 177q-129 177 -128 417t131 486q71 135 172 241t260 175t333 69zM985 1348q-276 0 -471 -228t-195 -549q-1 -199 105 -315
t303 -117q276 1 471 231t195 550q1 196 -105 312t-303 116z" />
    <glyph glyph-name="Ocircumflex" unicode="&#xd4;" horiz-adv-x="1630" 
d="M1026 1944h191l143 -293h-164l-96 192l-178 -192h-162zM1008 1526q337 0 472 -187q121 -168 120 -409t-131 -487q-71 -134 -172 -240t-259 -174t-333 -68q-337 0 -465 177q-129 177 -128 417t131 486q71 135 172 241t260 175t333 69zM985 1348q-276 0 -471 -228
t-195 -549q-1 -199 105 -315t303 -117q276 1 471 231t195 550q1 196 -105 312t-303 116z" />
    <glyph glyph-name="Otilde" unicode="&#xd5;" horiz-adv-x="1630" 
d="M1096 1820q90 -38 135 -38t67 30q23 30 39 66h105q-33 -98 -103 -163t-153 -64q-29 0 -135 38q-106 37 -149 37t-69 -20t-51 -70h-100q78 221 262 222q62 0 152 -38zM1008 1526q337 0 472 -187q121 -168 120 -409t-131 -487q-71 -134 -172 -240t-259 -174t-333 -68
q-337 0 -465 177q-129 177 -128 417t131 486q71 135 172 241t260 175t333 69zM985 1348q-276 0 -471 -228t-195 -549q-1 -199 105 -315t303 -117q276 1 471 231t195 550q1 196 -105 312t-303 116z" />
    <glyph glyph-name="Odieresis" unicode="&#xd6;" horiz-adv-x="1630" 
d="M1356 1651h-182l43 207h182zM936 1651h-182l43 207h182zM1008 1526q337 0 472 -187q121 -168 120 -409t-131 -487q-71 -134 -172 -240t-259 -174t-333 -68q-337 0 -465 177q-129 177 -128 417t131 486q71 135 172 241t260 175t333 69zM985 1348q-276 0 -471 -228
t-195 -549q-1 -199 105 -315t303 -117q276 1 471 231t195 550q1 196 -105 312t-303 116z" />
    <glyph glyph-name="multiply" unicode="&#xd7;" horiz-adv-x="1208" 
d="M498 524l-330 418l131 107l328 -416l506 416l84 -107l-504 -418l327 -418l-129 -106l-329 416l-506 -416l-84 106z" />
    <glyph glyph-name="Oslash" unicode="&#xd8;" horiz-adv-x="1630" 
d="M670 -39q-210 0 -353 105l-98 -105h-139l164 174q-131 152 -131 406t130 500q71 135 172 241t260 175t347 69q256 0 403 -131l123 131h138l-193 -205q106 -145 106 -389t-130 -489q-71 -134 -172 -240t-259 -174t-368 -68zM727 139q276 1 471 231t195 550q-1 137 -54 237
l-876 -936q100 -82 264 -82zM985 1348q-276 0 -471 -228t-195 -549q0 -163 76 -274l883 942q-109 109 -293 109z" />
    <glyph glyph-name="Ugrave" unicode="&#xd9;" horiz-adv-x="1472" 
d="M739 1944h224l122 -293h-139zM344 422q0 -152 88 -218t234 -67q146 0 280 95q133 95 180 313l199 942h201l-205 -965q-51 -242 -239 -402t-478 -159q-240 0 -356 113t-117 291q0 66 14 129l211 993h201l-199 -938q-14 -66 -14 -127z" />
    <glyph glyph-name="Uacute" unicode="&#xda;" horiz-adv-x="1472" 
d="M1083 1944h224l-330 -293h-139zM344 422q0 -152 88 -218t234 -67q146 0 280 95q133 95 180 313l199 942h201l-205 -965q-51 -242 -239 -402t-478 -159q-240 0 -356 113t-117 291q0 66 14 129l211 993h201l-199 -938q-14 -66 -14 -127z" />
    <glyph glyph-name="Ucircumflex" unicode="&#xdb;" horiz-adv-x="1472" 
d="M924 1944h190l143 -293h-163l-97 192l-178 -192h-162zM344 422q0 -152 88 -218t234 -67q146 0 280 95q133 95 180 313l199 942h201l-205 -965q-51 -242 -239 -402t-478 -159q-240 0 -356 113t-117 291q0 66 14 129l211 993h201l-199 -938q-14 -66 -14 -127z" />
    <glyph glyph-name="Udieresis" unicode="&#xdc;" horiz-adv-x="1472" 
d="M1276 1651h-182l43 207h182zM856 1651h-182l43 207h182zM344 422q0 -152 88 -218t234 -67q146 0 280 95q133 95 180 313l199 942h201l-205 -965q-51 -242 -239 -402t-478 -159q-240 0 -356 113t-117 291q0 66 14 129l211 993h201l-199 -938q-14 -66 -14 -127z" />
    <glyph glyph-name="Yacute" unicode="&#xdd;" horiz-adv-x="1378" 
d="M1042 1944h224l-330 -293h-139zM229 1487h234l276 -715l578 715h235l-749 -889l-127 -598h-201l127 598z" />
    <glyph glyph-name="Thorn" unicode="&#xde;" horiz-adv-x="1353" 
d="M979 1288q172 0 267 -86t95 -231q0 -193 -134 -360q-65 -81 -173 -132t-237 -51h-469l-90 -428h-201l315 1487h201l-41 -199h467zM766 600q158 0 263 82t105 258t-251 176h-408l-108 -516h399z" />
    <glyph glyph-name="germandbls" unicode="&#xdf;" horiz-adv-x="1230" 
d="M737 1487q123 0 227 -69t103 -167q0 -71 -124 -245t-124 -228q0 -86 140 -208q53 -44 97 -112t44 -143q0 -139 -120 -238t-269 -100q-215 0 -353 232l150 82q90 -168 201 -168q75 -1 143 65t68 120q0 87 -142 216q-141 130 -141 234q0 62 123 230t123 241q0 47 -44 77
t-116 29q-139 0 -208 -85t-103 -244l-213 -1006h-183l217 1024q100 463 504 463z" />
    <glyph glyph-name="agrave" unicode="&#xe0;" horiz-adv-x="1148" 
d="M481 1516h234l123 -236h-140zM371 121q131 0 247 74t140 180l37 178q-70 -47 -312 -68q-279 -25 -278 -231q0 -133 166 -133zM698 1114q231 0 314 -129q28 -45 28 -95t-70 -376t-71 -344q0 -45 49 -45q18 0 60 8l-29 -133q-61 -20 -100 -20q-164 0 -164 120q0 12 4 45
q-57 -49 -105 -81t-135 -63q-87 -32 -201 -32t-191 67t-77 177q0 165 118 275t275 130q313 37 326 41q121 29 121 172q0 131 -217 132q-147 0 -207 -67q-59 -67 -86 -142h-168q78 360 526 360z" />
    <glyph glyph-name="aacute" unicode="&#xe1;" horiz-adv-x="1148" 
d="M838 1516h233l-315 -236h-140zM371 121q131 0 247 74t140 180l37 178q-70 -47 -312 -68q-279 -25 -278 -231q0 -133 166 -133zM698 1114q231 0 314 -129q28 -45 28 -95t-70 -376t-71 -344q0 -45 49 -45q18 0 60 8l-29 -133q-61 -20 -100 -20q-164 0 -164 120q0 12 4 45
q-57 -49 -105 -81t-135 -63q-87 -32 -201 -32t-191 67t-77 177q0 165 118 275t275 130q313 37 326 41q121 29 121 172q0 131 -217 132q-147 0 -207 -67q-59 -67 -86 -142h-168q78 360 526 360z" />
    <glyph glyph-name="acircumflex" unicode="&#xe2;" horiz-adv-x="1148" 
d="M676 1516h153l115 -236h-131l-78 154l-143 -154h-129zM371 121q131 0 247 74t140 180l37 178q-70 -47 -312 -68q-279 -25 -278 -231q0 -133 166 -133zM698 1114q231 0 314 -129q28 -45 28 -95t-70 -376t-71 -344q0 -45 49 -45q18 0 60 8l-29 -133q-61 -20 -100 -20
q-164 0 -164 120q0 12 4 45q-57 -49 -105 -81t-135 -63q-87 -32 -201 -32t-191 67t-77 177q0 165 118 275t275 130q313 37 326 41q121 29 121 172q0 131 -217 132q-147 0 -207 -67q-59 -67 -86 -142h-168q78 360 526 360z" />
    <glyph glyph-name="atilde" unicode="&#xe3;" horiz-adv-x="1148" 
d="M844 1280q-29 0 -135 38q-105 38 -149 38t-70 -20t-50 -70h-100q78 221 262 221q62 0 152 -38t135 -38t67 30q23 30 39 66h105q-33 -99 -103 -163t-153 -64zM371 121q131 0 247 74t140 180l37 178q-70 -47 -312 -68q-279 -25 -278 -231q0 -133 166 -133zM698 1114
q231 0 314 -129q28 -45 28 -95t-70 -376t-71 -344q0 -45 49 -45q18 0 60 8l-29 -133q-61 -20 -100 -20q-164 0 -164 120q0 12 4 45q-57 -49 -105 -81t-135 -63q-87 -32 -201 -32t-191 67t-77 177q0 165 118 275t275 130q313 37 326 41q121 29 121 172q0 131 -217 132
q-147 0 -207 -67q-59 -67 -86 -142h-168q78 360 526 360z" />
    <glyph glyph-name="adieresis" unicode="&#xe4;" horiz-adv-x="1148" 
d="M1001 1280h-182l43 207h182zM629 1280h-183l43 207h183zM371 121q131 0 247 74t140 180l37 178q-70 -47 -312 -68q-279 -25 -278 -231q0 -133 166 -133zM698 1114q231 0 314 -129q28 -45 28 -95t-70 -376t-71 -344q0 -45 49 -45q18 0 60 8l-29 -133q-61 -20 -100 -20
q-164 0 -164 120q0 12 4 45q-57 -49 -105 -81t-135 -63q-87 -32 -201 -32t-191 67t-77 177q0 165 118 275t275 130q313 37 326 41q121 29 121 172q0 131 -217 132q-147 0 -207 -67q-59 -67 -86 -142h-168q78 360 526 360z" />
    <glyph glyph-name="aring" unicode="&#xe5;" horiz-adv-x="1148" 
d="M897 1470q0 108 -111 109q-54 0 -104 -47q-50 -46 -49 -98q0 -52 29 -82q28 -30 84 -31q56 0 104 48q47 47 47 101zM796 1661q89 0 137 -46t48 -132t-79 -165t-172 -79t-136 52t-43 131t78 159t167 80zM371 121q131 0 247 74t140 180l37 178q-70 -47 -312 -68
q-279 -25 -278 -231q0 -133 166 -133zM879 -20q-164 0 -164 120q0 12 4 45q-57 -49 -105 -81t-135 -63q-87 -32 -201 -32t-191 67t-77 177q0 165 118 275t275 130q313 37 326 41q121 29 121 172q0 131 -217 132q-147 0 -214 -75q-47 -53 -79 -134h-168q78 360 526 360
q231 0 314 -129q28 -45 28 -95t-70 -376t-71 -344q0 -45 49 -45q19 0 60 8l-29 -133q-61 -20 -100 -20z" />
    <glyph glyph-name="ae" unicode="&#xe6;" horiz-adv-x="1820" 
d="M371 127q133 0 249 71t138 177l37 178q-70 -47 -312 -68q-279 -25 -278 -231q0 -127 166 -127zM1585 711q0 246 -239 245q-122 0 -232 -100t-137 -229h602q6 43 6 84zM696 1114q119 0 203 -40t115 -95q162 135 391 135q178 0 267 -104t89 -295q0 -113 -26 -234h-789
q-14 -76 -14 -116q0 -238 252 -238q117 0 213 72t110 141h183q-168 -371 -566 -371q-131 -1 -222 55t-130 158q-227 -213 -481 -213q-129 0 -206 67t-77 177q0 165 118 275t275 130q313 37 326 41q121 29 121 172q0 125 -219 125q-93 0 -151 -28t-82 -64q-24 -34 -58 -110
h-168q80 360 526 360z" />
    <glyph glyph-name="ccedilla" unicode="&#xe7;" horiz-adv-x="1044" 
d="M858 719q0 121 -46 176t-154 55t-188 -57q-81 -57 -128 -147q-96 -183 -94 -371q0 -248 227 -248q94 0 179 68t134 188h177q-49 -149 -169 -273t-307 -139l-10 -45q63 -8 105 -49t41 -92q0 -145 -277 -145q-90 0 -149 8l22 98q53 -8 119 -8q143 0 143 59q0 29 -33 49
q-34 20 -100 21l23 106q-156 17 -239 121t-83 268q1 304 189 528t475 224q172 0 249 -90t76 -227q0 -39 -6 -78h-176z" />
    <glyph glyph-name="egrave" unicode="&#xe8;" horiz-adv-x="1130" 
d="M510 1516h233l123 -236h-139zM895 711q0 240 -242 239q-123 0 -231 -98t-135 -225h602q6 43 6 84zM242 365q0 -238 252 -238q117 0 213 72t110 141h182q-168 -371 -565 -371q-184 -1 -283 105t-100 286q-1 306 187 530t477 224q178 0 267 -104t89 -295q0 -113 -27 -234
h-788q-14 -76 -14 -116z" />
    <glyph glyph-name="eacute" unicode="&#xe9;" horiz-adv-x="1130" 
d="M893 1516h233l-315 -236h-139zM895 711q0 240 -242 239q-123 0 -231 -98t-135 -225h602q6 43 6 84zM434 -31q-184 -1 -283 105t-100 286q-1 306 187 530t477 224q178 0 267 -104t89 -295q0 -113 -27 -234h-788q-14 -76 -14 -116q0 -238 252 -238q117 -1 213 71t110 142
h182q-168 -371 -565 -371z" />
    <glyph glyph-name="ecircumflex" unicode="&#xea;" horiz-adv-x="1130" 
d="M694 1516h154l115 -236h-132l-77 154l-144 -154h-129zM895 711q0 240 -242 239q-123 0 -231 -98t-135 -225h602q6 43 6 84zM434 -31q-184 -1 -283 105t-100 286q-1 306 187 530t477 224q178 0 267 -104t89 -295q0 -113 -27 -234h-788q-14 -76 -14 -116q0 -238 252 -238
q117 -1 213 71t110 142h182q-168 -371 -565 -371z" />
    <glyph glyph-name="edieresis" unicode="&#xeb;" horiz-adv-x="1130" 
d="M1016 1280h-182l43 207h182zM643 1280h-182l43 207h182zM895 711q0 240 -242 239q-123 0 -231 -98t-135 -225h602q6 43 6 84zM242 365q0 -238 252 -238q117 0 213 72t110 141h182q-168 -371 -565 -371q-184 -1 -283 105t-100 286q-1 306 187 530t477 224q178 0 267 -104
t89 -295q0 -113 -27 -234h-788q-14 -76 -14 -116z" />
    <glyph glyph-name="igrave" unicode="&#xec;" horiz-adv-x="448" 
d="M156 1516h233l123 -236h-139zM430 1083l-229 -1083h-183l230 1083h182z" />
    <glyph glyph-name="iacute" unicode="&#xed;" horiz-adv-x="448" 
d="M469 1516h233l-315 -236h-139zM430 1083l-229 -1083h-183l230 1083h182z" />
    <glyph glyph-name="icircumflex" unicode="&#xee;" horiz-adv-x="448" 
d="M358 1516h154l115 -236h-131l-78 154l-144 -154h-129zM430 1083l-229 -1083h-183l230 1083h182z" />
    <glyph glyph-name="idieresis" unicode="&#xef;" horiz-adv-x="448" 
d="M635 1280h-182l43 207h182zM311 1280h-182l43 207h182zM430 1083l-229 -1083h-183l230 1083h182z" />
    <glyph glyph-name="eth" unicode="&#xf0;" 
d="M899 664q-1 120 -61 206t-186 86t-226 -98t-143 -219t-43 -239t59 -196q59 -77 184 -77t224 86q98 86 145 208t47 243zM1100 793q0 -355 -171 -589t-454 -235q-201 0 -313 115t-111 303q0 279 165 503t376 224q94 0 163 -28t142 -97q-23 145 -106 305l-242 -106l-49 106
l223 99q-45 71 -125 147h197q43 -31 79 -78l185 78l49 -102l-166 -74q158 -270 158 -571z" />
    <glyph glyph-name="ntilde" unicode="&#xf1;" horiz-adv-x="1146" 
d="M901 1280q-29 0 -135 38t-149 38t-69 -20t-50 -70h-101q78 221 262 221q61 0 151 -38t120 -38q74 0 106 63q7 10 17 33h104q-33 -99 -103 -163t-153 -64zM754 1114q131 0 221 -59t90 -205q0 -51 -12 -113l-158 -737h-182l141 668q18 84 18 125q0 158 -188 157
q-92 0 -196 -68q-54 -36 -99 -112t-67 -180l-123 -590h-185l232 1083h170l-33 -153h6q164 184 365 184z" />
    <glyph glyph-name="ograve" unicode="&#xf2;" 
d="M473 1516h234l122 -236h-139zM480 127q124 0 211 63q87 64 130 158q84 185 84 316q0 294 -241 292q-113 0 -199 -62t-131 -156q-90 -187 -89 -317t56 -212t179 -82zM455 -31q-199 0 -298 120t-99 295t72 337q74 161 224 277t346 116t295 -119q98 -119 99 -301
q0 -256 -167 -482q-79 -108 -203 -176t-269 -67z" />
    <glyph glyph-name="oacute" unicode="&#xf3;" 
d="M858 1516h234l-316 -236h-139zM480 127q124 0 211 63q87 64 130 158q84 185 84 316q0 294 -241 292q-113 0 -199 -62t-131 -156q-90 -187 -89 -317t56 -212t179 -82zM455 -31q-199 0 -298 120t-99 295t72 337q74 161 224 277t346 116t295 -119q98 -119 99 -301
q0 -256 -167 -482q-79 -108 -203 -176t-269 -67z" />
    <glyph glyph-name="ocircumflex" unicode="&#xf4;" 
d="M688 1516h154l114 -236h-131l-77 154l-144 -154h-129zM480 127q124 0 211 63q87 64 130 158q84 185 84 316q0 294 -241 292q-113 0 -199 -62t-131 -156q-90 -187 -89 -317t56 -212t179 -82zM455 -31q-199 0 -298 120t-99 295t72 337q74 161 224 277t346 116t295 -119
q98 -119 99 -301q0 -256 -167 -482q-79 -108 -203 -176t-269 -67z" />
    <glyph glyph-name="otilde" unicode="&#xf5;" 
d="M885 1280q-29 0 -135 38t-150 38t-69 -20q-26 -20 -50 -70h-100q78 221 262 221q61 0 151 -38t136 -38q45 0 67 30q23 30 39 66h105q-33 -99 -103 -163t-153 -64zM480 127q124 0 211 63q87 64 130 158q84 185 84 316q0 294 -241 292q-113 0 -199 -62t-131 -156
q-90 -187 -89 -317t56 -212t179 -82zM455 -31q-199 0 -298 120t-99 295t72 337q74 161 224 277t346 116t295 -119q98 -119 99 -301q0 -256 -167 -482q-79 -108 -203 -176t-269 -67z" />
    <glyph glyph-name="odieresis" unicode="&#xf6;" 
d="M1012 1280h-183l43 207h183zM639 1280h-182l43 207h182zM480 127q124 0 211 63q87 64 130 158q84 185 84 316q0 294 -241 292q-113 0 -199 -62t-131 -156q-90 -187 -89 -317t56 -212t179 -82zM455 -31q-199 0 -298 120t-99 295t72 337q74 161 224 277t346 116t295 -119
q98 -119 99 -301q0 -256 -167 -482q-79 -108 -203 -176t-269 -67z" />
    <glyph glyph-name="divide" unicode="&#xf7;" horiz-adv-x="1208" 
d="M542 244q56 0 87 -35t31 -89t-58 -106q-56 -52 -112 -53q-56 0 -87 35q-31 36 -31 92t57 106t113 50zM551 930q1 56 57 106t112 49t87 -35t31 -88t-58 -106t-112 -53q-55 0 -86 35q-31 36 -31 92zM1112 449h-1049l33 149h1049z" />
    <glyph glyph-name="oslash" unicode="&#xf8;" 
d="M672 956q-121 0 -207 -62t-131 -156q-90 -187 -88 -326q-1 -86 28 -152l580 608q-61 88 -182 88zM487 127q117 0 204 63q87 64 130 158q84 185 84 326q0 66 -18 127l-576 -604q59 -70 176 -70zM1094 708q0 -270 -167 -496q-79 -108 -203 -176t-280 -67q-156 0 -260 94
l-90 -94h-96l137 146q-78 111 -78 277t73 329q74 161 224 277t339 116t292 -108l102 108h99l-158 -164q66 -104 66 -242z" />
    <glyph glyph-name="ugrave" unicode="&#xf9;" horiz-adv-x="1136" 
d="M465 1516h233l123 -236h-139zM432 127q162 0 257 110t124 250l127 596h182l-231 -1083h-172l35 158l-2 4q-82 -98 -171 -146t-212 -47t-208 59t-85 187q0 35 10 90l166 778h182l-153 -718q-10 -51 -11 -82q0 -156 162 -156z" />
    <glyph glyph-name="uacute" unicode="&#xfa;" horiz-adv-x="1136" 
d="M1047 1516l-316 -236h-139l221 236h234zM432 127q162 0 257 110t124 250l127 596h182l-231 -1083h-172l35 158l-2 4q-82 -98 -171 -146t-212 -47t-208 59t-85 187q0 35 10 90l166 778h182l-153 -718q-10 -51 -11 -82q0 -156 162 -156z" />
    <glyph glyph-name="ucircumflex" unicode="&#xfb;" horiz-adv-x="1136" 
d="M692 1516h154l115 -236h-132l-77 154l-144 -154h-129zM432 127q162 0 257 110t124 250l127 596h182l-231 -1083h-172l35 158l-2 4q-82 -98 -171 -146t-212 -47t-208 59t-85 187q0 35 10 90l166 778h182l-153 -718q-10 -51 -11 -82q0 -156 162 -156z" />
    <glyph glyph-name="udieresis" unicode="&#xfc;" horiz-adv-x="1136" 
d="M1010 1280h-183l43 207h183zM637 1280h-182l43 207h182zM432 127q162 0 257 110t124 250l127 596h182l-231 -1083h-172l35 158l-2 4q-82 -98 -171 -146t-212 -47t-208 59t-85 187q0 35 10 90l166 778h182l-153 -718q-10 -51 -11 -82q0 -156 162 -156z" />
    <glyph glyph-name="yacute" unicode="&#xfd;" horiz-adv-x="1034" 
d="M778 1516h234l-316 -236h-139zM-8 -442q-20 0 -74 16l35 166q47 -18 111 -18t100 37q37 38 141 212l-166 1112h207l103 -882h4l475 882h200q-47 -82 -303 -536t-446 -744q-96 -147 -167 -196t-220 -49z" />
    <glyph glyph-name="thorn" unicode="&#xfe;" horiz-adv-x="1153" 
d="M772 1114q170 0 261 -103t91 -288t-93 -378q-50 -103 -120 -186t-175 -136t-230 -54q-199 0 -258 158l-119 -555h-182l395 1862h170l-106 -504q76 86 158 135t208 49zM719 950q-115 0 -198 -60t-124 -154q-76 -173 -78 -343q1 -123 55 -195t165 -71q151 0 271 153
t120 427q0 243 -211 243z" />
    <glyph glyph-name="ydieresis" unicode="&#xff;" horiz-adv-x="1034" 
d="M967 1280h-183l43 207h183zM594 1280h-182l43 207h182zM-8 -442q-20 0 -74 16l35 166q47 -18 111 -18t100 37q37 38 141 212l-166 1112h207l103 -882h4l475 882h200q-47 -82 -303 -536t-446 -744q-96 -147 -167 -196t-220 -49z" />
    <glyph glyph-name="OE" unicode="&#x152;" horiz-adv-x="2463" 
d="M985 1348q-276 0 -471 -228t-195 -549q-1 -199 105 -315t303 -117q154 0 285 74t221 205l139 651q-37 131 -135 205t-252 74zM690 -39q-160 0 -278 50t-180 136q-121 168 -120 408t131 486q71 135 172 241t260 175t347 69q266 0 418 -142l20 103h1084l-37 -178h-883
l-94 -437h813l-37 -178h-813l-111 -516h897l-36 -178h-1098l20 102q-205 -141 -475 -141z" />
    <glyph glyph-name="oe" unicode="&#x153;" horiz-adv-x="1939" 
d="M664 956q-126 0 -224 -87t-146 -207t-48 -245q0 -124 56 -207t184 -83t228 90q99 90 145 213t46 246q1 280 -241 280zM1704 711q0 111 -59 179t-185 66q-126 0 -231 -100q-106 -100 -133 -229h602q6 43 6 84zM1051 365q0 -238 252 -238q117 0 213 72t110 141h182
q-168 -371 -565 -371q-266 0 -350 213q-184 -213 -447 -213q-112 0 -194 40t-121 107q-72 124 -73 263q-2 278 167 500q80 104 202 170t263 65q268 0 361 -221q180 221 473 221q178 0 267 -104t89 -295q0 -113 -27 -234h-788q-14 -76 -14 -116z" />
    <glyph glyph-name="Scaron" unicode="&#x160;" horiz-adv-x="1374" 
d="M913 1751l179 193h161l-268 -293h-190l-142 293h164zM870 1526q489 0 490 -365q0 -29 -10 -110h-189q4 16 4 59q0 127 -89 185q-89 59 -212 59t-250 -56q-70 -30 -114 -96t-45 -158q1 -63 67 -100q66 -38 299 -94t340 -127q107 -72 107 -198t-46 -226q-46 -99 -118 -161
q-207 -177 -526 -177q-274 0 -390 111q-115 111 -114 278q0 59 14 131h188q-10 -55 -10 -88q0 -137 100 -198t247 -61q148 0 284 57q76 32 122 101t46 167q0 76 -91 124q-92 48 -318 98q-226 49 -315 113t-89 185q0 215 168 381t450 166z" />
    <glyph glyph-name="scaron" unicode="&#x161;" horiz-adv-x="1034" 
d="M467 1440h131l78 -154l143 154h129l-213 -236h-153zM803 819q0 137 -223 137q-64 0 -127 -24q-127 -48 -125 -158q0 -45 49 -72q49 -26 222 -70t248 -100t75 -141q0 -186 -156 -304t-356 -118q-395 0 -396 279q0 55 11 100h176q-6 -25 -6 -55q0 -166 245 -166
q115 0 202 52t87 151q0 43 -59 80q-60 38 -222 70t-234 84t-73 143q0 190 154 299t338 108q106 0 180 -28t107 -74q59 -81 59 -174q0 -39 -6 -64h-176q6 29 6 45z" />
    <glyph glyph-name="Ydieresis" unicode="&#x178;" horiz-adv-x="1378" 
d="M1227 1651h-183l43 207h183zM807 1651h-182l43 207h182zM229 1487h234l276 -715l578 715h235l-749 -889l-127 -598h-201l127 598z" />
    <glyph glyph-name="florin" unicode="&#x192;" horiz-adv-x="1148" 
d="M1061 1368q-125 0 -209 -201l-88 -213h235l-30 -145h-262l-269 -676q-119 -303 -251 -432t-289 -129q-72 0 -125 25l67 167q33 -29 99 -28q94 0 154 83t138 277l285 713h-225l31 145h253l113 256q53 124 161 220t232 96q84 0 154 -31l-64 -162q-82 35 -110 35z" />
    <glyph glyph-name="circumflex" unicode="&#x2c6;" horiz-adv-x="690" 
d="M354 1419l-178 -192h-162l267 293h190l143 -293h-163z" />
    <glyph glyph-name="uni02C9" unicode="&#x2c9;" horiz-adv-x="690" 
d="M618 1835l-40 -184h-506l41 184h505z" />
    <glyph glyph-name="tilde" unicode="&#x2dc;" horiz-adv-x="690" 
d="M498 1399q72 0 106 62q7 11 17 34h104q-33 -98 -103 -163t-153 -64q-29 0 -135 38t-149 38t-69 -21q-26 -20 -50 -70h-101q78 221 262 222q61 0 151 -38t120 -38z" />
    <glyph glyph-name="uni037E" unicode="&#x37e;" horiz-adv-x="573" 
d="M541 1067l-45 -219h-217l45 219h217zM96 0l47 219h217l-43 -203q-20 -98 -61 -166t-103 -106t-120 -47l20 94q111 10 154 209h-111z" />
    <glyph glyph-name="uni03BC" unicode="&#x3bc;" 
d="M322 281q0 -154 162 -154t255 110q94 110 125 250l125 596h182l-229 -1083h-172l33 158l-2 4q-80 -98 -169 -146t-207 -47q-118 0 -159 74h-4l-98 -471h-182l319 1511h182l-151 -718q-10 -51 -10 -84z" />
    <glyph glyph-name="afii10023" unicode="&#x401;" horiz-adv-x="1353" 
d="M1255 1651h-182l43 207h182zM836 1651h-183l43 207h183zM1171 178l-36 -178h-1098l315 1487h1084l-37 -178h-883l-94 -437h813l-37 -178h-813l-111 -516h897z" />
    <glyph glyph-name="afii10051" unicode="&#x402;" horiz-adv-x="1728" 
d="M1622 532q0 -224 -157 -378t-384 -154h-217l37 178h158q160 0 257 85t97 226q0 105 -61 155t-204 50t-394 -53l-136 -641h-200l278 1309h-503l36 178h1209l-37 -178h-504l-106 -502q236 66 469 65q92 0 162 -26t106 -64q94 -94 94 -250z" />
    <glyph glyph-name="afii10052" unicode="&#x403;" horiz-adv-x="1142" 
d="M1245 1944l-330 -293h-139l246 293h223zM352 1487h973l-37 -178h-772l-278 -1309h-201z" />
    <glyph glyph-name="afii10053" unicode="&#x404;" horiz-adv-x="1503" 
d="M113 500q1 274 109 508t307 375q200 143 459 143t388 -138t129 -350h-194q-1 142 -97 226t-282 84t-338 -131t-227 -375h669l-35 -162h-669q-12 -78 -13 -145q0 -395 369 -396q120 0 263 66q77 35 146 107t109 173h195q-51 -135 -139 -237t-174 -154t-206 -93
q-119 -40 -241 -40q-231 0 -380 133q-148 132 -148 406z" />
    <glyph glyph-name="afii10054" unicode="&#x405;" horiz-adv-x="1378" 
d="M870 1526q489 0 490 -365q0 -29 -10 -110h-189q4 20 4 59q0 127 -89 185q-89 59 -210 59t-253 -57q-69 -29 -113 -95t-45 -158q1 -63 67 -100q66 -38 299 -94t340 -127q107 -72 107 -197t-46 -225q-46 -99 -118 -161q-209 -178 -526 -179q-274 0 -390 111
q-115 111 -114 278q0 59 14 131h188q-10 -55 -10 -88q0 -137 100 -198t247 -61q148 0 284 57q76 32 122 101t46 167q0 76 -91 124q-92 48 -318 98q-226 49 -315 113t-89 185q0 213 171 380t447 167z" />
    <glyph glyph-name="afii10055" unicode="&#x406;" horiz-adv-x="503" 
d="M553 1487l-315 -1487h-201l315 1487h201z" />
    <glyph glyph-name="afii10056" unicode="&#x407;" horiz-adv-x="573" 
d="M776 1651h-182l43 207h182zM451 1651h-183l43 207h183zM588 1487l-316 -1487h-200l315 1487h201z" />
    <glyph glyph-name="afii10057" unicode="&#x408;" horiz-adv-x="1036" 
d="M178 287q0 -154 182 -154q236 0 291 254l234 1100h200l-231 -1088q-55 -250 -214 -350q-137 -86 -318 -87t-261 82t-79 204q0 55 38 229h189q-31 -147 -31 -190z" />
    <glyph glyph-name="afii10058" unicode="&#x409;" horiz-adv-x="2304" 
d="M1634 178q88 0 155 24t103 58q93 85 97 240q0 195 -258 194h-416l-111 -516h430zM1835 872q186 0 274 -98t89 -246q0 -220 -156 -374t-385 -154h-690l276 1309h-567l-131 -621q-86 -406 -209 -562t-293 -157q-57 0 -133 15l35 168q33 -8 92 -9q113 1 183 141t138 468
l156 735h969l-131 -615h483z" />
    <glyph glyph-name="afii10059" unicode="&#x40a;" horiz-adv-x="2351" 
d="M1681 178q88 0 155 24q115 41 163 137q37 74 37 161q0 195 -258 194h-416l-111 -516h430zM1882 872q186 0 274 -98t89 -246q0 -220 -156 -374t-385 -154h-690l147 694h-776l-147 -694h-201l315 1487h201l-131 -615h776l131 615h201l-131 -615h483z" />
    <glyph glyph-name="afii10060" unicode="&#x40b;" horiz-adv-x="1728" 
d="M1622 524q0 -49 -12 -106l-88 -418h-201l88 420q8 41 8 78q0 197 -262 196q-164 0 -401 -53l-136 -641h-200l278 1309h-503l36 178h1209l-37 -178h-504l-106 -502q236 66 469 65q184 0 273 -97t89 -251z" />
    <glyph glyph-name="afii10061" unicode="&#x40c;" horiz-adv-x="1382" 
d="M1268 1944l-330 -293h-139l245 293h224zM553 1487l-154 -721l875 721h276l-745 -600l455 -887h-269l-362 745l-281 -223l-110 -522h-201l315 1487h201z" />
    <glyph glyph-name="afii10062" unicode="&#x40e;" horiz-adv-x="1363" 
d="M672 1827q0 29 4 57h102q6 -78 41 -117t132 -39t150 39q52 39 91 117h100q-94 -283 -368 -282q-252 0 -252 225zM349 -39q-85 0 -156 14l36 172q43 -8 107 -8t99 24q34 24 104 113l-320 1211h215l242 -1016l647 1016h215l-823 -1251q-105 -158 -193 -216t-173 -59z" />
    <glyph glyph-name="afii10145" unicode="&#x40f;" horiz-adv-x="1486" 
d="M553 1487l-279 -1309h783l278 1309h201l-315 -1487h-492l-70 -322h-200l69 322h-491l315 1487h201z" />
    <glyph glyph-name="afii10017" unicode="&#x410;" horiz-adv-x="1380" 
d="M467 610h461l-80 656h-4zM963 434h-594l-248 -434h-207l874 1487h228l221 -1487h-219z" />
    <glyph glyph-name="afii10018" unicode="&#x411;" horiz-adv-x="1374" 
d="M705 178q240 0 317 161q37 74 37 161q0 195 -258 194h-416l-111 -516h431zM905 872q187 0 275 -98t88 -246q0 -220 -156 -374t-385 -154h-690l315 1487h1047l-37 -178h-846l-94 -437h483z" />
    <glyph glyph-name="afii10019" unicode="&#x412;" horiz-adv-x="1388" 
d="M702 172q170 0 275 92q104 92 104 242q0 188 -301 188h-395l-111 -522h428zM1006 1487q172 0 261 -80t89 -209q0 -262 -275 -397q145 -57 186 -155q19 -48 19 -109q0 -219 -171 -378t-439 -159h-639l315 1487h654zM782 858q160 0 264 72q103 72 103 217q0 168 -268 168
h-365l-96 -457h362z" />
    <glyph glyph-name="afii10020" unicode="&#x413;" horiz-adv-x="1142" 
d="M352 1487h973l-37 -178h-772l-278 -1309h-201z" />
    <glyph glyph-name="afii10021" unicode="&#x414;" horiz-adv-x="1472" 
d="M1051 178l239 1131h-571l-70 -332q-57 -268 -126 -442t-206 -357h734zM123 178q143 207 208 378t126 460l100 471h973l-279 -1309h131l-106 -500h-184l69 322h-1016l-69 -322h-185l107 500h125z" />
    <glyph glyph-name="afii10022" unicode="&#x415;" horiz-adv-x="1353" 
d="M1171 178l-36 -178h-1098l315 1487h1084l-37 -178h-883l-94 -437h813l-37 -178h-813l-111 -516h897z" />
    <glyph glyph-name="afii10024" unicode="&#x416;" horiz-adv-x="2066" 
d="M1139 1487h198l-151 -715l766 715h256l-658 -604l369 -883h-244l-305 741l-235 -213l-113 -528h-199l113 528l-145 213l-621 -741h-244l742 883l-400 604h256l463 -715z" />
    <glyph glyph-name="afii10025" unicode="&#x417;" horiz-adv-x="1388" 
d="M915 1526q205 0 327 -89t122 -246t-108 -265t-230 -133q116 -25 184 -103t68 -208t-68 -237q-116 -184 -398 -255q-116 -29 -232 -29q-293 0 -408 92t-115 254q0 76 21 174h188q-12 -55 -12 -100q0 -133 93 -187t255 -54t303 67q74 35 119 105t45 176q0 104 -88 156
t-233 52h-156l35 164h112q166 0 290 77t124 220q0 190 -293 191q-156 0 -284 -70t-164 -231h-189q27 126 119 239q116 144 318 205q116 35 255 35z" />
    <glyph glyph-name="afii10026" unicode="&#x418;" horiz-adv-x="1495" 
d="M553 1487l-258 -1217h8l1012 1217h229l-315 -1487h-201l254 1200h-4l-1010 -1200h-231l315 1487h201z" />
    <glyph glyph-name="afii10027" unicode="&#x419;" horiz-adv-x="1495" 
d="M811 1884q6 -78 41 -117t132 -39t150 39q52 39 91 117h100q-94 -283 -369 -282q-252 0 -251 225q0 29 4 57h102zM553 1487l-258 -1217h8l1012 1217h229l-315 -1487h-201l254 1200h-4l-1010 -1200h-231l315 1487h201z" />
    <glyph glyph-name="afii10028" unicode="&#x41a;" horiz-adv-x="1382" 
d="M553 1487l-154 -721l875 721h276l-745 -600l455 -887h-269l-362 745l-281 -223l-110 -522h-201l315 1487h201z" />
    <glyph glyph-name="afii10029" unicode="&#x41b;" horiz-adv-x="1433" 
d="M43 -31q-57 0 -133 15l35 168q33 -8 92 -9q113 1 183 141t138 468l156 735h969l-316 -1487h-200l276 1309h-567l-131 -621q-86 -406 -209 -562t-293 -157z" />
    <glyph glyph-name="afii10030" unicode="&#x41c;" horiz-adv-x="1724" 
d="M352 1487h287l156 -1258h4l690 1258h285l-316 -1487h-194l186 879q21 94 47 203q26 110 39 167h-2l-686 -1249h-199l-151 1249h-6q-18 -84 -74 -370l-187 -879h-194z" />
    <glyph glyph-name="afii10031" unicode="&#x41d;" horiz-adv-x="1480" 
d="M553 1487l-131 -615h776l131 615h201l-316 -1487h-200l147 694h-776l-147 -694h-201l315 1487h201z" />
    <glyph glyph-name="afii10032" unicode="&#x41e;" horiz-adv-x="1630" 
d="M1008 1526q337 0 472 -187q121 -168 120 -409t-131 -486q-71 -133 -172 -239t-260 -175t-333 -69q-336 0 -464 177q-129 177 -128 417t131 486q71 135 172 241t260 175t333 69zM985 1348q-276 0 -471 -228t-195 -549q-1 -199 105 -315t303 -117q276 1 471 231t195 550
q1 196 -105 312t-303 116z" />
    <glyph glyph-name="afii10033" unicode="&#x41f;" horiz-adv-x="1480" 
d="M352 1487h1178l-316 -1487h-200l278 1309h-776l-278 -1309h-201z" />
    <glyph glyph-name="afii10034" unicode="&#x420;" horiz-adv-x="1353" 
d="M1022 1487q172 0 267 -86t95 -232q0 -203 -145 -373t-399 -169h-469l-133 -627h-201l315 1487h670zM807 799q158 0 263 82q106 82 106 258t-252 176h-408l-108 -516h399z" />
    <glyph glyph-name="afii10035" unicode="&#x421;" horiz-adv-x="1495" 
d="M1311 1038q0 142 -82 224q-87 82 -268 86q-254 0 -447 -228t-192 -592q0 -389 387 -389q114 0 249 73q74 40 144 126t119 209h194q-101 -273 -267 -403q-168 -128 -300 -155q-132 -28 -207 -28q-231 0 -380 133q-148 133 -148 408q0 428 254 726t630 298q252 0 381 -125
t129 -311q0 -27 -4 -52h-192z" />
    <glyph glyph-name="afii10036" unicode="&#x422;" horiz-adv-x="1263" 
d="M897 1309l-279 -1309h-200l278 1309h-503l36 178h1209l-37 -178h-504z" />
    <glyph glyph-name="afii10037" unicode="&#x423;" horiz-adv-x="1363" 
d="M349 -39q-85 0 -156 14l36 172q43 -8 107 -8t99 24q34 24 104 113l-320 1211h215l242 -1016l647 1016h215l-823 -1251q-105 -158 -193 -216t-173 -59z" />
    <glyph glyph-name="afii10038" unicode="&#x424;" horiz-adv-x="1722" 
d="M1501 865q0 157 -108 234q-109 77 -297 77l-185 -865q129 0 235 36q187 64 277 225q78 136 78 293zM713 311l184 865q-139 0 -249 -41t-171 -103q-167 -168 -169 -417q-1 -150 108 -227t297 -77zM1706 866q0 -135 -58 -263q-123 -272 -427 -389q-158 -60 -342 -60
l-33 -154h-199l33 154q-287 0 -432 131t-146 336q0 131 58 258q124 275 422 392q160 62 348 62l33 154h198l-33 -154q286 0 432 -131t146 -336z" />
    <glyph glyph-name="afii10039" unicode="&#x425;" horiz-adv-x="1378" 
d="M272 1487h252l256 -569l498 569h240l-652 -725l359 -762h-248l-270 610l-541 -610h-242l692 762z" />
    <glyph glyph-name="afii10040" unicode="&#x426;" horiz-adv-x="1503" 
d="M553 1487l-279 -1309h777l286 1309h193l-279 -1309h131l-106 -500h-184l69 322h-1124l315 1487h201z" />
    <glyph glyph-name="afii10041" unicode="&#x427;" horiz-adv-x="1406" 
d="M449 969q0 -168 249 -168q113 0 422 53l135 633h201l-315 -1487h-201l145 688q-285 -66 -487 -65q-358 0 -358 282q0 55 14 119l98 463h201l-96 -459q-8 -37 -8 -59z" />
    <glyph glyph-name="afii10042" unicode="&#x428;" horiz-adv-x="1998" 
d="M553 1487l-279 -1309h547l279 1309h200l-278 -1309h547l278 1309h201l-315 -1487h-1696l315 1487h201z" />
    <glyph glyph-name="afii10043" unicode="&#x429;" horiz-adv-x="2013" 
d="M553 1487l-279 -1309h547l279 1309h200l-278 -1309h547l278 1309h201l-279 -1309h132l-107 -500h-182l69 322h-1644l315 1487h201z" />
    <glyph glyph-name="afii10044" unicode="&#x42a;" horiz-adv-x="1492" 
d="M823 178q88 0 155 24q68 24 104 58q93 85 96 240q0 195 -258 194h-416l-111 -516h430zM1024 872q186 0 274 -98t88 -246q0 -220 -156 -374t-384 -154h-690l278 1315h-272l37 172h473l-131 -615h483z" />
    <glyph glyph-name="afii10045" unicode="&#x42b;" horiz-adv-x="1820" 
d="M1870 1487l-316 -1487h-200l315 1487h201zM705 178q240 0 317 161q37 74 37 161q0 195 -258 194h-416l-111 -516h431zM905 872q187 0 275 -98t88 -246q0 -220 -156 -374t-385 -154h-690l315 1487h201l-131 -615h483z" />
    <glyph glyph-name="afii10046" unicode="&#x42c;" horiz-adv-x="1374" 
d="M705 178q240 0 317 161q37 74 37 161q0 195 -258 194h-416l-111 -516h431zM905 872q187 0 275 -98t88 -246q0 -220 -156 -374t-385 -154h-690l315 1487h201l-131 -615h483z" />
    <glyph glyph-name="afii10047" unicode="&#x42d;" horiz-adv-x="1495" 
d="M1266 942q0 197 -94 301t-269 105q-358 0 -502 -310h-194q84 207 274 347q189 141 453 141t401 -148t138 -401q0 -302 -143 -559q-73 -132 -172 -234q-100 -102 -242 -162t-304 -61q-79 1 -168 21q-88 20 -144 57t-111 91q-117 117 -115 355h194q0 -223 184 -306
q87 -40 187 -40q225 1 371 147t215 394h-670l35 162h670q6 53 6 100z" />
    <glyph glyph-name="afii10048" unicode="&#x42e;" horiz-adv-x="2037" 
d="M1802 932q0 192 -94 304t-270 112t-320 -110t-226 -291q-81 -181 -81 -383t94 -314t273 -111q264 1 444 235t180 558zM1142 -39q-309 0 -427 179q-107 161 -107 386q0 88 13 168h-236l-147 -694h-201l315 1487h201l-131 -615h235q86 246 274 438q97 99 237 157
q140 59 298 59q311 1 429 -171q118 -171 117 -405q-1 -235 -129 -493q-69 -137 -168 -246t-254 -179t-319 -71z" />
    <glyph glyph-name="afii10049" unicode="&#x42f;" horiz-adv-x="1441" 
d="M778 1315q-265 0 -317 -230q-10 -43 -10 -84q0 -193 274 -192h422l106 506h-475zM829 1487h662l-315 -1487h-201l135 637h-332l-532 -637h-252l557 637q-115 21 -201 86q-110 83 -109 234q3 398 386 503q98 27 202 27z" />
    <glyph glyph-name="afii10065" unicode="&#x430;" horiz-adv-x="1148" 
d="M371 121q131 0 247 74t140 180l37 178q-70 -47 -312 -68q-279 -25 -278 -231q0 -133 166 -133zM698 1114q231 0 314 -129q28 -45 28 -95t-70 -376t-71 -344q0 -45 49 -45q18 0 60 8l-29 -133q-61 -20 -100 -20q-164 0 -164 120q0 12 4 45q-57 -49 -105 -81t-135 -63
q-87 -32 -201 -32t-191 67t-77 177q0 165 118 275t275 130q313 37 326 41q121 29 121 172q0 131 -217 132q-147 0 -207 -67q-59 -67 -86 -142h-168q78 360 526 360z" />
    <glyph glyph-name="afii10066" unicode="&#x431;" horiz-adv-x="1167" 
d="M451 127q109 0 193 58q84 59 129 145q157 308 33 498q-54 82 -174 83q-120 0 -204 -55t-131 -139q-98 -175 -96 -330q0 -260 250 -260zM684 1063q180 0 273 -112t94 -285q0 -121 -44 -243t-123 -223t-206 -166t-290 -65q-163 1 -262 103t-99 317q0 121 32 270
q63 295 235 490t429 231q152 24 202 42t83 65h166q-84 -144 -191 -191q-57 -24 -101 -34t-126 -21q-182 -23 -302 -117t-196 -268q88 94 203 150t223 57z" />
    <glyph glyph-name="afii10067" unicode="&#x432;" horiz-adv-x="1116" 
d="M739 1083q150 0 227 -61q76 -61 76 -165q0 -103 -72 -181t-167 -103q195 -45 195 -211t-128 -264q-127 -98 -340 -98h-512l230 1083h491zM559 152q115 0 187 50t71 152q0 137 -205 138h-307l-72 -340h326zM600 635q254 0 254 192q0 51 -38 78t-148 27h-269l-63 -297h264z
" />
    <glyph glyph-name="afii10068" unicode="&#x433;" horiz-adv-x="858" 
d="M248 1083h704l-30 -151h-523l-198 -932h-185z" />
    <glyph glyph-name="afii10069" unicode="&#x434;" horiz-adv-x="1177" 
d="M774 152l166 780h-399l-41 -197q-74 -348 -234 -583h508zM78 152q168 225 244 579l75 352h758l-199 -931h121l-100 -469h-166l68 317h-789l-67 -317h-166l100 469h121z" />
    <glyph glyph-name="afii10070" unicode="&#x435;" horiz-adv-x="1130" 
d="M895 711q0 240 -242 239q-123 0 -231 -98t-135 -225h602q6 43 6 84zM434 -31q-184 -1 -283 105t-100 286q-1 306 187 530t477 224q178 0 267 -104t89 -295q0 -113 -27 -234h-788q-14 -76 -14 -116q0 -238 252 -238q117 -1 213 71t110 142h182q-168 -371 -565 -371z" />
    <glyph glyph-name="afii10072" unicode="&#x436;" horiz-adv-x="1503" 
d="M948 1083l-102 -483l506 483h233l-522 -477l309 -606h-217l-242 485l-112 -96l-82 -389h-174l82 389l-62 96l-454 -485h-220l568 606l-320 477h232l303 -479l100 479h174z" />
    <glyph glyph-name="afii10073" unicode="&#x437;" horiz-adv-x="1032" 
d="M524 487h-108l30 144h99q127 0 188 58q61 59 61 131q1 138 -202 137q-204 -1 -279 -183h-174q45 132 169 236t308 104t276 -71q93 -71 93 -185t-76 -192t-168 -101q170 -63 170 -213q1 -176 -149 -279t-362 -103t-302 81q-88 82 -88 221q0 31 4 68h181q-4 -16 -5 -41
q0 -90 56 -131t181 -41q124 0 211 57t87 166q0 137 -201 137z" />
    <glyph glyph-name="afii10074" unicode="&#x438;" horiz-adv-x="1173" 
d="M430 1083l-172 -811h4l703 811h190l-229 -1083h-183l172 811h-4l-702 -811h-191l230 1083h182z" />
    <glyph glyph-name="afii10075" unicode="&#x439;" horiz-adv-x="1173" 
d="M594 1487q0 -80 38 -122t136 -42t152 43q53 43 96 121h100q-13 -79 -85 -167q-39 -50 -113 -83t-168 -33q-147 0 -206 66q-58 66 -59 153q0 39 7 64h102zM430 1083l-172 -811h4l703 811h190l-229 -1083h-183l172 811h-4l-702 -811h-191l230 1083h182z" />
    <glyph glyph-name="afii10076" unicode="&#x43a;" horiz-adv-x="1042" 
d="M430 1083l-100 -471l565 471h231l-499 -403l295 -680h-217l-234 553l-184 -143l-86 -410h-183l230 1083h182z" />
    <glyph glyph-name="afii10077" unicode="&#x43b;" horiz-adv-x="1167" 
d="M16 137q82 0 126 68t94 295l122 583h793l-229 -1083h-183l197 932h-428l-105 -494q-96 -455 -376 -454q-59 0 -113 16l29 141q29 -4 73 -4z" />
    <glyph glyph-name="afii10078" unicode="&#x43c;" horiz-adv-x="1441" 
d="M248 1083h256l153 -850l514 850h252l-229 -1083h-178l133 629l59 233h-14l-522 -862h-131l-158 862h-14q-14 -119 -39 -233l-133 -629h-179z" />
    <glyph glyph-name="afii10079" unicode="&#x43d;" horiz-adv-x="1136" 
d="M430 1083l-92 -436h506l92 436h182l-229 -1083h-182l104 496h-506l-104 -496h-183l230 1083h182z" />
    <glyph glyph-name="afii10080" unicode="&#x43e;" 
d="M480 127q124 0 211 63q87 64 130 158q84 185 84 316q0 294 -241 292q-113 0 -199 -63t-131 -157q-162 -336 -33 -527q55 -82 179 -82zM455 -31q-199 0 -298 120t-99 295t72 337q74 161 224 277t346 116t295 -119q98 -119 99 -301q0 -256 -167 -482q-79 -108 -203 -176
t-269 -67z" />
    <glyph glyph-name="afii10081" unicode="&#x43f;" horiz-adv-x="1136" 
d="M248 1083h870l-229 -1083h-182l198 932h-506l-198 -932h-185z" />
    <glyph glyph-name="afii10082" unicode="&#x440;" horiz-adv-x="1153" 
d="M772 1114q170 0 261 -103t91 -288t-93 -378q-50 -103 -120 -186t-175 -136t-230 -54q-199 0 -258 158l-119 -555h-182l321 1511h170l-32 -153q76 86 158 135t208 49zM719 950q-115 0 -198 -60t-124 -154q-76 -173 -78 -343q1 -123 55 -195t165 -71q151 0 271 153t120 427
q0 243 -211 243z" />
    <glyph glyph-name="afii10083" unicode="&#x441;" horiz-adv-x="1044" 
d="M858 719q0 119 -46 175t-154 56t-188 -57q-81 -57 -128 -147q-96 -183 -94 -371q0 -248 227 -248q94 0 179 68t134 188h177q-47 -146 -165 -270q-62 -66 -156 -105t-208 -39q-184 1 -284 107t-101 286q1 304 189 528t475 224q172 0 249 -90t76 -227q0 -39 -6 -78h-176z
" />
    <glyph glyph-name="afii10084" unicode="&#x442;" horiz-adv-x="933" 
d="M127 1083h895l-31 -151h-356l-199 -932h-182l199 932h-357z" />
    <glyph glyph-name="afii10085" unicode="&#x443;" horiz-adv-x="1034" 
d="M-8 -442q-20 0 -74 16l35 166q47 -18 111 -18t100 37q37 38 141 212l-166 1112h207l103 -882h4l475 882h200q-47 -82 -303 -536t-446 -744q-96 -147 -167 -196t-220 -49z" />
    <glyph glyph-name="afii10086" unicode="&#x444;" horiz-adv-x="1701" 
d="M430 127q162 0 259 172t97 415t-180 242q-108 0 -194 -104t-126 -242t-40 -266q0 -217 184 -217zM1274 956q-94 0 -167 -70q-117 -111 -168 -366q-19 -94 -19 -166q0 -123 52 -175t137 -52t159 60q121 98 173 334q19 91 19 189t-46 172t-140 74zM1354 1114
q141 0 218 -103t77 -284t-75 -370q-42 -105 -101 -190t-157 -141t-216 -57q-178 0 -242 146h-4l-115 -543h-174l117 555q-127 -158 -315 -158q-309 0 -310 355q0 190 69 371t196 300t278 119q176 0 260 -156l111 529h174l-113 -531q147 158 322 158z" />
    <glyph glyph-name="afii10087" unicode="&#x445;" horiz-adv-x="1032" 
d="M156 1083h233l170 -381l330 381h223l-475 -526l260 -557h-231l-183 408l-346 -408h-229l498 557z" />
    <glyph glyph-name="afii10088" unicode="&#x446;" horiz-adv-x="1171" 
d="M434 1083l-198 -931h507l199 931h182l-198 -931h118l-100 -469h-164l68 317h-825l229 1083h182z" />
    <glyph glyph-name="afii10089" unicode="&#x447;" horiz-adv-x="1095" 
d="M336 715q0 -117 170 -117t295 37l94 448h182l-229 -1083h-182l102 483q-176 -41 -324 -41t-228 50q-79 50 -79 167q0 37 6 66l84 358h183l-70 -331q-4 -29 -4 -37z" />
    <glyph glyph-name="afii10090" unicode="&#x448;" horiz-adv-x="1726" 
d="M430 1083l-197 -931h457l197 931h182l-197 -931h457l197 931h182l-229 -1083h-1461l230 1083h182z" />
    <glyph glyph-name="afii10091" unicode="&#x449;" horiz-adv-x="1763" 
d="M434 1083l-198 -931h454l199 931h182l-199 -931h455l199 931h182l-199 -931h121l-100 -469h-166l68 317h-1409l229 1083h182z" />
    <glyph glyph-name="afii10092" unicode="&#x44a;" horiz-adv-x="1185" 
d="M621 152q264 0 264 217q0 127 -193 127h-260l-72 -344h261zM723 647q172 1 261 -69t89 -187q0 -163 -125 -277t-358 -114h-445l199 932h-260l31 151h442l-92 -436h258z" />
    <glyph glyph-name="afii10093" unicode="&#x44b;" horiz-adv-x="1486" 
d="M494 152q264 0 264 217q0 127 -193 127h-260l-72 -344h261zM596 647q172 1 261 -69t89 -187q0 -163 -125 -277t-358 -114h-445l230 1083h182l-92 -436h258zM1468 1083l-229 -1083h-182l229 1083h182z" />
    <glyph glyph-name="afii10094" unicode="&#x44c;" horiz-adv-x="1058" 
d="M494 152q264 0 264 217q0 127 -193 127h-260l-72 -344h261zM596 647q172 1 261 -69t89 -187q0 -163 -125 -277t-358 -114h-445l230 1083h182l-92 -436h258z" />
    <glyph glyph-name="afii10095" unicode="&#x44d;" horiz-adv-x="1056" 
d="M815 709q0 104 -60 173t-175 68q-217 0 -312 -225h-176q48 153 192 271t332 118t285 -108q98 -108 98 -297q0 -301 -176 -521t-444 -219q-104 0 -180 33q-191 83 -195 336h178q16 -211 224 -211q139 0 240 110t130 250h-387l31 144h387q8 35 8 78z" />
    <glyph glyph-name="afii10096" unicode="&#x44e;" horiz-adv-x="1564" 
d="M922 129q116 0 200 66q84 67 123 163q74 183 74 332q0 266 -221 266q-94 0 -169 -48t-117 -116q-109 -175 -114 -409q1 -254 224 -254zM1120 1114q205 0 297 -113t92 -290q0 -257 -155 -491q-74 -110 -196 -180t-269 -69q-197 0 -287 115t-90 295q0 61 8 115h-215
l-104 -496h-183l230 1083h182l-92 -436h215q72 205 217 336t350 131z" />
    <glyph glyph-name="afii10097" unicode="&#x44f;" horiz-adv-x="1071" 
d="M555 932q-111 0 -177 -55t-67 -156q0 -121 172 -121h285l72 332h-285zM127 698q0 178 131 282t334 103h461l-230 -1083h-182l96 457h-231l-352 -457h-207l366 463q-72 15 -129 77t-57 158z" />
    <glyph glyph-name="afii10071" unicode="&#x451;" horiz-adv-x="1130" 
d="M1018 1280h-182l43 207h182zM645 1280h-182l43 207h182zM897 709q0 242 -244 241q-123 0 -230 -97t-134 -226h602q6 43 6 82zM434 -31q-184 1 -283 105t-100 282q-1 310 187 534t477 224q178 0 267 -104t89 -295q0 -113 -27 -234h-788q-12 -61 -12 -114q0 -240 252 -240
q117 -1 213 71t110 142h182q-172 -371 -567 -371z" />
    <glyph glyph-name="afii10099" unicode="&#x452;" horiz-adv-x="1146" 
d="M754 1114q131 0 221 -59t90 -191t-87 -424t-222 -450q-163 -190 -406 -217l33 151q208 32 315 248q94 190 153 472q25 120 26 163q0 143 -177 143q-129 0 -233 -85t-143 -275l-125 -590h-183l256 1198h-122l30 152h123l29 137h182l-31 -137h322l-31 -152h-321l-56 -260h4
q170 176 353 176z" />
    <glyph glyph-name="afii10100" unicode="&#x453;" horiz-adv-x="858" 
d="M971 1516l-318 -236h-139l223 236h234zM248 1083h704l-30 -151h-523l-198 -932h-185z" />
    <glyph glyph-name="afii10101" unicode="&#x454;" horiz-adv-x="1034" 
d="M244 393q0 -115 57 -191t172 -75q205 0 309 211h183q-57 -147 -195 -258t-328 -111q-192 0 -291 108t-99 295t104 395q105 209 297 297q109 50 237 50q164 0 261 -104t98 -244q0 -25 -5 -41h-180q0 113 -50 169t-175 56t-225 -96t-129 -223h387l-31 -144h-387
q-10 -51 -10 -94z" />
    <glyph glyph-name="afii10102" unicode="&#x455;" horiz-adv-x="1034" 
d="M803 819q0 137 -223 137q-64 0 -127 -24q-127 -48 -125 -158q0 -45 49 -72q49 -26 222 -70t248 -100t75 -141q0 -186 -156 -304t-356 -118q-395 0 -396 279q0 55 11 100h176q-6 -25 -6 -55q0 -166 245 -166q115 0 202 52t87 151q0 43 -59 80q-60 38 -222 70t-234 84
t-73 143q0 190 154 299t338 108q106 0 180 -28t107 -74q59 -81 59 -174q0 -39 -6 -64h-176q6 29 6 45z" />
    <glyph glyph-name="afii10103" unicode="&#x456;" horiz-adv-x="448" 
d="M473 1280h-182l43 207h182zM430 1083l-229 -1083h-183l230 1083h182z" />
    <glyph glyph-name="afii10104" unicode="&#x457;" horiz-adv-x="573" 
d="M696 1280h-182l43 207h182zM373 1280h-183l43 207h183zM492 1083l-230 -1083h-182l229 1083h183z" />
    <glyph glyph-name="afii10105" unicode="&#x458;" horiz-adv-x="448" 
d="M475 1280h-182l43 207h182zM-172 -270q86 0 116 22t48 111l260 1220h182l-264 -1241q-19 -92 -74 -171q-75 -107 -262 -105q-35 0 -76 6l33 158h37z" />
    <glyph glyph-name="afii10106" unicode="&#x459;" horiz-adv-x="1777" 
d="M1214 152q264 0 265 217q0 127 -193 127h-260l-72 -344h260zM1317 647q172 1 261 -69t89 -187q0 -163 -125 -277t-358 -114h-445l197 932h-428l-105 -494q-96 -455 -376 -454q-59 0 -113 16l29 141q29 -4 73 -4q82 0 126 68t94 295l122 583h793l-92 -436h258z" />
    <glyph glyph-name="afii10107" unicode="&#x45a;" horiz-adv-x="1746" 
d="M1182 152q264 0 264 217q0 127 -193 127h-260l-71 -344h260zM1284 647q172 1 261 -69t89 -187q0 -163 -125 -277t-358 -114h-444l104 496h-506l-104 -496h-183l230 1083h182l-92 -436h506l92 436h182l-92 -436h258z" />
    <glyph glyph-name="afii10108" unicode="&#x45b;" horiz-adv-x="1146" 
d="M754 1114q131 0 221 -59t90 -205q0 -51 -12 -113l-156 -737h-182l149 709q12 55 13 98q0 143 -177 143q-127 0 -231 -85t-145 -275l-125 -590h-183l256 1198h-122l30 152h123l29 137h182l-31 -137h322l-31 -152h-321l-56 -260h4q170 176 353 176z" />
    <glyph glyph-name="afii10109" unicode="&#x45c;" horiz-adv-x="1042" 
d="M1055 1516l-318 -236h-139l223 236h234zM430 1083l-100 -471l565 471h231l-499 -403l295 -680h-217l-234 553l-184 -143l-86 -410h-183l230 1083h182z" />
    <glyph glyph-name="afii10110" unicode="&#x45e;" horiz-adv-x="1034" 
d="M508 1487q0 -80 38 -122t136 -42t152 43q53 43 96 121h100q-17 -77 -86 -168q-39 -51 -113 -83t-167 -32q-147 0 -206 66q-58 66 -59 153q0 39 7 64h102zM-8 -442q-20 0 -74 16l35 166q47 -18 111 -18t100 37q37 38 141 212l-166 1112h207l103 -882h4l475 882h200
q-47 -82 -303 -536t-446 -744q-96 -147 -167 -196t-220 -49z" />
    <glyph glyph-name="afii10193" unicode="&#x45f;" horiz-adv-x="1144" 
d="M430 1083l-199 -931h514l199 931h182l-231 -1083h-348l-68 -317h-182l68 317h-347l230 1083h182z" />
    <glyph glyph-name="afii10050" unicode="&#x490;" horiz-adv-x="1142" 
d="M352 1487h772l37 174h201l-74 -352h-772l-278 -1309h-201z" />
    <glyph glyph-name="afii10098" unicode="&#x491;" horiz-adv-x="858" 
d="M250 1083h522l29 134h182l-59 -285h-523l-198 -932h-185z" />
    <glyph glyph-name="cyrZhedesc" unicode="&#x496;" horiz-adv-x="2084" 
d="M1755 0h-80l-305 741l-235 -213l-113 -528h-199l113 528l-145 213l-621 -741h-244l742 883l-400 604h256l463 -715l152 715h198l-151 -715l766 715h256l-658 -604l293 -705h133l-106 -500h-184z" />
    <glyph glyph-name="cyrzhedesc" unicode="&#x497;" horiz-adv-x="1523" 
d="M1217 0h-62l-242 485l-112 -96l-82 -389h-174l82 389l-62 96l-454 -485h-220l568 606l-320 477h232l303 -479l100 479h174l-102 -483l506 483h233l-522 -477l231 -454h119l-100 -469h-164z" />
    <glyph glyph-name="cyrEndesc" unicode="&#x4a2;" horiz-adv-x="1503" 
d="M1161 0h-147l147 694h-776l-147 -694h-201l315 1487h201l-131 -615h776l131 615h201l-279 -1309h131l-106 -500h-184z" />
    <glyph glyph-name="cyrendesc" unicode="&#x4a3;" horiz-adv-x="1163" 
d="M844 0h-137l104 496h-506l-104 -496h-183l230 1083h182l-92 -436h506l92 436h182l-196 -931h118l-100 -469h-164z" />
    <glyph glyph-name="cyrstraightU" unicode="&#x4ae;" horiz-adv-x="1378" 
d="M229 1487h234l276 -715l578 715h235l-749 -889l-127 -598h-201l127 598z" />
    <glyph glyph-name="cyrstraightu" unicode="&#x4af;" horiz-adv-x="1032" 
d="M211 -428l92 428l-172 1083h211l94 -888l496 888h198l-643 -1083l-92 -428h-184z" />
    <glyph glyph-name="cyrH" unicode="&#x4ba;" horiz-adv-x="1372" 
d="M814 727q-238 0 -429 -33l-147 -694h-201l315 1487h201l-133 -627q195 45 483 45q358 0 359 -282q0 -55 -15 -119l-106 -504h-201l104 500q8 37 9 59q-1 168 -239 168z" />
    <glyph glyph-name="cyrh" unicode="&#x4bb;" horiz-adv-x="1146" 
d="M754 1114q131 0 221 -59t90 -205q0 -51 -12 -113l-156 -737h-182l149 709q12 53 13 98q0 143 -177 143q-127 0 -231 -85t-145 -275l-125 -590h-183l316 1487h182l-117 -549h4q170 176 353 176z" />
    <glyph glyph-name="cyrinvE" unicode="&#x4d8;" horiz-adv-x="1495" 
d="M299 614q0 -225 88 -350q89 -125 289 -125t328 129q126 129 200 346h-905zM1266 942q0 197 -94 301t-269 105q-90 0 -174 -22t-180 -94t-152 -194h-194q86 205 277 346q190 142 454 142t401 -148t138 -401q0 -368 -209 -682q-100 -150 -266 -242t-375 -92
q-210 0 -360 136q-169 156 -169 540q1 82 15 139h1130q27 82 27 166z" />
    <glyph glyph-name="cyrinve" unicode="&#x4d9;" horiz-adv-x="1134" 
d="M475 133q121 0 231 94q109 94 136 209h-602q-6 -43 -7 -63q0 -240 242 -240zM694 1114q184 0 284 -105t99 -286q0 -307 -187 -530t-476 -224q-178 1 -268 105t-89 295q0 92 27 213h788q14 76 15 137q0 238 -252 237q-115 0 -211 -68t-113 -124h-182q180 350 565 350z" />
    <glyph glyph-name="cyrObar" unicode="&#x4e8;" horiz-adv-x="1630" 
d="M1393 920q1 196 -105 312t-307 116t-368 -131t-242 -345h1020q2 14 2 48zM739 139q209 0 385 157t240 398h-1036q-8 -55 -9 -123q-1 -199 105 -315t315 -117zM1008 1526q337 0 472 -187q121 -168 120 -409t-131 -486q-71 -133 -172 -239t-260 -175t-333 -69
q-336 0 -464 177q-129 177 -128 417t131 486q71 135 172 241t260 175t333 69z" />
    <glyph glyph-name="cyrobar" unicode="&#x4e9;" 
d="M664 956q-254 0 -371 -309h610q2 8 2 27q0 122 -55 202t-186 80zM502 127q146 -1 239 107q94 108 138 262h-627q-6 -49 -6 -84q0 -121 55 -203t201 -82zM455 -31q-199 0 -298 120t-99 295t72 337q74 161 224 277t346 116t295 -119q98 -119 99 -301q0 -256 -167 -482
q-79 -108 -203 -176t-269 -67z" />
    <glyph glyph-name="endash" unicode="&#x2013;" 
d="M1167 598l-32 -149h-1151l32 149h1151z" />
    <glyph glyph-name="emdash" unicode="&#x2014;" horiz-adv-x="2068" 
d="M2085 598l-33 -149h-2068l32 149h2069z" />
    <glyph glyph-name="quoteleft" unicode="&#x2018;" horiz-adv-x="483" 
d="M436 1192l-47 -219h-215l43 203q57 274 283 323l-21 -96q-113 -16 -153 -211h110z" />
    <glyph glyph-name="quoteright" unicode="&#x2019;" horiz-adv-x="483" 
d="M197 1266l47 219h217l-43 -203q-20 -98 -62 -166t-103 -106q-62 -38 -120 -47l21 94q111 10 153 209h-110z" />
    <glyph glyph-name="quotesinglbase" unicode="&#x201a;" horiz-adv-x="573" 
d="M186 0l47 219h218l-43 -203q-20 -98 -62 -166t-103 -106q-62 -38 -120 -47l20 94q111 10 154 209h-111z" />
    <glyph glyph-name="quotedblleft" unicode="&#x201c;" horiz-adv-x="823" 
d="M436 1192l-47 -219h-215l43 203q57 274 283 323l-21 -96q-113 -16 -153 -211h110zM776 1192l-47 -219h-215l43 203q57 274 283 323l-21 -96q-113 -16 -153 -211h110z" />
    <glyph glyph-name="quotedblright" unicode="&#x201d;" horiz-adv-x="823" 
d="M537 1266l47 219h217l-43 -203q-20 -98 -62 -166t-103 -106q-62 -38 -120 -47l21 94q111 10 153 209h-110zM197 1266l47 219h217l-43 -203q-20 -98 -62 -166t-103 -106q-62 -38 -120 -47l21 94q111 10 153 209h-110z" />
    <glyph glyph-name="quotedblbase" unicode="&#x201e;" horiz-adv-x="690" 
d="M403 0l48 219h217l-43 -203q-19 -98 -61 -166t-104 -106t-120 -47l20 94q111 10 154 209h-111zM63 0l48 219h217l-43 -203q-19 -98 -61 -166t-104 -106t-120 -47l20 94q111 10 154 209h-111z" />
    <glyph glyph-name="dagger" unicode="&#x2020;" 
d="M741 893l-260 -1221h-192l260 1221h-391l32 156h392l92 436h192l-92 -436h389l-33 -156h-389z" />
    <glyph glyph-name="daggerdbl" unicode="&#x2021;" 
d="M741 893l-145 -678h389l-33 -156h-389l-82 -387h-192l82 387h-389l32 156h389l146 678h-391l32 156h392l92 436h192l-92 -436h389l-33 -156h-389z" />
    <glyph glyph-name="bullet" unicode="&#x2022;" horiz-adv-x="724" 
d="M432 1071q117 0 192 -74t74 -186q0 -157 -127 -275t-278 -118q-117 0 -191 72t-73 184q1 156 125 276t278 121z" />
    <glyph glyph-name="ellipsis" unicode="&#x2026;" horiz-adv-x="2068" 
d="M1855 219l-45 -219h-217l45 219h217zM1165 219l-45 -219h-217l45 219h217zM475 219l-45 -219h-217l45 219h217z" />
    <glyph glyph-name="perthousand" unicode="&#x2030;" horiz-adv-x="2658" 
d="M2153 543q-91 0 -169 -78t-78 -164t49 -129q48 -43 131 -43t165 73t82 173q0 68 -44 118t-136 50zM2195 688q125 0 205 -78t80 -198q0 -166 -135 -297t-299 -131q-125 0 -206 78t-81 200q0 170 134 298t302 128zM1542 1454l-1139 -1495h-110l1137 1495h112zM1360 543
q-92 0 -169 -78t-77 -164t48 -129t131 -43t165 73t82 173q0 68 -44 118t-136 50zM1403 688q125 0 205 -78t80 -198q0 -166 -136 -297t-299 -131q-125 0 -205 78t-81 200q0 170 134 298t302 128zM547 1292q-92 0 -169 -78t-77 -164t48 -128t131 -43q83 1 165 73t82 172
q0 68 -44 118t-136 50zM590 1438q125 0 205 -78t79 -199q0 -166 -135 -297t-299 -131q-125 0 -206 79t-80 200q0 170 134 298t302 128z" />
    <glyph glyph-name="guilsinglleft" unicode="&#x2039;" horiz-adv-x="690" 
d="M473 406l-39 -183l-272 256l41 189l379 256l-39 -183l-252 -168z" />
    <glyph glyph-name="guilsinglright" unicode="&#x203a;" horiz-adv-x="690" 
d="M109 223l38 183l252 167l-182 168l39 183l272 -256l-41 -189z" />
    <glyph glyph-name="Euro" unicode="&#x20ac;" 
d="M838 1307q-162 1 -264 -103t-168 -282h645l-70 -121h-610l-19 -117h592l-70 -121h-526q8 -203 89 -317t272 -113q106 0 191 34t187 105l-43 -206q-174 -100 -358 -101q-256 0 -395 168t-144 430h-159l67 121h97l16 117h-137l67 121h99q69 240 241 396t412 157
q190 0 362 -123l-86 -154q-126 109 -288 109z" />
    <glyph glyph-name="afii61352" unicode="&#x2116;" horiz-adv-x="2297" 
d="M1468 203h615l-21 -99h-614zM1923 893q-72 0 -125 -36q-86 -59 -112 -193q-10 -47 -11 -89q0 -156 146 -155q94 0 154 64q59 64 77 130t19 125q-1 154 -148 154zM1946 999q114 0 190 -55q76 -56 76 -172t-40 -214t-137 -171q-97 -74 -223 -74q-280 0 -280 240
q0 182 109 314q110 132 305 132zM1083 287l254 1200h195l-315 -1487h-226l-502 1200h-4l-254 -1200h-194l315 1487h238l489 -1200h4z" />
    <glyph glyph-name="trademark" unicode="&#x2122;" horiz-adv-x="2068" 
d="M862 1485l-26 -125h-263l-153 -727h-152l154 727h-262l26 125h676zM1243 1485l111 -627l372 627h232l-180 -852h-150l148 692h-4l-416 -692h-103l-120 692h-5l-147 -692h-150l181 852h231z" />
    <glyph glyph-name="uni2219" unicode="&#x2219;" horiz-adv-x="573" 
d="M310 653q50 1 80 -31t30 -83t-51 -99t-105 -47q-54 0 -81 32t-27 85t52 98t102 45z" />
    <glyph glyph-name="dotmath" unicode="&#x22c5;" horiz-adv-x="573" 
d="M310 653q50 1 80 -31t30 -83t-51 -99t-105 -47q-54 0 -81 32t-27 85t52 98t102 45z" />
    <glyph glyph-name="FLW265" horiz-adv-x="690" 
d="M618 666l-40 -185h-506l41 185h505z" />
    </font>
</defs>
</svg>
